g AngarFence1
v 0.07835795 0.01000593 0.0002110131
v -0.07810304 0.01000593 0.0002110131
v 0.07835795 -0.01000593 0.0002110131
v -0.07810304 -0.01000593 0.0002110131
v 0.07345647 -0.005782988 -0.0002110131
v 0.07351116 -0.005120506 -0.0002110131
v 0.07046317 -0.00580977 -0.0002110131
v 0.07304545 -0.004421379 -0.0002110131
v 0.06358475 0.004970878 -0.0002110131
v 0.06924534 -0.005370841 -0.0002110131
v 0.0680619 -0.004394598 -0.0002110131
v 0.05881042 0.004765928 -0.0002110131
v 0.06281639 0.005523299 -0.0002110131
v 0.06185711 0.005978752 -0.0002110131
v 0.05883089 0.006001813 -0.0002110131
v 0.05836089 0.005485697 -0.0002110131
v 0.05395536 -0.005782988 -0.0002110131
v 0.05401006 -0.005120506 -0.0002110131
v 0.05096208 -0.00580977 -0.0002110131
v 0.05354435 -0.004421379 -0.0002110131
v 0.04408365 0.004970878 -0.0002110131
v 0.04974424 -0.005370841 -0.0002110131
v 0.04856079 -0.004394598 -0.0002110131
v 0.03930932 0.004765928 -0.0002110131
v 0.04331529 0.005523299 -0.0002110131
v 0.04235601 0.005978752 -0.0002110131
v 0.03932979 0.006001813 -0.0002110131
v 0.03885979 0.005485697 -0.0002110131
v 0.03431977 -0.005782988 -0.0002110131
v 0.03437447 -0.005120506 -0.0002110131
v 0.03132648 -0.00580977 -0.0002110131
v 0.03390876 -0.004421379 -0.0002110131
v 0.02444806 0.004970878 -0.0002110131
v 0.03010865 -0.005370841 -0.0002110131
v 0.0289252 -0.004394598 -0.0002110131
v 0.01967373 0.004765928 -0.0002110131
v 0.0236797 0.005523299 -0.0002110131
v 0.02272042 0.005978752 -0.0002110131
v 0.0196942 0.006001813 -0.0002110131
v 0.0192242 0.005485697 -0.0002110131
v 0.02463647 -0.005782988 -0.0002110131
v 0.02469116 -0.005120506 -0.0002110131
v 0.02164318 -0.00580977 -0.0002110131
v 0.02422546 -0.004421379 -0.0002110131
v 0.01476476 0.004970878 -0.0002110131
v 0.02042535 -0.005370841 -0.0002110131
v 0.0192419 -0.004394598 -0.0002110131
v 0.00999043 0.004765928 -0.0002110131
v 0.0139964 0.005523299 -0.0002110131
v 0.01303711 0.005978752 -0.0002110131
v 0.0100109 0.006001813 -0.0002110131
v 0.009540899 0.005485697 -0.0002110131
v 0.01481868 -0.005782988 -0.0002110131
v 0.01487337 -0.005120506 -0.0002110131
v 0.01182538 -0.00580977 -0.0002110131
v 0.01440766 -0.004421379 -0.0002110131
v 0.004946961 0.004970878 -0.0002110131
v 0.01060755 -0.005370841 -0.0002110131
v 0.009424102 -0.004394598 -0.0002110131
v 0.0001726341 0.004765928 -0.0002110131
v 0.0041786 0.005523299 -0.0002110131
v 0.003219318 0.005978752 -0.0002110131
v 0.0001931 0.006001813 -0.0002110131
v -0.000276897 0.005485697 -0.0002110131
v 0.04427206 -0.005782988 -0.0002110131
v 0.04432675 -0.005120506 -0.0002110131
v 0.04127877 -0.00580977 -0.0002110131
v 0.04386105 -0.004421379 -0.0002110131
v 0.03440034 0.004970878 -0.0002110131
v 0.04006093 -0.005370841 -0.0002110131
v 0.03887749 -0.004394598 -0.0002110131
v 0.02962602 0.004765928 -0.0002110131
v 0.03363198 0.005523299 -0.0002110131
v 0.0326727 0.005978752 -0.0002110131
v 0.02964648 0.006001813 -0.0002110131
v 0.02917649 0.005485697 -0.0002110131
v 0.00500088 -0.005782988 -0.0002110131
v 0.005055573 -0.005120506 -0.0002110131
v 0.002007589 -0.00580977 -0.0002110131
v 0.004589865 -0.004421379 -0.0002110131
v -0.004870834 0.004970878 -0.0002110131
v 0.0007897544 -0.005370841 -0.0002110131
v -0.0003936935 -0.004394598 -0.0002110131
v -0.009645164 0.004765928 -0.0002110131
v -0.005639195 0.005523299 -0.0002110131
v -0.006598477 0.005978752 -0.0002110131
v -0.009624698 0.006001813 -0.0002110131
v -0.01009469 0.005485697 -0.0002110131
v -0.004547937 -0.005782988 -0.0002110131
v -0.004493244 -0.005120506 -0.0002110131
v -0.007541225 -0.00580977 -0.0002110131
v -0.004958951 -0.004421379 -0.0002110131
v -0.01441965 0.004970878 -0.0002110131
v -0.008759062 -0.005370841 -0.0002110131
v -0.00994251 -0.004394598 -0.0002110131
v -0.01919398 0.004765928 -0.0002110131
v -0.01518801 0.005523299 -0.0002110131
v -0.0161473 0.005978752 -0.0002110131
v -0.01917351 0.006001813 -0.0002110131
v -0.01964351 0.005485697 -0.0002110131
v -0.01409675 -0.005782988 -0.0002110131
v -0.01404206 -0.005120506 -0.0002110131
v -0.01709004 -0.00580977 -0.0002110131
v -0.01450777 -0.004421379 -0.0002110131
v -0.02396847 0.004970878 -0.0002110131
v -0.01830788 -0.005370841 -0.0002110131
v -0.01949133 -0.004394598 -0.0002110131
v -0.0287428 0.004765928 -0.0002110131
v -0.02473683 0.005523299 -0.0002110131
v -0.02569611 0.005978752 -0.0002110131
v -0.02872233 0.006001813 -0.0002110131
v -0.02919232 0.005485697 -0.0002110131
v -0.02404903 -0.005782988 -0.0002110131
v -0.02399434 -0.005120506 -0.0002110131
v -0.02704232 -0.00580977 -0.0002110131
v -0.02446005 -0.004421379 -0.0002110131
v -0.03392074 0.004970878 -0.0002110131
v -0.02826016 -0.005370841 -0.0002110131
v -0.0294436 -0.004394598 -0.0002110131
v -0.03869507 0.004765928 -0.0002110131
v -0.03468911 0.005523299 -0.0002110131
v -0.03564839 0.005978752 -0.0002110131
v -0.03867461 0.006001813 -0.0002110131
v -0.0391446 0.005485697 -0.0002110131
v -0.03373234 -0.005782988 -0.0002110131
v -0.03367765 -0.005120506 -0.0002110131
v -0.03672563 -0.00580977 -0.0002110131
v -0.03414336 -0.004421379 -0.0002110131
v -0.04360406 0.004970878 -0.0002110131
v -0.03794347 -0.005370841 -0.0002110131
v -0.03912692 -0.004394598 -0.0002110131
v -0.04837839 0.004765928 -0.0002110131
v -0.04437242 0.005523299 -0.0002110131
v -0.04533171 0.005978752 -0.0002110131
v -0.04835792 0.006001813 -0.0002110131
v -0.04882791 0.005485697 -0.0002110131
v -0.04381912 -0.005782988 -0.0002110131
v -0.04376443 -0.005120506 -0.0002110131
v -0.04681241 -0.00580977 -0.0002110131
v -0.04423014 -0.004421379 -0.0002110131
v -0.05369083 0.004970878 -0.0002110131
v -0.04803024 -0.005370841 -0.0002110131
v -0.0492137 -0.004394598 -0.0002110131
v -0.05846516 0.004765928 -0.0002110131
v -0.0544592 0.005523299 -0.0002110131
v -0.05541848 0.005978752 -0.0002110131
v -0.0584447 0.006001813 -0.0002110131
v -0.0589147 0.005485697 -0.0002110131
v -0.05336793 -0.005782988 -0.0002110131
v -0.05331324 -0.005120506 -0.0002110131
v -0.05636122 -0.00580977 -0.0002110131
v -0.05377894 -0.004421379 -0.0002110131
v -0.06323964 0.004970878 -0.0002110131
v -0.05757906 -0.005370841 -0.0002110131
v -0.0587625 -0.004394598 -0.0002110131
v -0.06801397 0.004765928 -0.0002110131
v -0.064008 0.005523299 -0.0002110131
v -0.06496729 0.005978752 -0.0002110131
v -0.06799351 0.006001813 -0.0002110131
v -0.0684635 0.005485697 -0.0002110131
v -0.06321375 -0.005782988 -0.0002110131
v -0.06315906 -0.005120506 -0.0002110131
v -0.06620704 -0.00580977 -0.0002110131
v -0.06362476 -0.004421379 -0.0002110131
v -0.07308546 0.004970878 -0.0002110131
v -0.06742487 -0.005370841 -0.0002110131
v -0.06860832 -0.004394598 -0.0002110131
v -0.07785979 0.004765928 -0.0002110131
v -0.07385383 0.005523299 -0.0002110131
v -0.07481311 0.005978752 -0.0002110131
v -0.07783932 0.006001813 -0.0002110131
v -0.07830933 0.005485697 -0.0002110131
v 0.07835796 -0.004858963 -0.0002110131
v 0.07835795 -0.000119257 -0.0002110131
v 0.06849372 0.004765928 -0.0002110131
v 0.07326805 0.004970878 -0.0002110131
v 0.07249969 0.005523299 -0.0002110131
v 0.07154041 0.005978752 -0.0002110131
v 0.06804419 0.005485697 -0.0002110131
v 0.06851419 0.006001813 -0.0002110131
v -0.07833086 0.0007669496 -0.0002110131
v -0.07835796 -0.003963108 -0.0002110131
v -0.07310472 -0.004421379 -0.0002110131
v -0.07690483 -0.005370841 -0.0002110131
v -0.075687 -0.00580977 -0.0002110131
v -0.07263902 -0.005120506 -0.0002110131
v -0.07269371 -0.005782988 -0.0002110131
v 0.04867759 0.005485697 -0.0002110131
v 0.04912712 0.004765928 -0.0002110131
v 0.04914759 0.006001813 -0.0002110131
v 0.0521738 0.005978752 -0.0002110131
v 0.05313309 0.005523299 -0.0002110131
v 0.05390144 0.004970878 -0.0002110131
v 0.05837858 -0.004394598 -0.0002110131
v 0.05956203 -0.005370841 -0.0002110131
v 0.06077987 -0.00580977 -0.0002110131
v 0.06336214 -0.004421379 -0.0002110131
v 0.06382785 -0.005120506 -0.0002110131
v 0.06377316 -0.005782988 -0.0002110131
vt 0.9873317 0.9873316
vt 0.01425382 0.9873316
vt 0.9873317 0.01266816
vt 0.01425382 0.01266816
vt 0.956848 0.2183437
vt 0.9571881 0.2506094
vt 0.9382317 0.2170393
vt 0.9542917 0.2846599
vt 0.8954528 0.7421029
vt 0.9306577 0.238417
vt 0.9232975 0.2859642
vt 0.8657598 0.7321209
vt 0.8906742 0.7690081
vt 0.8847081 0.7911906
vt 0.8658872 0.7923138
vt 0.862964 0.7671767
vt 0.8355647 0.2183437
vt 0.835905 0.2506094
vt 0.8169485 0.2170393
vt 0.8330085 0.2846599
vt 0.7741696 0.7421029
vt 0.8093745 0.238417
vt 0.8020142 0.2859642
vt 0.7444767 0.7321209
vt 0.7693909 0.7690081
vt 0.7634249 0.7911906
vt 0.7446039 0.7923138
vt 0.7416808 0.7671767
vt 0.7134451 0.2183437
vt 0.7137852 0.2506094
vt 0.6948289 0.2170393
vt 0.7108889 0.2846599
vt 0.65205 0.7421029
vt 0.6872549 0.238417
vt 0.6798947 0.2859642
vt 0.622357 0.7321209
vt 0.6472712 0.7690081
vt 0.6413051 0.7911906
vt 0.6224843 0.7923138
vt 0.6195612 0.7671767
vt 0.6532217 0.2183437
vt 0.6535618 0.2506094
vt 0.6346056 0.2170393
vt 0.6506655 0.2846599
vt 0.5918266 0.7421029
vt 0.6270314 0.238417
vt 0.6196712 0.2859642
vt 0.5621336 0.7321209
vt 0.5870478 0.7690081
vt 0.5810817 0.7911906
vt 0.5622609 0.7923138
vt 0.5593378 0.7671767
vt 0.5921619 0.2183437
vt 0.5925021 0.2506094
vt 0.5735458 0.2170393
vt 0.5896056 0.2846599
vt 0.5307667 0.7421029
vt 0.5659716 0.238417
vt 0.5586114 0.2859642
vt 0.5010737 0.7321209
vt 0.5259881 0.7690081
vt 0.520022 0.7911906
vt 0.501201 0.7923138
vt 0.498278 0.7671767
vt 0.7753413 0.2183437
vt 0.7756815 0.2506094
vt 0.7567252 0.2170393
vt 0.7727852 0.2846599
vt 0.7139462 0.7421029
vt 0.7491511 0.238417
vt 0.7417908 0.2859642
vt 0.6842532 0.7321209
vt 0.7091675 0.7690081
vt 0.7032015 0.7911906
vt 0.6843805 0.7923138
vt 0.6814574 0.7671767
vt 0.5311021 0.2183437
vt 0.5314422 0.2506094
vt 0.5124859 0.2170393
vt 0.5285458 0.2846599
vt 0.4697069 0.7421029
vt 0.5049118 0.238417
vt 0.4975516 0.2859642
vt 0.4400139 0.7321209
vt 0.4649283 0.7690081
vt 0.4589622 0.7911906
vt 0.4401412 0.7923138
vt 0.4372181 0.7671767
vt 0.4717151 0.2183437
vt 0.4720552 0.2506094
vt 0.453099 0.2170393
vt 0.4691589 0.2846599
vt 0.4103199 0.7421029
vt 0.4455248 0.238417
vt 0.4381646 0.2859642
vt 0.3806269 0.7321209
vt 0.4055412 0.7690081
vt 0.3995752 0.7911906
vt 0.3807542 0.7923138
vt 0.3778312 0.7671767
vt 0.4123281 0.2183437
vt 0.4126683 0.2506094
vt 0.393712 0.2170393
vt 0.4097719 0.2846599
vt 0.350933 0.7421029
vt 0.3861379 0.238417
vt 0.3787777 0.2859642
vt 0.3212399 0.7321209
vt 0.3461543 0.7690081
vt 0.3401882 0.7911906
vt 0.3213673 0.7923138
vt 0.3184442 0.7671767
vt 0.3504319 0.2183437
vt 0.350772 0.2506094
vt 0.3318157 0.2170393
vt 0.3478757 0.2846599
vt 0.2890368 0.7421029
vt 0.3242417 0.238417
vt 0.3168815 0.2859642
vt 0.2593438 0.7321209
vt 0.2842581 0.7690081
vt 0.278292 0.7911906
vt 0.2594711 0.7923138
vt 0.256548 0.7671767
vt 0.2902085 0.2183437
vt 0.2905486 0.2506094
vt 0.2715923 0.2170393
vt 0.2876523 0.2846599
vt 0.2288133 0.7421029
vt 0.2640182 0.238417
vt 0.256658 0.2859642
vt 0.1991203 0.7321209
vt 0.2240346 0.7690081
vt 0.2180686 0.7911906
vt 0.1992476 0.7923138
vt 0.1963246 0.7671767
vt 0.2274758 0.2183437
vt 0.227816 0.2506094
vt 0.2088596 0.2170393
vt 0.2249196 0.2846599
vt 0.1660807 0.7421029
vt 0.2012855 0.238417
vt 0.1939253 0.2859642
vt 0.1363876 0.7321209
vt 0.161302 0.7690081
vt 0.1553359 0.7911906
vt 0.1365149 0.7923138
vt 0.1335918 0.7671767
vt 0.1680889 0.2183437
vt 0.1684291 0.2506094
vt 0.1494727 0.2170393
vt 0.1655326 0.2846599
vt 0.1066937 0.7421029
vt 0.1418986 0.238417
vt 0.1345384 0.2859642
vt 0.07700074 0.7321209
vt 0.1019151 0.7690081
vt 0.09594899 0.7911906
vt 0.07712802 0.7923138
vt 0.07420501 0.7671767
vt 0.1068548 0.2183437
vt 0.1071949 0.2506094
vt 0.08823866 0.2170393
vt 0.1042986 0.2846599
vt 0.04545963 0.7421029
vt 0.08066458 0.238417
vt 0.0733043 0.2859642
vt 0.01576662 0.7321209
vt 0.04068094 0.7690081
vt 0.03471488 0.7911906
vt 0.01589391 0.7923138
vt 0.01297086 0.7671767
vt 0.9873317 0.2633477
vt 0.9873317 0.4941916
vt 0.9259832 0.7321209
vt 0.9556761 0.7421029
vt 0.9508975 0.7690081
vt 0.9449314 0.7911906
vt 0.9231874 0.7671767
vt 0.9261104 0.7923138
vt 0.0128369 0.5373536
vt 0.01266837 0.3069796
vt 0.04533982 0.2846599
vt 0.02170584 0.238417
vt 0.02927992 0.2170393
vt 0.04823619 0.2506094
vt 0.04789606 0.2183437
vt 0.8027406 0.7671767
vt 0.8055364 0.7321209
vt 0.8056637 0.7923138
vt 0.8244847 0.7911906
vt 0.8304508 0.7690081
vt 0.8352294 0.7421029
vt 0.8630741 0.2859642
vt 0.8704343 0.238417
vt 0.8780084 0.2170393
vt 0.8940682 0.2846599
vt 0.8969647 0.2506094
vt 0.8966246 0.2183437
vn 0 0 -1
vn 0 0 -1
vn 0 0 -1
vn 0 0 -1
vn 0 0 -1
vn 0 0 -1
vn 0 0 -1
vn 0 0 -1
vn 0 0 -1
vn 0 0 -1
vn 0 0 -1
vn 0 0 -1
vn 0 0 -1
vn 0 0 -1
vn 0 0 -1
vn 0 0 -1
vn 0 0 -1
vn 0 0 -1
vn 0 0 -1
vn 0 0 -1
vn 0 0 -1
vn 0 0 -1
vn 0 0 -1
vn 0 0 -1
vn 0 0 -1
vn 0 0 -1
vn 0 0 -1
vn 0 0 -1
vn 0 0 -1
vn 0 0 -1
vn 0 0 -1
vn 0 0 -1
vn 0 0 -1
vn 0 0 -1
vn 0 0 -1
vn 0 0 -1
vn 0 0 -1
vn 0 0 -1
vn 0 0 -1
vn 0 0 -1
vn 0 0 -1
vn 0 0 -1
vn 0 0 -1
vn 0 0 -1
vn 0 0 -1
vn 0 0 -1
vn 0 0 -1
vn 0 0 -1
vn 0 0 -1
vn 0 0 -1
vn 0 0 -1
vn 0 0 -1
vn 0 0 -1
vn 0 0 -1
vn 0 0 -1
vn 0 0 -1
vn 0 0 -1
vn 0 0 -1
vn 0 0 -1
vn 0 0 -1
vn 0 0 -1
vn 0 0 -1
vn 0 0 -1
vn 0 0 -1
vn 0 0 -1
vn 0 0 -1
vn 0 0 -1
vn 0 0 -1
vn 0 0 -1
vn 0 0 -1
vn 0 0 -1
vn 0 0 -1
vn 0 0 -1
vn 0 0 -1
vn 0 0 -1
vn 0 0 -1
vn 0 0 -1
vn 0 0 -1
vn 0 0 -1
vn 0 0 -1
vn 0 0 -1
vn 0 0 -1
vn 0 0 -1
vn 0 0 -1
vn 0 0 -1
vn 0 0 -1
vn 0 0 -1
vn 0 0 -1
vn 0 0 -1
vn 0 0 -1
vn 0 0 -1
vn 0 0 -1
vn 0 0 -1
vn 0 0 -1
vn 0 0 -1
vn 0 0 -1
vn 0 0 -1
vn 0 0 -1
vn 0 0 -1
vn 0 0 -1
vn 0 0 -1
vn 0 0 -1
vn 0 0 -1
vn 0 0 -1
vn 0 0 -1
vn 0 0 -1
vn 0 0 -1
vn 0 0 -1
vn 0 0 -1
vn 0 0 -1
vn 0 0 -1
vn 0 0 -1
vn 0 0 -1
vn 0 0 -1
vn 0 0 -1
vn 0 0 -1
vn 0 0 -1
vn 0 0 -1
vn 0 0 -1
vn 0 0 -1
vn 0 0 -1
vn 0 0 -1
vn 0 0 -1
vn 0 0 -1
vn 0 0 -1
vn 0 0 -1
vn 0 0 -1
vn 0 0 -1
vn 0 0 -1
vn 0 0 -1
vn 0 0 -1
vn 0 0 -1
vn 0 0 -1
vn 0 0 -1
vn 0 0 -1
vn 0 0 -1
vn 0 0 -1
vn 0 0 -1
vn 0 0 -1
vn 0 0 -1
vn 0 0 -1
vn 0 0 -1
vn 0 0 -1
vn 0 0 -1
vn 0 0 -1
vn 0 0 -1
vn 0 0 -1
vn 0 0 -1
vn 0 0 -1
vn 0 0 -1
vn 0 0 -1
vn 0 0 -1
vn 0 0 -1
vn 0 0 -1
vn 0 0 -1
vn 0 0 -1
vn 0 0 -1
vn 0 0 -1
vn 0 0 -1
vn 0 0 -1
vn 0 0 -1
vn 0 0 -1
vn 0 0 -1
vn 0 0 -1
vn 0 0 -1
vn 0 0 -1
vn 0 0 -1
vn 0 0 -1
vn 0 0 -1
vn 0 0 -1
vn 0 0 -1
vn 0 0 -1
vn 0 0 -1
vn 0 0 -1
vn 0 0 -1
vn 0 0 -1
vn 0 0 -1
vn 0 0 -1
vn 0 0 -1
vn 0 0 -1
vn 0 0 -1
vn 0 0 -1
vn 0 0 -1
vn 0 0 -1
vn 0 0 -1
vn 0 0 -1
vn 0 0 -1
vn 0 0 -1
vn 0 0 -1
vn 0 0 -1
vn 0 0 -1
vn 0 0 -1
vn 0 0 -1
vn 0 0 -1
vn 0 0 -1
vn 0 0 -1
vn 0 0 -1
vn 0 0 -1
vn 0 0 -1
g AngarFence1_0
f 3/3/3 2/2/2 1/1/1
f 3/3/3 4/4/4 2/2/2
f 7/7/7 6/6/6 5/5/5
f 7/7/7 8/8/8 6/6/6
f 7/7/7 9/9/9 8/8/8
f 10/10/10 9/9/9 7/7/7
f 11/11/11 9/9/9 10/10/10
f 12/12/12 9/9/9 11/11/11
f 12/12/12 13/13/13 9/9/9
f 14/14/14 13/13/13 12/12/12
f 14/14/14 12/12/12 15/15/15
f 15/15/15 12/12/12 16/16/16
f 19/19/19 18/18/18 17/17/17
f 19/19/19 20/20/20 18/18/18
f 19/19/19 21/21/21 20/20/20
f 22/22/22 21/21/21 19/19/19
f 23/23/23 21/21/21 22/22/22
f 24/24/24 21/21/21 23/23/23
f 24/24/24 25/25/25 21/21/21
f 26/26/26 25/25/25 24/24/24
f 26/26/26 24/24/24 27/27/27
f 27/27/27 24/24/24 28/28/28
f 31/31/31 30/30/30 29/29/29
f 31/31/31 32/32/32 30/30/30
f 31/31/31 33/33/33 32/32/32
f 34/34/34 33/33/33 31/31/31
f 35/35/35 33/33/33 34/34/34
f 36/36/36 33/33/33 35/35/35
f 36/36/36 37/37/37 33/33/33
f 38/38/38 37/37/37 36/36/36
f 38/38/38 36/36/36 39/39/39
f 39/39/39 36/36/36 40/40/40
f 43/43/43 42/42/42 41/41/41
f 43/43/43 44/44/44 42/42/42
f 43/43/43 45/45/45 44/44/44
f 46/46/46 45/45/45 43/43/43
f 47/47/47 45/45/45 46/46/46
f 48/48/48 45/45/45 47/47/47
f 48/48/48 49/49/49 45/45/45
f 50/50/50 49/49/49 48/48/48
f 50/50/50 48/48/48 51/51/51
f 51/51/51 48/48/48 52/52/52
f 55/55/55 54/54/54 53/53/53
f 55/55/55 56/56/56 54/54/54
f 55/55/55 57/57/57 56/56/56
f 58/58/58 57/57/57 55/55/55
f 59/59/59 57/57/57 58/58/58
f 60/60/60 57/57/57 59/59/59
f 60/60/60 61/61/61 57/57/57
f 62/62/62 61/61/61 60/60/60
f 62/62/62 60/60/60 63/63/63
f 63/63/63 60/60/60 64/64/64
f 67/67/67 66/66/66 65/65/65
f 67/67/67 68/68/68 66/66/66
f 67/67/67 69/69/69 68/68/68
f 70/70/70 69/69/69 67/67/67
f 71/71/71 69/69/69 70/70/70
f 72/72/72 69/69/69 71/71/71
f 72/72/72 73/73/73 69/69/69
f 74/74/74 73/73/73 72/72/72
f 74/74/74 72/72/72 75/75/75
f 75/75/75 72/72/72 76/76/76
f 79/79/79 78/78/78 77/77/77
f 79/79/79 80/80/80 78/78/78
f 79/79/79 81/81/81 80/80/80
f 82/82/82 81/81/81 79/79/79
f 83/83/83 81/81/81 82/82/82
f 84/84/84 81/81/81 83/83/83
f 84/84/84 85/85/85 81/81/81
f 86/86/86 85/85/85 84/84/84
f 86/86/86 84/84/84 87/87/87
f 87/87/87 84/84/84 88/88/88
f 91/91/91 90/90/90 89/89/89
f 91/91/91 92/92/92 90/90/90
f 91/91/91 93/93/93 92/92/92
f 94/94/94 93/93/93 91/91/91
f 95/95/95 93/93/93 94/94/94
f 96/96/96 93/93/93 95/95/95
f 96/96/96 97/97/97 93/93/93
f 98/98/98 97/97/97 96/96/96
f 98/98/98 96/96/96 99/99/99
f 99/99/99 96/96/96 100/100/100
f 103/103/103 102/102/102 101/101/101
f 103/103/103 104/104/104 102/102/102
f 103/103/103 105/105/105 104/104/104
f 106/106/106 105/105/105 103/103/103
f 107/107/107 105/105/105 106/106/106
f 108/108/108 105/105/105 107/107/107
f 108/108/108 109/109/109 105/105/105
f 110/110/110 109/109/109 108/108/108
f 110/110/110 108/108/108 111/111/111
f 111/111/111 108/108/108 112/112/112
f 115/115/115 114/114/114 113/113/113
f 115/115/115 116/116/116 114/114/114
f 115/115/115 117/117/117 116/116/116
f 118/118/118 117/117/117 115/115/115
f 119/119/119 117/117/117 118/118/118
f 120/120/120 117/117/117 119/119/119
f 120/120/120 121/121/121 117/117/117
f 122/122/122 121/121/121 120/120/120
f 122/122/122 120/120/120 123/123/123
f 123/123/123 120/120/120 124/124/124
f 127/127/127 126/126/126 125/125/125
f 127/127/127 128/128/128 126/126/126
f 127/127/127 129/129/129 128/128/128
f 130/130/130 129/129/129 127/127/127
f 131/131/131 129/129/129 130/130/130
f 132/132/132 129/129/129 131/131/131
f 132/132/132 133/133/133 129/129/129
f 134/134/134 133/133/133 132/132/132
f 134/134/134 132/132/132 135/135/135
f 135/135/135 132/132/132 136/136/136
f 139/139/139 138/138/138 137/137/137
f 139/139/139 140/140/140 138/138/138
f 139/139/139 141/141/141 140/140/140
f 142/142/142 141/141/141 139/139/139
f 143/143/143 141/141/141 142/142/142
f 144/144/144 141/141/141 143/143/143
f 144/144/144 145/145/145 141/141/141
f 146/146/146 145/145/145 144/144/144
f 146/146/146 144/144/144 147/147/147
f 147/147/147 144/144/144 148/148/148
f 151/151/151 150/150/150 149/149/149
f 151/151/151 152/152/152 150/150/150
f 151/151/151 153/153/153 152/152/152
f 154/154/154 153/153/153 151/151/151
f 155/155/155 153/153/153 154/154/154
f 156/156/156 153/153/153 155/155/155
f 156/156/156 157/157/157 153/153/153
f 158/158/158 157/157/157 156/156/156
f 158/158/158 156/156/156 159/159/159
f 159/159/159 156/156/156 160/160/160
f 163/163/163 162/162/162 161/161/161
f 163/163/163 164/164/164 162/162/162
f 163/163/163 165/165/165 164/164/164
f 166/166/166 165/165/165 163/163/163
f 167/167/167 165/165/165 166/166/166
f 168/168/168 165/165/165 167/167/167
f 168/168/168 169/169/169 165/165/165
f 170/170/170 169/169/169 168/168/168
f 170/170/170 168/168/168 171/171/171
f 171/171/171 168/168/168 172/172/172
f 175/175/175 174/174/174 173/173/173
f 175/175/175 176/176/176 174/174/174
f 175/175/175 177/177/177 176/176/176
f 175/175/175 178/178/178 177/177/177
f 179/179/179 178/178/178 175/175/175
f 180/180/180 178/178/178 179/179/179
f 183/183/183 182/182/182 181/181/181
f 183/183/183 184/184/184 182/182/182
f 183/183/183 185/185/185 184/184/184
f 185/185/185 183/183/183 186/186/186
f 185/185/185 186/186/186 187/187/187
f 190/190/190 189/189/189 188/188/188
f 190/190/190 189/189/189 188/188/188
f 190/190/190 189/189/189 188/188/188
f 190/190/190 189/189/189 188/188/188
f 191/191/191 189/189/189 190/190/190
f 191/191/191 189/189/189 190/190/190
f 191/191/191 189/189/189 190/190/190
f 191/191/191 189/189/189 190/190/190
f 191/191/191 192/192/192 189/189/189
f 191/191/191 192/192/192 189/189/189
f 191/191/191 192/192/192 189/189/189
f 191/191/191 192/192/192 189/189/189
f 189/189/189 192/192/192 193/193/193
f 189/189/189 192/192/192 193/193/193
f 189/189/189 192/192/192 193/193/193
f 189/189/189 192/192/192 193/193/193
f 189/189/189 193/193/193 194/194/194
f 189/189/189 193/193/193 194/194/194
f 189/189/189 193/193/193 194/194/194
f 189/189/189 193/193/193 194/194/194
f 194/194/194 193/193/193 195/195/195
f 194/194/194 193/193/193 195/195/195
f 194/194/194 193/193/193 195/195/195
f 194/194/194 193/193/193 195/195/195
f 195/195/195 193/193/193 196/196/196
f 195/195/195 193/193/193 196/196/196
f 195/195/195 193/193/193 196/196/196
f 195/195/195 193/193/193 196/196/196
f 196/196/196 193/193/193 197/197/197
f 196/196/196 193/193/193 197/197/197
f 196/196/196 193/193/193 197/197/197
f 196/196/196 193/193/193 197/197/197
f 196/196/196 197/197/197 198/198/198
f 196/196/196 197/197/197 198/198/198
f 196/196/196 197/197/197 198/198/198
f 196/196/196 197/197/197 198/198/198
f 196/196/196 198/198/198 199/199/199
f 196/196/196 198/198/198 199/199/199
f 196/196/196 198/198/198 199/199/199
f 196/196/196 198/198/198 199/199/199
