g AngarFence2
v -0.0247543 0.002644539 0
v -0.02015461 0.002644539 0
v -0.0247543 0.003028393 0
v -0.02461036 0.003460216 0
v -0.02408257 0.003748102 0
v 0.02355477 0.003748102 0
v -0.01868354 0.002644539 0
v -0.02015461 -0.00263133 0
v -0.01868354 -0.00263133 0
v -0.01651895 0.002644539 0
v -0.01504788 0.002644539 0
v -0.01651895 -0.00263133 0
v -0.01504788 -0.00263133 0
v -0.01309927 0.002644539 0
v -0.01162819 0.002644539 0
v -0.01309927 -0.00263133 0
v -0.01162819 -0.00263133 0
v -0.009625589 0.002644539 0
v -0.008154513 0.002644539 0
v -0.009625589 -0.00263133 0
v -0.008154513 -0.00263133 0
v -0.006133916 0.002644539 0
v -0.00466284 0.002644539 0
v -0.006133916 -0.00263133 0
v -0.00466284 -0.00263133 0
v -0.002480252 0.002644539 0
v -0.001009181 0.002644539 0
v -0.002480252 -0.00263133 0
v -0.001009181 -0.00263133 0
v 0.0009034324 0.002644539 0
v 0.002374508 0.002644539 0
v 0.0009034324 -0.00263133 0
v 0.002374508 -0.00263133 0
v 0.00437711 0.002644539 0
v 0.005848186 0.002644539 0
v 0.00437711 -0.00263133 0
v 0.005848186 -0.00263133 0
v 0.007850788 0.002644539 0
v 0.009321864 0.002644539 0
v 0.007850788 -0.00263133 0
v 0.009321864 -0.00263133 0
v 0.01141446 0.002644539 0
v 0.01288553 0.002644539 0
v 0.01141446 -0.00263133 0
v 0.01288553 -0.00263133 0
v 0.01485214 0.002644539 0
v 0.01632321 0.002644539 0
v 0.01485214 -0.00263133 0
v 0.01632321 -0.00263133 0
v 0.01834381 0.002644539 0
v 0.01981489 0.002644539 0
v 0.01834381 -0.00263133 0
v 0.01981489 -0.00263133 0
v 0.02064592 0.002644539 0
v 0.02432247 -0.003748102 0
v 0.02064592 -0.003748102 0
v 0.02465834 -0.003593006 0
v 0.0247543 -0.00330512 0
v 0.02422651 0.003700123 0
v 0.0247543 0.002932424 0
v 0.02465834 0.003412237 0
v 0.02064592 0.002644539 0
v 0.01981489 0.002644539 0
v 0.02064592 -0.003748102 0
v 0.01981489 -0.00263133 0
v 0.01981489 -0.003748102 0
v 0.01632321 0.002644539 0
v 0.01632321 -0.00263133 0
v 0.01834381 0.002644539 0
v 0.01834381 -0.00263133 0
v 0.01632321 -0.003748102 0
v 0.01834381 -0.003748102 0
v 0.01288553 0.002644539 0
v 0.01288553 -0.00263133 0
v 0.01485214 0.002644539 0
v 0.01485214 -0.00263133 0
v 0.01288553 -0.003748102 0
v 0.01485214 -0.003748102 0
v 0.009321864 0.002644539 0
v 0.009321864 -0.00263133 0
v 0.01141446 0.002644539 0
v 0.01141446 -0.00263133 0
v 0.009321864 -0.003748102 0
v 0.01141446 -0.003748102 0
v 0.005848186 0.002644539 0
v 0.005848186 -0.00263133 0
v 0.007850788 0.002644539 0
v 0.007850788 -0.00263133 0
v 0.005848186 -0.003748102 0
v 0.007850788 -0.003748102 0
v 0.002374508 0.002644539 0
v 0.002374508 -0.00263133 0
v 0.00437711 0.002644539 0
v 0.00437711 -0.00263133 0
v 0.002374508 -0.003748102 0
v 0.00437711 -0.003748102 0
v -0.001009181 0.002644539 0
v -0.001009181 -0.00263133 0
v 0.0009034324 0.002644539 0
v 0.0009034324 -0.00263133 0
v -0.001009181 -0.003748102 0
v 0.0009034324 -0.003748102 0
v -0.00466284 0.002644539 0
v -0.00466284 -0.00263133 0
v -0.002480252 0.002644539 0
v -0.002480252 -0.00263133 0
v -0.00466284 -0.003748102 0
v -0.002480252 -0.003748102 0
v -0.008154513 0.002644539 0
v -0.008154513 -0.00263133 0
v -0.006133916 0.002644539 0
v -0.006133916 -0.00263133 0
v -0.008154513 -0.003748102 0
v -0.006133916 -0.003748102 0
v -0.01162819 0.002644539 0
v -0.01162819 -0.00263133 0
v -0.009625589 0.002644539 0
v -0.009625589 -0.00263133 0
v -0.01162819 -0.003748102 0
v -0.009625589 -0.003748102 0
v -0.01504788 0.002644539 0
v -0.01504788 -0.00263133 0
v -0.01309927 0.002644539 0
v -0.01309927 -0.00263133 0
v -0.01504788 -0.003748102 0
v -0.01309927 -0.003748102 0
v -0.01868354 0.002644539 0
v -0.01868354 -0.00263133 0
v -0.01651895 0.002644539 0
v -0.01651895 -0.00263133 0
v -0.01868354 -0.003748102 0
v -0.01651895 -0.003748102 0
v -0.02015461 0.002644539 0
v -0.0247543 0.002644539 0
v -0.02015461 -0.00263133 0
v -0.0247543 -0.003310156 0
v -0.02465541 -0.003627243 0
v -0.0243145 -0.003748102 0
v -0.02015461 -0.003748102 0
v 0.01834381 -0.003748102 0
v 0.01981489 -0.003748102 0
v 0.01834381 -0.00263133 0
v 0.01981489 -0.00263133 0
v 0.01485214 -0.003748102 0
v 0.01632321 -0.003748102 0
v 0.01485214 -0.00263133 0
v 0.01632321 -0.00263133 0
v 0.01141446 -0.003748102 0
v 0.01288553 -0.003748102 0
v 0.01141446 -0.00263133 0
v 0.01288553 -0.00263133 0
v 0.007850788 -0.003748102 0
v 0.009321864 -0.003748102 0
v 0.007850788 -0.00263133 0
v 0.009321864 -0.00263133 0
v 0.00437711 -0.003748102 0
v 0.005848186 -0.003748102 0
v 0.00437711 -0.00263133 0
v 0.005848186 -0.00263133 0
v 0.0009034324 -0.003748102 0
v 0.002374508 -0.003748102 0
v 0.0009034324 -0.00263133 0
v 0.002374508 -0.00263133 0
v -0.002480252 -0.003748102 0
v -0.001009181 -0.003748102 0
v -0.002480252 -0.00263133 0
v -0.001009181 -0.00263133 0
v -0.006133916 -0.003748102 0
v -0.00466284 -0.003748102 0
v -0.006133916 -0.00263133 0
v -0.00466284 -0.00263133 0
v -0.009625589 -0.003748102 0
v -0.008154513 -0.003748102 0
v -0.009625589 -0.00263133 0
v -0.008154513 -0.00263133 0
v -0.01309927 -0.003748102 0
v -0.01162819 -0.003748102 0
v -0.01309927 -0.00263133 0
v -0.01162819 -0.00263133 0
v -0.01651895 -0.003748102 0
v -0.01504788 -0.003748102 0
v -0.01651895 -0.00263133 0
v -0.01504788 -0.00263133 0
v -0.02015461 -0.003748102 0
v -0.01868354 -0.003748102 0
v -0.02015461 -0.00263133 0
v -0.01868354 -0.00263133 0
vt 0.01266837 0.8438449
vt 0.1032213 0.8438449
vt 0.01266837 0.8937541
vt 0.0155021 0.9499003
vt 0.02589265 0.9873317
vt 0.963717 0.9873317
vt 0.1321819 0.8438449
vt 0.1032213 0.157871
vt 0.1321819 0.157871
vt 0.1747957 0.8438449
vt 0.2037563 0.8438449
vt 0.1747957 0.157871
vt 0.2037563 0.157871
vt 0.2421181 0.8438449
vt 0.2710789 0.8438449
vt 0.2421181 0.157871
vt 0.2710789 0.157871
vt 0.3105035 0.8438449
vt 0.3394643 0.8438449
vt 0.3105035 0.157871
vt 0.3394643 0.157871
vt 0.3792432 0.8438449
vt 0.408204 0.8438449
vt 0.3792432 0.157871
vt 0.408204 0.157871
vt 0.4511721 0.8438449
vt 0.4801326 0.8438449
vt 0.4511721 0.157871
vt 0.4801326 0.157871
vt 0.5177857 0.8438449
vt 0.5467466 0.8438449
vt 0.5177857 0.157871
vt 0.5467466 0.157871
vt 0.5861712 0.8438449
vt 0.615132 0.8438449
vt 0.5861712 0.157871
vt 0.615132 0.157871
vt 0.6545566 0.8438449
vt 0.6835175 0.8438449
vt 0.6545566 0.157871
vt 0.6835175 0.157871
vt 0.7247138 0.8438449
vt 0.7536744 0.8438449
vt 0.7247138 0.157871
vt 0.7536744 0.157871
vt 0.7923905 0.8438449
vt 0.8213512 0.8438449
vt 0.7923905 0.157871
vt 0.8213512 0.157871
vt 0.8611301 0.8438449
vt 0.8900909 0.8438449
vt 0.8611301 0.157871
vt 0.8900909 0.157871
vt 0.9064512 0.8438449
vt 0.9788306 0.01266828
vt 0.9064512 0.01266828
vt 0.9854428 0.0328331
vt 0.9873319 0.07026452
vt 0.9769415 0.9810929
vt 0.9873319 0.8812764
vt 0.9854428 0.9436615
vt 0.9064512 0.8438449
vt 0.8900909 0.8438449
vt 0.9064512 0.01266828
vt 0.8900909 0.157871
vt 0.8900909 0.01266828
vt 0.8213512 0.8438449
vt 0.8213512 0.157871
vt 0.8611301 0.8438449
vt 0.8611301 0.157871
vt 0.8213512 0.01266828
vt 0.8611301 0.01266828
vt 0.7536744 0.8438449
vt 0.7536744 0.157871
vt 0.7923905 0.8438449
vt 0.7923905 0.157871
vt 0.7536744 0.01266828
vt 0.7923905 0.01266828
vt 0.6835175 0.8438449
vt 0.6835175 0.157871
vt 0.7247138 0.8438449
vt 0.7247138 0.157871
vt 0.6835175 0.01266828
vt 0.7247138 0.01266828
vt 0.615132 0.8438449
vt 0.615132 0.157871
vt 0.6545566 0.8438449
vt 0.6545566 0.157871
vt 0.615132 0.01266828
vt 0.6545566 0.01266828
vt 0.5467466 0.8438449
vt 0.5467466 0.157871
vt 0.5861712 0.8438449
vt 0.5861712 0.157871
vt 0.5467466 0.01266828
vt 0.5861712 0.01266828
vt 0.4801326 0.8438449
vt 0.4801326 0.157871
vt 0.5177857 0.8438449
vt 0.5177857 0.157871
vt 0.4801326 0.01266828
vt 0.5177857 0.01266828
vt 0.408204 0.8438449
vt 0.408204 0.157871
vt 0.4511721 0.8438449
vt 0.4511721 0.157871
vt 0.408204 0.01266828
vt 0.4511721 0.01266828
vt 0.3394643 0.8438449
vt 0.3394643 0.157871
vt 0.3792432 0.8438449
vt 0.3792432 0.157871
vt 0.3394643 0.01266828
vt 0.3792432 0.01266828
vt 0.2710789 0.8438449
vt 0.2710789 0.157871
vt 0.3105035 0.8438449
vt 0.3105035 0.157871
vt 0.2710789 0.01266828
vt 0.3105035 0.01266828
vt 0.2037563 0.8438449
vt 0.2037563 0.157871
vt 0.2421181 0.8438449
vt 0.2421181 0.157871
vt 0.2037563 0.01266828
vt 0.2421181 0.01266828
vt 0.1321819 0.8438449
vt 0.1321819 0.157871
vt 0.1747957 0.8438449
vt 0.1747957 0.157871
vt 0.1321819 0.01266828
vt 0.1747957 0.01266828
vt 0.1032213 0.8438449
vt 0.01266837 0.8438449
vt 0.1032213 0.157871
vt 0.01266837 0.06961015
vt 0.01461512 0.0283826
vt 0.02132654 0.01266828
vt 0.1032213 0.01266828
vt 0.8611301 0.01266828
vt 0.8900909 0.01266828
vt 0.8611301 0.157871
vt 0.8900909 0.157871
vt 0.7923905 0.01266828
vt 0.8213512 0.01266828
vt 0.7923905 0.157871
vt 0.8213512 0.157871
vt 0.7247138 0.01266828
vt 0.7536744 0.01266828
vt 0.7247138 0.157871
vt 0.7536744 0.157871
vt 0.6545566 0.01266828
vt 0.6835175 0.01266828
vt 0.6545566 0.157871
vt 0.6835175 0.157871
vt 0.5861712 0.01266828
vt 0.615132 0.01266828
vt 0.5861712 0.157871
vt 0.615132 0.157871
vt 0.5177857 0.01266828
vt 0.5467466 0.01266828
vt 0.5177857 0.157871
vt 0.5467466 0.157871
vt 0.4511721 0.01266828
vt 0.4801326 0.01266828
vt 0.4511721 0.157871
vt 0.4801326 0.157871
vt 0.3792432 0.01266828
vt 0.408204 0.01266828
vt 0.3792432 0.157871
vt 0.408204 0.157871
vt 0.3105035 0.01266828
vt 0.3394643 0.01266828
vt 0.3105035 0.157871
vt 0.3394643 0.157871
vt 0.2421181 0.01266828
vt 0.2710789 0.01266828
vt 0.2421181 0.157871
vt 0.2710789 0.157871
vt 0.1747957 0.01266828
vt 0.2037563 0.01266828
vt 0.1747957 0.157871
vt 0.2037563 0.157871
vt 0.1032213 0.01266828
vt 0.1321819 0.01266828
vt 0.1032213 0.157871
vt 0.1321819 0.157871
vn 0 0 -1
vn 0 0 -1
vn 0 0 -1
vn 0 0 -1
vn 0 0 -1
vn 0 0 -1
vn 0 0 -1
vn 0 0 -1
vn 0 0 -1
vn 0 0 -1
vn 0 0 -1
vn 0 0 -1
vn 0 0 -1
vn 0 0 -1
vn 0 0 -1
vn 0 0 -1
vn 0 0 -1
vn 0 0 -1
vn 0 0 -1
vn 0 0 -1
vn 0 0 -1
vn 0 0 -1
vn 0 0 -1
vn 0 0 -1
vn 0 0 -1
vn 0 0 -1
vn 0 0 -1
vn 0 0 -1
vn 0 0 -1
vn 0 0 -1
vn 0 0 -1
vn 0 0 -1
vn 0 0 -1
vn 0 0 -1
vn 0 0 -1
vn 0 0 -1
vn 0 0 -1
vn 0 0 -1
vn 0 0 -1
vn 0 0 -1
vn 0 0 -1
vn 0 0 -1
vn 0 0 -1
vn 0 0 -1
vn 0 0 -1
vn 0 0 -1
vn 0 0 -1
vn 0 0 -1
vn 0 0 -1
vn 0 0 -1
vn 0 0 -1
vn 0 0 -1
vn 0 0 -1
vn 0 0 -1
vn 0 0 -1
vn 0 0 -1
vn 0 0 -1
vn 2.563119E-07 0 -1
vn 0 0 -1
vn -2.243637E-07 0 -1
vn 0 0 -1
vn 0 0 -1
vn 0 0 -1
vn -1.003781E-07 0 -1
vn 0 0 -1
vn 0 0 -1
vn 0 0 -1
vn 0 0 -1
vn 0 0 -1
vn 0 0 -1
vn 0 0 -1
vn 0 0 -1
vn 0 0 -1
vn 0 0 -1
vn 0 0 -1
vn 0 0 -1
vn 0 0 -1
vn 0 0 -1
vn 0 0 -1
vn 0 0 -1
vn 0 0 -1
vn 0 0 -1
vn 0 0 -1
vn 0 0 -1
vn 0 0 -1
vn 0 0 -1
vn 0 0 -1
vn 0 0 -1
vn 0 0 -1
vn 0 0 -1
vn 0 0 -1
vn 0 0 -1
vn 0 0 -1
vn 0 0 -1
vn 0 0 -1
vn 0 0 -1
vn 0 0 -1
vn 0 0 -1
vn 0 0 -1
vn 0 0 -1
vn 0 0 -1
vn 0 0 -1
vn 0 0 -1
vn 0 0 -1
vn 0 0 -1
vn 0 0 -1
vn 0 0 -1
vn 0 0 -1
vn 0 0 -1
vn 0 0 -1
vn 0 0 -1
vn 0 0 -1
vn 0 0 -1
vn 0 0 -1
vn 0 0 -1
vn 0 0 -1
vn 0 0 -1
vn 0 0 -1
vn 0 0 -1
vn 0 0 -1
vn 0 0 -1
vn 0 0 -1
vn 0 0 -1
vn 0 0 -1
vn 0 0 -1
vn 0 0 -1
vn 0 0 -1
vn 0 0 -1
vn 0 0 -1
vn 0 0 -1
vn 0 0 -1
vn 0 0 -1
vn 0 0 -1
vn 0 0 -1
vn 0 0 -1
vn 0 0 -1
vn 0 0 -1
vn 0 0 -1
vn 0 0 -1
vn 0 0 -1
vn 0 0 -1
vn 0 0 -1
vn 0 0 -1
vn 0 0 -1
vn 0 0 -1
vn 0 0 -1
vn 0 0 -1
vn 0 0 -1
vn 0 0 -1
vn 0 0 -1
vn 0 0 -1
vn 0 0 -1
vn 0 0 -1
vn 0 0 -1
vn 0 0 -1
vn 0 0 -1
vn 0 0 -1
vn 0 0 -1
vn 0 0 -1
vn 0 0 -1
vn 0 0 -1
vn 0 0 -1
vn 0 0 -1
vn 0 0 -1
vn 0 0 -1
vn 0 0 -1
vn 0 0 -1
vn 0 0 -1
vn 0 0 -1
vn 0 0 -1
vn 0 0 -1
vn 0 0 -1
vn 0 0 -1
vn 0 0 -1
vn 0 0 -1
vn 0 0 -1
vn 0 0 -1
vn 0 0 -1
vn 0 0 -1
vn 0 0 -1
vn 0 0 -1
vn 0 0 -1
vn 0 0 -1
vn 0 0 -1
vn 0 0 -1
vn 0 0 -1
vn 0 0 -1
g AngarFence2_0
f 3/3/3 2/2/2 1/1/1
f 4/4/4 2/2/2 3/3/3
f 5/5/5 2/2/2 4/4/4
f 6/6/6 2/2/2 5/5/5
f 6/6/6 7/7/7 2/2/2
f 8/8/8 2/2/2 7/7/7
f 8/8/8 7/7/7 9/9/9
f 6/6/6 10/10/10 7/7/7
f 6/6/6 11/11/11 10/10/10
f 12/12/12 10/10/10 11/11/11
f 12/12/12 11/11/11 13/13/13
f 6/6/6 14/14/14 11/11/11
f 6/6/6 15/15/15 14/14/14
f 16/16/16 14/14/14 15/15/15
f 16/16/16 15/15/15 17/17/17
f 6/6/6 18/18/18 15/15/15
f 6/6/6 19/19/19 18/18/18
f 20/20/20 18/18/18 19/19/19
f 20/20/20 19/19/19 21/21/21
f 6/6/6 22/22/22 19/19/19
f 6/6/6 23/23/23 22/22/22
f 24/24/24 22/22/22 23/23/23
f 24/24/24 23/23/23 25/25/25
f 6/6/6 26/26/26 23/23/23
f 6/6/6 27/27/27 26/26/26
f 28/28/28 26/26/26 27/27/27
f 28/28/28 27/27/27 29/29/29
f 6/6/6 30/30/30 27/27/27
f 6/6/6 31/31/31 30/30/30
f 32/32/32 30/30/30 31/31/31
f 32/32/32 31/31/31 33/33/33
f 6/6/6 34/34/34 31/31/31
f 6/6/6 35/35/35 34/34/34
f 36/36/36 34/34/34 35/35/35
f 36/36/36 35/35/35 37/37/37
f 6/6/6 38/38/38 35/35/35
f 6/6/6 39/39/39 38/38/38
f 40/40/40 38/38/38 39/39/39
f 40/40/40 39/39/39 41/41/41
f 6/6/6 42/42/42 39/39/39
f 6/6/6 43/43/43 42/42/42
f 44/44/44 42/42/42 43/43/43
f 44/44/44 43/43/43 45/45/45
f 6/6/6 46/46/46 43/43/43
f 6/6/6 47/47/47 46/46/46
f 48/48/48 46/46/46 47/47/47
f 48/48/48 47/47/47 49/49/49
f 6/6/6 50/50/50 47/47/47
f 6/6/6 51/51/51 50/50/50
f 52/52/52 50/50/50 51/51/51
f 52/52/52 51/51/51 53/53/53
f 6/6/6 54/54/54 51/51/51
f 6/6/6 55/55/55 54/54/54
f 54/54/54 55/55/55 56/56/56
f 6/6/6 57/57/57 55/55/55
f 6/6/6 58/58/58 57/57/57
f 59/59/59 58/58/58 6/6/6
f 59/59/59 60/60/60 58/58/58
f 61/61/61 60/60/60 59/59/59
f 64/64/64 63/63/63 62/62/62
f 65/65/65 63/63/63 64/64/64
f 65/65/65 64/64/64 66/66/66
f 69/69/69 68/68/68 67/67/67
f 70/70/70 68/68/68 69/69/69
f 70/70/70 71/71/71 68/68/68
f 72/72/72 71/71/71 70/70/70
f 75/75/75 74/74/74 73/73/73
f 76/76/76 74/74/74 75/75/75
f 76/76/76 77/77/77 74/74/74
f 78/78/78 77/77/77 76/76/76
f 81/81/81 80/80/80 79/79/79
f 82/82/82 80/80/80 81/81/81
f 82/82/82 83/83/83 80/80/80
f 84/84/84 83/83/83 82/82/82
f 87/87/87 86/86/86 85/85/85
f 88/88/88 86/86/86 87/87/87
f 88/88/88 89/89/89 86/86/86
f 90/90/90 89/89/89 88/88/88
f 93/93/93 92/92/92 91/91/91
f 94/94/94 92/92/92 93/93/93
f 94/94/94 95/95/95 92/92/92
f 96/96/96 95/95/95 94/94/94
f 99/99/99 98/98/98 97/97/97
f 100/100/100 98/98/98 99/99/99
f 100/100/100 101/101/101 98/98/98
f 102/102/102 101/101/101 100/100/100
f 105/105/105 104/104/104 103/103/103
f 106/106/106 104/104/104 105/105/105
f 106/106/106 107/107/107 104/104/104
f 108/108/108 107/107/107 106/106/106
f 111/111/111 110/110/110 109/109/109
f 112/112/112 110/110/110 111/111/111
f 112/112/112 113/113/113 110/110/110
f 114/114/114 113/113/113 112/112/112
f 117/117/117 116/116/116 115/115/115
f 118/118/118 116/116/116 117/117/117
f 118/118/118 119/119/119 116/116/116
f 120/120/120 119/119/119 118/118/118
f 123/123/123 122/122/122 121/121/121
f 124/124/124 122/122/122 123/123/123
f 124/124/124 125/125/125 122/122/122
f 126/126/126 125/125/125 124/124/124
f 129/129/129 128/128/128 127/127/127
f 130/130/130 128/128/128 129/129/129
f 130/130/130 131/131/131 128/128/128
f 132/132/132 131/131/131 130/130/130
f 135/135/135 134/134/134 133/133/133
f 135/135/135 136/136/136 134/134/134
f 135/135/135 137/137/137 136/136/136
f 138/138/138 137/137/137 135/135/135
f 138/138/138 135/135/135 139/139/139
f 142/142/142 141/141/141 140/140/140
f 142/142/142 143/143/143 141/141/141
f 146/146/146 145/145/145 144/144/144
f 146/146/146 147/147/147 145/145/145
f 150/150/150 149/149/149 148/148/148
f 150/150/150 151/151/151 149/149/149
f 154/154/154 153/153/153 152/152/152
f 154/154/154 155/155/155 153/153/153
f 158/158/158 157/157/157 156/156/156
f 158/158/158 159/159/159 157/157/157
f 162/162/162 161/161/161 160/160/160
f 162/162/162 163/163/163 161/161/161
f 166/166/166 165/165/165 164/164/164
f 166/166/166 167/167/167 165/165/165
f 170/170/170 169/169/169 168/168/168
f 170/170/170 171/171/171 169/169/169
f 174/174/174 173/173/173 172/172/172
f 174/174/174 175/175/175 173/173/173
f 178/178/178 177/177/177 176/176/176
f 178/178/178 179/179/179 177/177/177
f 182/182/182 181/181/181 180/180/180
f 182/182/182 183/183/183 181/181/181
f 186/186/186 185/185/185 184/184/184
f 186/186/186 187/187/187 185/185/185
