g AngarWallDraw2
v 0.005895734 -0.003230629 0
v 0.00201118 0.001378441 0
v -0.001930737 -0.003057003 0
v 0.001431594 0.001626835 0
v -0.0003623533 -0.0007742881 0
v -0.003508668 -0.0009122848 0
v -0.003729463 -0.0004154968 0
v -0.003591466 0.0001916695 0
v -0.003315473 0.0006056594 0
v -0.002929082 0.0008540535 0
v -0.002487493 0.0009092522 0
v -0.001963105 0.0008540535 0
v -0.000665946 8.12912E-05 0
v 0.0007968092 0.001709633 0
v -0.000583148 0.0006884575 0
v -0.000334754 0.001157646 0
v 5.16367E-05 0.001544037 0
v -0.004408498 0.002912998 0
v -0.004721932 0.00320013 0
v -0.004344344 0.002441788 0
v -0.005162644 0.003230629 0
v -0.004449525 0.002021065 0
v -0.004798579 0.001761742 0
v -0.005290952 0.001731834 0
v -0.005606494 0.003125458 0
v -0.005816846 0.002862511 0
v -0.005895734 0.002546978 0
v -0.005869441 0.002152538 0
v -0.005737967 0.001915894 0
vt 0.9873322 0.01266828
vt 0.6662413 0.7079336
vt 0.3404089 0.03886005
vt 0.6183338 0.7454041
vt 0.4700488 0.3832013
vt 0.2099794 0.362384
vt 0.1917289 0.4373231
vt 0.2031358 0.5289134
vt 0.2259489 0.5913617
vt 0.2578874 0.6288322
vt 0.2943884 0.6371588
vt 0.3377333 0.6288322
vt 0.4449543 0.5122622
vt 0.5658633 0.757893
vt 0.4517983 0.6038525
vt 0.4723303 0.6746274
vt 0.5042688 0.7329133
vt 0.1356013 0.9394192
vt 0.109693 0.9827307
vt 0.1409041 0.8683376
vt 0.07326451 0.9873317
vt 0.13221 0.8048724
vt 0.1033574 0.7657548
vt 0.06265879 0.761243
vt 0.03657669 0.9714669
vt 0.01918924 0.9318027
vt 0.01266873 0.8842043
vt 0.01484191 0.8247044
vt 0.0257093 0.7890074
vn 0 0 -1
vn 0 0 -1
vn 0 0 -1
vn 0 0 -1
vn 0 0 -1
vn 0 0 -1
vn 0 0 -1
vn 0 0 -1
vn 0 0 -1
vn 0 0 -1
vn 0 0 -1
vn 0 0 -1
vn 0 0 -1
vn 0 0 -1
vn 0 0 -1
vn 0 0 -1
vn 0 0 -1
vn 0 0 -1
vn 0 0 -1
vn 0 0 -1
vn 0 0 -1
vn 0 0 -1
vn 0 0 -1
vn 0 0 -1
vn 0 0 -1
vn 0 0 -1
vn 0 0 -1
vn 0 0 -1
vn 0 0 -1
g AngarWallDraw2_0
f 3/3/3 2/2/2 1/1/1
f 3/3/3 4/4/4 2/2/2
f 5/5/5 4/4/4 3/3/3
f 5/5/5 3/3/3 6/6/6
f 5/5/5 6/6/6 7/7/7
f 5/5/5 7/7/7 8/8/8
f 5/5/5 8/8/8 9/9/9
f 5/5/5 9/9/9 10/10/10
f 5/5/5 10/10/10 11/11/11
f 5/5/5 11/11/11 12/12/12
f 13/13/13 4/4/4 5/5/5
f 13/13/13 14/14/14 4/4/4
f 15/15/15 14/14/14 13/13/13
f 16/16/16 14/14/14 15/15/15
f 17/17/17 14/14/14 16/16/16
f 20/20/20 19/19/19 18/18/18
f 20/20/20 21/21/21 19/19/19
f 22/22/22 21/21/21 20/20/20
f 23/23/23 21/21/21 22/22/22
f 24/24/24 21/21/21 23/23/23
f 24/24/24 25/25/25 21/21/21
f 24/24/24 26/26/26 25/25/25
f 24/24/24 27/27/27 26/26/26
f 24/24/24 28/28/28 27/27/27
f 29/29/29 28/28/28 24/24/24
