g AngarFence3
v -0.01477066 0.0003520536 0
v -0.01519604 -0.002033744 0
v -0.01477055 -0.002033744 0
v -0.01519604 0.0004467535 0
v -0.0147073 0.0008168268 0
v -0.01508827 0.001151118 0
v -0.01458054 0.001218219 0
v -0.01472134 0.001889682 0
v -0.01428474 0.00161962 0
v -0.01394672 0.002021022 0
v -0.01426327 0.002430949 0
v -0.01362984 0.002274527 0
v -0.01361179 0.002886977 0
v -0.01314392 0.002607484 0
v -0.01271496 0.003084054 0
v 0.01242096 0.002607484 0
v 0.0125502 0.003084054 0
v 0.01269794 0.002580676 0
v 0.0134211 0.002934852 0
v 0.01287708 0.002427936 0
v 0.01293251 0.002216086 0
v 0.01408501 0.00262197 0
v 0.012929 0.0008270979 0
v 0.01461872 0.002129302 0
v 0.01288174 0.001910453 0
v 0.01496441 0.00164638 0
v 0.01277115 0.001788173 0
v 0.01258675 0.001009002 0
v 0.01258778 0.001704135 0
v 0.01312309 0.0004934645 0
v 0.01515404 0.001011043 0
v 0.01205444 0.001022162 0
v 0.01519604 0.0002955103 0
v 0.01312321 -2.680302E-05 0
v 0.01312374 -0.002066731 0
v 0.01519604 -0.002066731 0
v 0.005727539 0.001022162 0
v 0.003789329 0.001022162 0
v -0.003983841 0.001022162 0
v -0.005927467 0.001022162 0
v -0.01198189 0.001022162 0
v -0.01274254 0.001704135 0
v -0.0127111 0.0008790541 0
v -0.01310169 0.001535125 0
v -0.01343971 0.001323848 0
v -0.01305717 0.0005765677 0
v -0.01371433 0.000985837 0
v -0.01388336 0.000584445 0
v -0.01311172 7.428646E-05 0
v -0.01388336 -0.002033744 0
v -0.01311172 -0.002033744 0
v 0.005727539 0.001022162 0
v 0.003789329 0.001022162 0
v 0.005724563 0.0001944685 0
v 0.003789368 0.0001945162 0
v -0.01388336 -0.002033744 0
v -0.01388336 0.000584445 0
v -0.01477055 -0.002033744 0
v -0.01477066 0.0003520536 0
v -0.0147073 0.0008168268 0
v -0.01458054 0.001218219 0
v -0.01371433 0.000985837 0
v -0.01428474 0.00161962 0
v -0.01343971 0.001323848 0
v -0.01394672 0.002021022 0
v -0.01362984 0.002274527 0
v -0.01310169 0.001535125 0
v -0.01314392 0.002607484 0
v -0.01274254 0.001704135 0
v 0.01242096 0.002607484 0
v 0.01258778 0.001704135 0
v 0.01269794 0.002580676 0
v 0.01287708 0.002427936 0
v 0.01293251 0.002216086 0
v 0.01277115 0.001788173 0
v 0.01288174 0.001910453 0
v 0.01519604 -0.003084054 0
v 0.01519604 -0.002066731 0
v 0.01312393 -0.003075375 0
v 0.01312374 -0.002066731 0
v 0.003789368 0.0001945162 0
v 0.003789368 -0.002066731 0
v 0.005724563 0.0001944685 0
v 0.005725403 -0.002066731 0
v 0.005725403 -0.002066731 0
v 0.003789368 -0.002066731 0
v 0.005713539 -0.002882352 0
v 0.003789368 -0.002882352 0
v -0.005927467 0.001022162 0
v -0.005927086 0.0002073526 0
v -0.003983841 0.001022162 0
v -0.003981476 0.0002074194 0
v -0.005927086 0.0002073526 0
v -0.005927086 -0.002033744 0
v -0.003981476 0.0002074194 0
v -0.003974991 -0.002027459 0
v -0.003974991 -0.002027459 0
v -0.005927086 -0.002033744 0
v -0.003974991 -0.00276814 0
v -0.005927086 -0.00276814 0
v -0.01311172 -0.002033744 0
v -0.01388336 -0.002033744 0
v -0.01311172 -0.002905021 0
v -0.01388336 -0.002919049 0
v -0.01477055 -0.002033744 0
v -0.01477051 -0.002931724 0
v -0.01519604 -0.002033744 0
v -0.01519604 -0.002938266 0
vt 0.02631024 0.5556313
vt 0.01266825 0.1786363
vt 0.02631396 0.1786363
vt 0.01266825 0.5705964
vt 0.02834216 0.6290739
vt 0.01612464 0.681898
vt 0.03240737 0.6925
vt 0.02789178 0.7986019
vt 0.04189348 0.755928
vt 0.05273345 0.819356
vt 0.04258227 0.8841318
vt 0.0628958 0.8594142
vt 0.06347442 0.9561913
vt 0.07847908 0.9120265
vt 0.09223583 0.9873337
vt 0.8983362 0.9120265
vt 0.9024808 0.9873337
vt 0.9072191 0.9077916
vt 0.9304103 0.9637575
vt 0.9129639 0.8836559
vt 0.9147415 0.8501805
vt 0.9517018 0.9143168
vt 0.9146291 0.6306968
vt 0.9688177 0.8364664
vt 0.9131131 0.8018849
vt 0.9799036 0.7601573
vt 0.9095665 0.7825623
vt 0.9036529 0.659441
vt 0.9036859 0.7692832
vt 0.9208536 0.5779768
vt 0.9859849 0.6597626
vt 0.886582 0.6615194
vt 0.9873317 0.5466968
vt 0.9208568 0.4957652
vt 0.920874 0.1734236
vt 0.9873317 0.1734236
vt 0.6836803 0.6615194
vt 0.621523 0.6615194
vt 0.3722396 0.6615194
vt 0.3099084 0.6615194
vt 0.115745 0.6615194
vt 0.09135142 0.7692832
vt 0.09235945 0.6389062
vt 0.07983336 0.7425765
vt 0.06899294 0.7091922
vt 0.0812611 0.5911089
vt 0.0601863 0.6557806
vt 0.05476537 0.5923526
vt 0.07951176 0.5117397
vt 0.05476537 0.1786363
vt 0.07951176 0.1786363
vt 0.6836803 0.6615194
vt 0.621523 0.6615194
vt 0.683585 0.5307316
vt 0.6215239 0.5307389
vt 0.05476537 0.1786363
vt 0.05476537 0.5923526
vt 0.02631396 0.1786363
vt 0.02631024 0.5556313
vt 0.02834216 0.6290739
vt 0.03240737 0.6925
vt 0.0601863 0.6557806
vt 0.04189348 0.755928
vt 0.06899294 0.7091922
vt 0.05273345 0.819356
vt 0.0628958 0.8594142
vt 0.07983336 0.7425765
vt 0.07847908 0.9120265
vt 0.09135142 0.7692832
vt 0.8983362 0.9120265
vt 0.9036859 0.7692832
vt 0.9072191 0.9077916
vt 0.9129639 0.8836559
vt 0.9147415 0.8501805
vt 0.9095665 0.7825623
vt 0.9131131 0.8018849
vt 0.9873317 0.01267013
vt 0.9873317 0.1734236
vt 0.9208801 0.01404023
vt 0.920874 0.1734236
vt 0.6215239 0.5307389
vt 0.6215239 0.1734236
vt 0.683585 0.5307316
vt 0.683612 0.1734236
vt 0.683612 0.1734236
vt 0.6215239 0.1734236
vt 0.6832314 0.04454121
vt 0.6215239 0.04454121
vt 0.3099084 0.6615194
vt 0.3099205 0.5327672
vt 0.3722396 0.6615194
vt 0.3723158 0.5327765
vt 0.3099205 0.5327672
vt 0.3099205 0.1786363
vt 0.3723158 0.5327765
vt 0.3725235 0.179629
vt 0.3725235 0.179629
vt 0.3099205 0.1786363
vt 0.3725235 0.06258863
vt 0.3099205 0.06258863
vt 0.07951176 0.1786363
vt 0.05476537 0.1786363
vt 0.07951176 0.04096076
vt 0.05476537 0.03874293
vt 0.02631396 0.1786363
vt 0.02631488 0.03674075
vt 0.01266825 0.1786363
vt 0.01266825 0.03570715
vn 0 0 -1
vn 0 0 -1
vn 0 0 -1
vn 0 0 -1
vn 0 0 -1
vn 0 0 -1
vn 0 0 -1
vn 0 0 -1
vn 0 0 -1
vn 0 0 -1
vn 0 0 -1
vn 0 0 -1
vn 0 0 -1
vn 0 0 -1
vn 0 0 -1
vn 0 0 -1
vn 0 0 -1
vn 0 0 -1
vn 0 0 -1
vn 0 0 -1
vn 0 0 -1
vn 0 0 -1
vn 0 0 -1
vn 0 0 -1
vn 0 0 -1
vn 0 0 -1
vn 0 0 -1
vn 0 0 -1
vn 0 0 -1
vn 0 0 -1
vn 0 0 -1
vn 0 0 -1
vn 0 0 -1
vn 0 0 -1
vn 0 0 -1
vn 0 0 -1
vn 0 0 -1
vn 0 0 -1
vn 0 0 -1
vn 0 0 -1
vn 0 0 -1
vn 0 0 -1
vn 0 0 -1
vn 0 0 -1
vn 0 0 -1
vn 0 0 -1
vn 0 0 -1
vn 0 0 -1
vn 0 0 -1
vn 0 0 -1
vn 0 0 -1
vn 0 0 -1
vn 0 0 -1
vn 0 0 -1
vn 0 0 -1
vn 0 0 -1
vn 0 0 -1
vn 0 0 -1
vn 0 0 -1
vn 0 0 -1
vn 0 0 -1
vn 0 0 -1
vn 0 0 -1
vn 0 0 -1
vn 0 0 -1
vn 0 0 -1
vn 0 0 -1
vn 0 0 -1
vn 0 0 -1
vn 0 0 -1
vn 0 0 -1
vn 0 0 -1
vn 0 0 -1
vn 0 0 -1
vn 0 0 -1
vn 0 0 -1
vn 0 0 -1
vn 0 0 -1
vn 0 0 -1
vn 0 0 -1
vn 0 0 -1
vn 0 0 -1
vn 0 0 -1
vn 0 0 -1
vn 0 0 -1
vn 0 0 -1
vn 0 0 -1
vn 0 0 -1
vn 0 0 -1
vn 0 0 -1
vn 0 0 -1
vn 0 0 -1
vn 0 0 -1
vn 0 0 -1
vn 0 0 -1
vn 0 0 -1
vn 0 0 -1
vn 0 0 -1
vn 0 0 -1
vn 0 0 -1
vn 0 0 -1
vn 0 0 -1
vn 0 0 -1
vn 0 0 -1
vn 0 0 -1
vn 0 0 -1
vn 0 0 -1
vn 0 0 -1
g AngarFence3_0
f 3/3/3 2/2/2 1/1/1
f 1/1/1 2/2/2 4/4/4
f 1/1/1 4/4/4 5/5/5
f 5/5/5 4/4/4 6/6/6
f 5/5/5 6/6/6 7/7/7
f 7/7/7 6/6/6 8/8/8
f 7/7/7 8/8/8 9/9/9
f 9/9/9 8/8/8 10/10/10
f 10/10/10 8/8/8 11/11/11
f 10/10/10 11/11/11 12/12/12
f 12/12/12 11/11/11 13/13/13
f 12/12/12 13/13/13 14/14/14
f 14/14/14 13/13/13 15/15/15
f 14/14/14 15/15/15 16/16/16
f 16/16/16 15/15/15 17/17/17
f 16/16/16 17/17/17 18/18/18
f 19/19/19 18/18/18 17/17/17
f 18/18/18 19/19/19 20/20/20
f 20/20/20 19/19/19 21/21/21
f 21/21/21 19/19/19 22/22/22
f 23/23/23 21/21/21 22/22/22
f 23/23/23 22/22/22 24/24/24
f 23/23/23 25/25/25 21/21/21
f 23/23/23 24/24/24 26/26/26
f 23/23/23 27/27/27 25/25/25
f 28/28/28 27/27/27 23/23/23
f 28/28/28 29/29/29 27/27/27
f 23/23/23 26/26/26 30/30/30
f 30/30/30 26/26/26 31/31/31
f 32/32/32 29/29/29 28/28/28
f 30/30/30 31/31/31 33/33/33
f 30/30/30 33/33/33 34/34/34
f 34/34/34 33/33/33 35/35/35
f 35/35/35 33/33/33 36/36/36
f 37/37/37 29/29/29 32/32/32
f 29/29/29 37/37/37 38/38/38
f 29/29/29 38/38/38 39/39/39
f 29/29/29 39/39/39 40/40/40
f 29/29/29 40/40/40 41/41/41
f 29/29/29 41/41/41 42/42/42
f 42/42/42 41/41/41 43/43/43
f 42/42/42 43/43/43 44/44/44
f 44/44/44 43/43/43 45/45/45
f 45/45/45 43/43/43 46/46/46
f 45/45/45 46/46/46 47/47/47
f 47/47/47 46/46/46 48/48/48
f 48/48/48 46/46/46 49/49/49
f 48/48/48 49/49/49 50/50/50
f 50/50/50 49/49/49 51/51/51
f 54/54/54 53/53/53 52/52/52
f 54/54/54 55/55/55 53/53/53
f 58/58/58 57/57/57 56/56/56
f 59/59/59 57/57/57 58/58/58
f 60/60/60 57/57/57 59/59/59
f 61/61/61 57/57/57 60/60/60
f 61/61/61 62/62/62 57/57/57
f 63/63/63 62/62/62 61/61/61
f 63/63/63 64/64/64 62/62/62
f 65/65/65 64/64/64 63/63/63
f 66/66/66 64/64/64 65/65/65
f 66/66/66 67/67/67 64/64/64
f 68/68/68 67/67/67 66/66/66
f 68/68/68 69/69/69 67/67/67
f 70/70/70 69/69/69 68/68/68
f 70/70/70 71/71/71 69/69/69
f 72/72/72 71/71/71 70/70/70
f 73/73/73 71/71/71 72/72/72
f 74/74/74 71/71/71 73/73/73
f 74/74/74 75/75/75 71/71/71
f 76/76/76 75/75/75 74/74/74
f 79/79/79 78/78/78 77/77/77
f 79/79/79 80/80/80 78/78/78
f 83/83/83 82/82/82 81/81/81
f 83/83/83 84/84/84 82/82/82
f 87/87/87 86/86/86 85/85/85
f 87/87/87 88/88/88 86/86/86
f 91/91/91 90/90/90 89/89/89
f 91/91/91 92/92/92 90/90/90
f 95/95/95 94/94/94 93/93/93
f 95/95/95 96/96/96 94/94/94
f 99/99/99 98/98/98 97/97/97
f 99/99/99 100/100/100 98/98/98
f 103/103/103 102/102/102 101/101/101
f 103/103/103 104/104/104 102/102/102
f 104/104/104 105/105/105 102/102/102
f 104/104/104 106/106/106 105/105/105
f 106/106/106 107/107/107 105/105/105
f 106/106/106 108/108/108 107/107/107
