g Can_cloud_2
v -0.8170654 -0.2481177 0
v -0.7460418 -0.2480066 0
v -0.8017573 -0.1805078 0
v -0.7185895 -0.1500171 0
v -0.7775191 -0.09886352 0
v -0.6799826 -0.07537353 0
v -0.7252167 -0.009567871 0
v -0.625932 -0.005881348 0
v -0.6537797 0.07462646 0
v -0.5572967 0.06189697 0
v -0.5632074 0.1511658 0
v -0.4826553 0.1133728 0
v -0.4560516 0.2060205 0
v -0.4054397 0.1459753 0
v -0.3450684 0.2404639 0
v -0.322219 0.1674243 0
v -0.2264308 0.2481177 0
v -0.2233685 0.1768457 0
v -0.1954101 0.2283484 0
v -0.1963898 0.1974463 0
v -0.1378575 0.2370459 0
v -0.06738499 0.1908093 0
v -0.09376138 0.2315344 0
v 0.01211903 0.1958142 0
v -0.008654911 0.1359949 0
v 0.1128968 0.137135 0
v 0.04929318 0.06316894 0
v 0.1945391 0.06697387 0
v 0.09784301 -0.02218384 0
v 0.257047 -0.003189697 0
v 0.1276 -0.1075403 0
v 0.3016959 -0.08610839 0
v 0.1456109 -0.1858484 0
v 0.1518776 -0.246604 0
v 0.3488957 -0.04783691 0
v 0.4088518 -0.02360107 0
v 0.5172831 -0.01084229 0
v 0.6167854 -0.03125366 0
v 0.7048067 -0.08355713 0
v 0.7673138 -0.151167 0
v 0.8170654 -0.2455676 0
v -0.2264308 0.2481177 0
v -0.1954101 0.2283484 0
v -0.1378575 0.2370459 0
v -0.06738499 0.1908093 0
v -0.1963898 0.1974463 0
v -0.2233685 0.1768457 0
v -0.008654911 0.1359949 0
v 0.04929318 0.06316894 0
v 0.09784301 -0.02218384 0
v 0.1276 -0.1075403 0
v -0.322219 0.1674243 0
v 0.1456109 -0.1858484 0
v -0.4054397 0.1459753 0
v 0.1518776 -0.246604 0
v -0.4826553 0.1133728 0
v -0.5572967 0.06189697 0
v -0.625932 -0.005881348 0
v -0.6799826 -0.07537353 0
v -0.7185895 -0.1500171 0
v -0.7460418 -0.2480066 0
vt 0.01900211 0.01900238
vt 0.0608131 0.01921889
vt 0.02801403 0.1500701
vt 0.07697362 0.2091783
vt 0.04228237 0.3083452
vt 0.09970111 0.3538827
vt 0.07307225 0.4814532
vt 0.1315204 0.4885982
vt 0.1151268 0.6446677
vt 0.1719253 0.6199925
vt 0.1684455 0.7930492
vt 0.2158657 0.7197832
vt 0.2315271 0.8993867
vt 0.2613216 0.7829869
vt 0.2968614 0.9661573
vt 0.3103128 0.8245648
vt 0.3667022 0.9809976
vt 0.3685049 0.842829
vt 0.3849641 0.9426748
vt 0.384387 0.8827665
vt 0.4188443 0.9595335
vt 0.460331 0.8699005
vt 0.4448035 0.9488472
vt 0.5071341 0.8796033
vt 0.4949048 0.7636364
vt 0.5664607 0.7658492
vt 0.529018 0.6224586
vt 0.614523 0.6298347
vt 0.5575988 0.4569945
vt 0.6513207 0.4938165
vt 0.5751166 0.2915269
vt 0.677605 0.3330718
vt 0.5857193 0.1397178
vt 0.5894083 0.02193815
vt 0.7053908 0.4072625
vt 0.7406862 0.4542496
vt 0.8045191 0.4789798
vt 0.8630943 0.4394129
vt 0.9149116 0.3380185
vt 0.9517089 0.2069508
vt 0.9809969 0.02394918
vt 0.3667022 0.9809976
vt 0.3849641 0.9426748
vt 0.4188443 0.9595335
vt 0.460331 0.8699005
vt 0.384387 0.8827665
vt 0.3685049 0.842829
vt 0.4949048 0.7636364
vt 0.529018 0.6224586
vt 0.5575988 0.4569945
vt 0.5751166 0.2915269
vt 0.3103128 0.8245648
vt 0.5857193 0.1397178
vt 0.2613216 0.7829869
vt 0.5894083 0.02193815
vt 0.2158657 0.7197832
vt 0.1719253 0.6199925
vt 0.1315204 0.4885982
vt 0.09970111 0.3538827
vt 0.07697362 0.2091783
vt 0.0608131 0.01921889
vn 0 0 -1
vn 0 0 -1
vn 0 0 -1
vn 0 0 -1
vn 0 0 -1
vn 0 0 -1
vn 0 0 -1
vn 0 0 -1
vn 0 0 -1
vn 0 0 -1
vn 0 0 -1
vn 0 0 -1
vn 0 0 -1
vn 0 0 -1
vn 0 0 -1
vn 0 0 -1
vn 0 0 -1
vn 0 0 -1
vn 0 0 -1
vn 0 0 -1
vn 0 0 -1
vn 0 0 -1
vn 0 0 -1
vn 0 0 -1
vn 0 0 -1
vn 0 0 -1
vn 0 0 -1
vn 0 0 -1
vn 0 0 -1
vn 0 0 -1
vn 0 0 -1
vn 0 0 -1
vn 0 0 -1
vn 0 0 -1
vn 0 0 -1
vn 0 0 -1
vn 0 0 -1
vn 0 0 -1
vn 0 0 -1
vn 0 0 -1
vn 0 0 -1
vn 0 0 -1
vn 0 0 -1
vn 0 0 -1
vn 0 0 -1
vn 0 0 -1
vn 0 0 -1
vn 0 0 -1
vn 0 0 -1
vn 0 0 -1
vn 0 0 -1
vn 0 0 -1
vn 0 0 -1
vn 0 0 -1
vn 0 0 -1
vn 0 0 -1
vn 0 0 -1
vn 0 0 -1
vn 0 0 -1
vn 0 0 -1
vn 0 0 -1
g Can_cloud_2_0
f 3/3/3 2/2/2 1/1/1
f 3/3/3 4/4/4 2/2/2
f 5/5/5 4/4/4 3/3/3
f 5/5/5 6/6/6 4/4/4
f 7/7/7 6/6/6 5/5/5
f 7/7/7 8/8/8 6/6/6
f 9/9/9 8/8/8 7/7/7
f 9/9/9 10/10/10 8/8/8
f 11/11/11 10/10/10 9/9/9
f 11/11/11 12/12/12 10/10/10
f 13/13/13 12/12/12 11/11/11
f 13/13/13 14/14/14 12/12/12
f 15/15/15 14/14/14 13/13/13
f 15/15/15 16/16/16 14/14/14
f 17/17/17 16/16/16 15/15/15
f 17/17/17 18/18/18 16/16/16
f 19/19/19 18/18/18 17/17/17
f 20/20/20 18/18/18 19/19/19
f 23/23/23 22/22/22 21/21/21
f 24/24/24 22/22/22 23/23/23
f 24/24/24 25/25/25 22/22/22
f 26/26/26 25/25/25 24/24/24
f 25/25/25 26/26/26 27/27/27
f 27/27/27 26/26/26 28/28/28
f 27/27/27 28/28/28 29/29/29
f 29/29/29 28/28/28 30/30/30
f 29/29/29 30/30/30 31/31/31
f 31/31/31 30/30/30 32/32/32
f 31/31/31 32/32/32 33/33/33
f 33/33/33 32/32/32 34/34/34
f 34/34/34 32/32/32 35/35/35
f 34/34/34 35/35/35 36/36/36
f 34/34/34 36/36/36 37/37/37
f 34/34/34 37/37/37 38/38/38
f 34/34/34 38/38/38 39/39/39
f 34/34/34 39/39/39 40/40/40
f 34/34/34 40/40/40 41/41/41
f 44/44/44 43/43/43 42/42/42
f 44/44/44 45/45/45 43/43/43
f 43/43/43 45/45/45 46/46/46
f 46/46/46 45/45/45 47/47/47
f 47/47/47 45/45/45 48/48/48
f 47/47/47 48/48/48 49/49/49
f 47/47/47 49/49/49 50/50/50
f 47/47/47 50/50/50 51/51/51
f 47/47/47 51/51/51 52/52/52
f 52/52/52 51/51/51 53/53/53
f 52/52/52 53/53/53 54/54/54
f 54/54/54 53/53/53 55/55/55
f 54/54/54 55/55/55 56/56/56
f 56/56/56 55/55/55 57/57/57
f 57/57/57 55/55/55 58/58/58
f 58/58/58 55/55/55 59/59/59
f 59/59/59 55/55/55 60/60/60
f 60/60/60 55/55/55 61/61/61
