g Can_mountains_bg_r
v 3.762441 -1.648401 0
v 4.101789 -1.648401 0
v 3.764322 0.5452931 0
v 4.102389 0.8354703 0
v 3.748342 0.6176747 0
v 3.710742 0.6721947 0
v 4.102389 0.9881758 0
v 4.084423 1.04806 0
v 4.032024 1.11543 0
v 3.966152 1.160345 0
v 3.897285 1.169326 0
v 3.65904 0.7079163 0
v 3.588539 0.7229556 0
v 3.475737 0.7220154 0
v 2.833704 0.7332959 0
v 2.848743 0.6637347 0
v 3.471036 -1.648401 0
v 2.848745 -1.648401 0
v 2.800803 0.7878175 0
v 2.746281 0.8291785 0
v 2.661681 0.8460982 0
v 2.512218 0.8460982 0
v 2.363695 1.169326 0
v 2.309175 1.152544 0
v 2.271573 1.126225 0
v 2.241492 1.085802 0
v 2.225513 1.035043 0
v 2.221752 0.8442179 0
v 5.57907 -1.648401 0
v 5.574957 0.8820715 0
v 4.396016 -1.648401 0
v 4.396954 0.4625712 0
v 4.398835 0.5669137 0
v 4.410115 0.6345945 0
v 4.436435 0.6891162 0
v 4.486258 0.7323557 0
v 4.632899 0.7567968 0
v 4.539837 0.7539763 0
v 5.548865 0.9919366 0
v 5.503546 1.059229 0
v 5.44312 1.11416 0
v 5.3772 1.149868 0
v 5.297549 1.16783 0
v 5.229712 1.16783 0
v 4.633839 1.276627 0
v 5.229712 1.362454 0
v 5.207255 1.458268 0
v 5.165337 1.525638 0
v 5.10096 1.584026 0
v 4.631959 1.364988 0
v 5.026104 1.627442 0
v 4.64606 1.44583 0
v 4.678959 1.519152 0
v 4.930291 1.648401 0
v 4.72878 1.581193 0
v 4.796462 1.622554 0
v 4.930291 1.648401 0
v 4.695245 1.648401 0
v 4.796462 1.622554 0
v 4.72878 1.581193 0
v 4.615897 1.63792 0
v 4.678959 1.519152 0
v 4.536551 1.616961 0
v 4.64606 1.44583 0
v 4.47517 1.579534 0
v 4.416781 1.525638 0
v 4.631959 1.364988 0
v 4.36588 1.4418 0
v 4.341926 1.362454 0
v 4.633839 1.276627 0
v 4.341926 0.953743 0
v 4.539837 0.7539763 0
v 4.632899 0.7567968 0
v 4.32995 0.896852 0
v 4.486258 0.7323557 0
v 4.303002 0.8624194 0
v 4.436435 0.6891162 0
v 4.256591 0.8354703 0
v 4.410115 0.6345945 0
v 4.398835 0.5669137 0
v 4.102389 0.8354703 0
v 4.396954 0.4625712 0
v 4.396016 -1.648401 0
v 4.101789 -1.648401 0
v 3.471036 -1.648401 0
v 3.762441 -1.648401 0
v 3.475737 0.7220154 0
v 3.588539 0.7229556 0
v 3.65904 0.7079163 0
v 3.710742 0.6721947 0
v 3.748342 0.6176747 0
v 3.764322 0.5452931 0
v -0.04463046 -1.648401 0
v 1.361632 -1.648401 0
v -0.0418117 1.251246 0
v 1.365674 0.6767769 0
v 1.365674 1.215736 0
v 1.350703 1.301072 0
v 1.325253 1.360956 0
v 1.287825 1.423835 0
v 1.223449 1.479227 0
v 1.156079 1.518152 0
v 1.066252 1.539113 0
v -0.03147236 1.320807 0
v -0.007971345 1.39225 0
v 0.02962974 1.45429 0
v 0.08603004 1.501292 0
v 0.136791 1.522912 0
v 0.1988324 1.539113 0
v 2.363695 1.169326 0
v 2.214534 1.169326 0
v 2.309175 1.152544 0
v 2.271573 1.126225 0
v 2.241492 1.085802 0
v 2.124708 1.164835 0
v 2.225513 1.035043 0
v 2.039374 1.143876 0
v 1.972003 1.109442 0
v 1.913616 1.057043 0
v 1.867205 0.9836851 0
v 2.221752 0.8442179 0
v 1.841756 0.9073324 0
v 1.841756 0.7561246 0
v 2.512218 0.8460982 0
v 2.661681 0.8460982 0
v 2.746281 0.8291785 0
v 2.800803 0.7878175 0
v 2.833704 0.7332959 0
v 2.848743 0.6637347 0
v 1.819299 0.7171994 0
v 1.781871 0.6857599 0
v 1.739951 0.6767769 0
v 1.365674 0.6767769 0
v 1.361632 -1.648401 0
v 2.848745 -1.648401 0
v -2.086607 1.266639 0
v -2.490877 1.266639 0
v -2.15485 1.246486 0
v -2.199007 1.217381 0
v -2.236139 1.17222 0
v -2.254204 1.115018 0
v -2.258218 1.043764 0
v -2.589687 1.259154 0
v -2.652565 1.242685 0
v -2.713947 1.187292 0
v -2.752871 1.119922 0
v -2.763351 1.057043 0
v -2.259219 -1.648401 0
v -5.200644 1.057043 0
v -5.320413 1.043569 0
v -5.402754 1.019615 0
v -5.47162 0.9747021 0
v -5.52402 0.9088299 0
v -5.561448 0.8324773 0
v -5.57907 0.7561246 0
v -5.57907 -1.648401 0
v 0.1988324 1.539113 0
v -0.0655617 1.539113 0
v 0.136791 1.522912 0
v 0.08603004 1.501292 0
v 0.02962974 1.45429 0
v -0.007971345 1.39225 0
v -0.1538905 1.51965 0
v -0.03147236 1.320807 0
v -0.2212611 1.492703 0
v -0.2841393 1.437309 0
v -0.0418117 1.251246 0
v -0.3320465 1.378922 0
v -0.3619886 1.314546 0
v -0.3754631 1.241188 0
v -0.3754631 1.049557 0
v -0.3814511 1.003147 0
v -0.3964222 0.9702116 0
v -0.4323532 0.9402695 0
v -0.6856161 0.6322988 0
v -0.4832544 0.9312865 0
v -0.6514944 0.5901487 0
v -0.6264052 0.5319399 0
v -0.6153656 0.4576761 0
v -0.04463046 -1.648401 0
v -0.6153638 -1.648401 0
v -0.7257591 0.6614015 0
v -0.781959 0.6754521 0
v -0.8522094 0.6794662 0
v -0.8485494 0.9312865 0
v -0.6153638 -1.648401 0
v -0.6153656 0.4576761 0
v -2.259219 -1.648401 0
v -2.258218 1.043764 0
v -0.6264052 0.5319399 0
v -0.6514944 0.5901487 0
v -0.6856161 0.6322988 0
v -0.8522094 0.6794662 0
v -0.8485494 0.9312865 0
v -0.781959 0.6754521 0
v -0.7257591 0.6614015 0
v -0.8485494 1.033089 0
v -0.8575325 1.092973 0
v -0.8784915 1.155852 0
v -0.9204105 1.211246 0
v -0.9847863 1.253164 0
v -1.07611 1.266639 0
v -2.254204 1.115018 0
v -2.236139 1.17222 0
v -2.199007 1.217381 0
v -2.15485 1.246486 0
v -2.086607 1.266639 0
vt 0.8243777 0.01900238
vt 0.8536344 0.01900238
vt 0.8245398 0.6591146
vt 0.8536861 0.7437873
vt 0.823162 0.6802353
vt 0.8199204 0.696144
vt 0.8536861 0.7883462
vt 0.8521372 0.8058202
vt 0.8476197 0.8254784
vt 0.8419404 0.8385845
vt 0.8360031 0.8412051
vt 0.8154629 0.7065674
vt 0.8093847 0.710956
vt 0.7996595 0.7106816
vt 0.7443068 0.7139732
vt 0.7456035 0.6936755
vt 0.7992542 0.01900238
vt 0.7456036 0.01900238
vt 0.7414703 0.7298824
vt 0.7367697 0.7419513
vt 0.7294759 0.7468885
vt 0.7165901 0.7468885
vt 0.7037851 0.8412051
vt 0.6990848 0.8363085
vt 0.6958429 0.8286284
vt 0.6932495 0.8168333
vt 0.6918718 0.8020219
vt 0.6915476 0.7463399
vt 0.9809976 0.01900238
vt 0.980643 0.7573854
vt 0.879001 0.01900238
vt 0.8790819 0.6349767
vt 0.8792441 0.6654235
vt 0.8802167 0.6851725
vt 0.8824858 0.7010816
vt 0.8867812 0.7136989
vt 0.8994238 0.7208307
vt 0.8914005 0.7200077
vt 0.9783935 0.7894436
vt 0.9744864 0.8090792
vt 0.9692768 0.8251081
vt 0.9635935 0.8355274
vt 0.9567264 0.8407687
vt 0.9508778 0.8407687
vt 0.8995049 0.8725154
vt 0.9508778 0.8975592
vt 0.9489417 0.9255174
vt 0.9453278 0.9451758
vt 0.9397776 0.9622133
vt 0.8993428 0.8982989
vt 0.933324 0.9748818
vt 0.9005585 0.9218881
vt 0.9033949 0.9432831
vt 0.9250634 0.9809976
vt 0.9076902 0.9613866
vt 0.9135255 0.9734557
vt 0.9250634 0.9809976
vt 0.904799 0.9809976
vt 0.9135255 0.9734557
vt 0.9076902 0.9613866
vt 0.897958 0.9779395
vt 0.9033949 0.9432831
vt 0.8911172 0.9718237
vt 0.9005585 0.9218881
vt 0.8858253 0.9609025
vt 0.8807913 0.9451758
vt 0.8993428 0.8982989
vt 0.8764028 0.920712
vt 0.8743377 0.8975592
vt 0.8995049 0.8725154
vt 0.8743377 0.7782989
vt 0.8914005 0.7200077
vt 0.8994238 0.7208307
vt 0.8733052 0.7616982
vt 0.8867812 0.7136989
vt 0.8709819 0.7516509
vt 0.8824858 0.7010816
vt 0.8669806 0.7437873
vt 0.8802167 0.6851725
vt 0.8792441 0.6654235
vt 0.8536861 0.7437873
vt 0.8790819 0.6349767
vt 0.879001 0.01900238
vt 0.8536344 0.01900238
vt 0.7992542 0.01900238
vt 0.8243777 0.01900238
vt 0.7996595 0.7106816
vt 0.8093847 0.710956
vt 0.8154629 0.7065674
vt 0.8199204 0.696144
vt 0.823162 0.6802353
vt 0.8245398 0.6591146
vt 0.4961522 0.01900238
vt 0.6173927 0.01900238
vt 0.4963952 0.8651091
vt 0.6177412 0.6974811
vt 0.6177412 0.8547475
vt 0.6164504 0.8796482
vt 0.6142562 0.8971223
vt 0.6110294 0.9154702
vt 0.6054792 0.9316332
vt 0.599671 0.9429915
vt 0.5919266 0.9491078
vt 0.4972866 0.8854069
vt 0.4993127 0.9062537
vt 0.5025545 0.9243566
vt 0.5074171 0.9380716
vt 0.5117933 0.9443805
vt 0.5171423 0.9491078
vt 0.7037851 0.8412051
vt 0.6909254 0.8412051
vt 0.6990848 0.8363085
vt 0.6958429 0.8286284
vt 0.6932495 0.8168333
vt 0.683181 0.8398948
vt 0.6918718 0.8020219
vt 0.675824 0.833779
vt 0.6700155 0.8237312
vt 0.6649817 0.8084414
vt 0.6609805 0.7870359
vt 0.6915476 0.7463399
vt 0.6587863 0.7647563
vt 0.6587863 0.7206345
vt 0.7165901 0.7468885
vt 0.7294759 0.7468885
vt 0.7367697 0.7419513
vt 0.7414703 0.7298824
vt 0.7443068 0.7139732
vt 0.7456035 0.6936755
vt 0.6568503 0.7092763
vt 0.6536235 0.7001023
vt 0.6500093 0.6974811
vt 0.6177412 0.6974811
vt 0.6173927 0.01900238
vt 0.7456036 0.01900238
vt 0.3201039 0.869601
vt 0.2852498 0.869601
vt 0.3142204 0.8637201
vt 0.3104134 0.8552276
vt 0.307212 0.8420496
vt 0.3056546 0.8253584
vt 0.3053085 0.8045665
vt 0.276731 0.8674167
vt 0.27131 0.8626113
vt 0.266018 0.8464476
vt 0.2626621 0.8267893
vt 0.2617586 0.8084414
vt 0.3052222 0.01900238
vt 0.05162814 0.8084414
vt 0.04130241 0.8045099
vt 0.03420338 0.7975202
vt 0.02826613 0.7844146
vt 0.02374849 0.7651934
vt 0.02052164 0.742914
vt 0.01900238 0.7206345
vt 0.01900238 0.01900238
vt 0.5171423 0.9491078
vt 0.4943476 0.9491078
vt 0.5117933 0.9443805
vt 0.5074171 0.9380716
vt 0.5025545 0.9243566
vt 0.4993127 0.9062537
vt 0.4867324 0.9434284
vt 0.4972866 0.8854069
vt 0.480924 0.9355654
vt 0.475503 0.9194017
vt 0.4963952 0.8651091
vt 0.4713727 0.9023647
vt 0.4687913 0.8835799
vt 0.4676296 0.8621743
vt 0.4676296 0.8062572
vt 0.4671133 0.7927147
vt 0.4658226 0.7831044
vt 0.4627248 0.7743673
vt 0.4408899 0.6845025
vt 0.4583364 0.7717462
vt 0.4438316 0.6722034
vt 0.4459947 0.6552182
vt 0.4469464 0.6335483
vt 0.4961522 0.01900238
vt 0.4469466 0.01900238
vt 0.4374289 0.6929946
vt 0.4325837 0.6970945
vt 0.426527 0.6982659
vt 0.4268426 0.7717462
vt 0.4469466 0.01900238
vt 0.4469464 0.6335483
vt 0.3052222 0.01900238
vt 0.3053085 0.8045665
vt 0.4459947 0.6552182
vt 0.4438316 0.6722034
vt 0.4408899 0.6845025
vt 0.426527 0.6982659
vt 0.4268426 0.7717462
vt 0.4325837 0.6970945
vt 0.4374289 0.6929946
vt 0.4268426 0.8014517
vt 0.4260681 0.8189257
vt 0.4242612 0.8372736
vt 0.4206471 0.8534372
vt 0.415097 0.8656689
vt 0.4072235 0.869601
vt 0.3056546 0.8253584
vt 0.307212 0.8420496
vt 0.3104134 0.8552276
vt 0.3142204 0.8637201
vt 0.3201039 0.869601
vn 0 0 -1
vn 0 0 -1
vn 0 0 -1
vn 0 0 -1
vn 0 0 -1
vn 0 0 -1
vn 0 0 -1
vn 0 0 -1
vn 0 0 -1
vn 0 0 -1
vn 0 0 -1
vn 0 0 -1
vn 0 0 -1
vn 0 0 -1
vn 0 0 -1
vn 0 0 -1
vn 0 0 -1
vn 0 0 -1
vn 0 0 -1
vn 0 0 -1
vn 0 0 -1
vn 0 0 -1
vn 0 0 -1
vn 0 0 -1
vn 0 0 -1
vn 0 0 -1
vn 0 0 -1
vn 0 0 -1
vn 0 0 -1
vn 0 0 -1
vn 0 0 -1
vn 0 0 -1
vn 0 0 -1
vn 0 0 -1
vn 0 0 -1
vn 0 0 -1
vn 0 0 -1
vn 0 0 -1
vn 0 0 -1
vn 0 0 -1
vn 0 0 -1
vn 0 0 -1
vn 0 0 -1
vn 0 0 -1
vn 0 0 -1
vn 0 0 -1
vn 0 0 -1
vn 0 0 -1
vn 0 0 -1
vn 0 0 -1
vn 0 0 -1
vn 0 0 -1
vn 0 0 -1
vn 0 0 -1
vn 0 0 -1
vn 0 0 -1
vn 0 0 -1
vn 0 0 -1
vn 0 0 -1
vn 0 0 -1
vn 0 0 -1
vn 0 0 -1
vn 0 0 -1
vn 0 0 -1
vn 0 0 -1
vn 0 0 -1
vn 0 0 -1
vn 0 0 -1
vn 0 0 -1
vn 0 0 -1
vn 0 0 -1
vn 0 0 -1
vn 0 0 -1
vn 0 0 -1
vn 0 0 -1
vn 0 0 -1
vn 0 0 -1
vn 0 0 -1
vn 0 0 -1
vn 0 0 -1
vn 0 0 -1
vn 0 0 -1
vn 0 0 -1
vn 0 0 -1
vn 0 0 -1
vn 0 0 -1
vn 0 0 -1
vn 0 0 -1
vn 0 0 -1
vn 0 0 -1
vn 0 0 -1
vn 0 0 -1
vn 0 0 -1
vn 0 0 -1
vn 0 0 -1
vn 0 0 -1
vn 0 0 -1
vn 0 0 -1
vn 0 0 -1
vn 0 0 -1
vn 0 0 -1
vn 0 0 -1
vn 0 0 -1
vn 0 0 -1
vn 0 0 -1
vn 0 0 -1
vn 0 0 -1
vn 0 0 -1
vn 0 0 -1
vn 0 0 -1
vn 0 0 -1
vn 0 0 -1
vn 0 0 -1
vn 0 0 -1
vn 0 0 -1
vn 0 0 -1
vn 0 0 -1
vn 0 0 -1
vn 0 0 -1
vn 0 0 -1
vn 0 0 -1
vn 0 0 -1
vn 0 0 -1
vn 0 0 -1
vn 0 0 -1
vn 0 0 -1
vn 0 0 -1
vn 0 0 -1
vn 0 0 -1
vn 0 0 -1
vn 0 0 -1
vn 0 0 -1
vn 0 0 -1
vn 0 0 -1
vn 0 0 -1
vn 0 0 -1
vn 0 0 -1
vn 0 0 -1
vn 0 0 -1
vn 0 0 -1
vn 0 0 -1
vn 0 0 -1
vn 0 0 -1
vn 0 0 -1
vn 0 0 -1
vn 0 0 -1
vn 0 0 -1
vn 0 0 -1
vn 0 0 -1
vn 0 0 -1
vn 0 0 -1
vn 0 0 -1
vn 0 0 -1
vn 0 0 -1
vn 0 0 -1
vn 0 0 -1
vn 0 0 -1
vn 0 0 -1
vn 0 0 -1
vn 0 0 -1
vn 0 0 -1
vn 0 0 -1
vn 0 0 -1
vn 0 0 -1
vn 0 0 -1
vn 0 0 -1
vn 0 0 -1
vn 0 0 -1
vn 0 0 -1
vn 0 0 -1
vn 0 0 -1
vn 0 0 -1
vn 0 0 -1
vn 0 0 -1
vn 0 0 -1
vn 0 0 -1
vn 0 0 -1
vn 0 0 -1
vn 0 0 -1
vn 0 0 -1
vn 0 0 -1
vn 0 0 -1
vn 0 0 -1
vn 0 0 -1
vn 0 0 -1
vn 0 0 -1
vn 0 0 -1
vn 0 0 -1
vn 0 0 -1
vn 0 0 -1
vn 0 0 -1
vn 0 0 -1
vn 0 0 -1
vn 0 0 -1
vn 0 0 -1
vn 0 0 -1
vn 0 0 -1
vn 0 0 -1
vn 0 0 -1
vn 0 0 -1
vn 0 0 -1
vn 0 0 -1
vn 0 0 -1
vn 0 0 -1
vn 0 0 -1
vn 0 0 -1
vn 0 0 -1
g Can_mountains_bg_r_0
f 3/3/3 2/2/2 1/1/1
f 3/3/3 4/4/4 2/2/2
f 5/5/5 4/4/4 3/3/3
f 6/6/6 4/4/4 5/5/5
f 6/6/6 7/7/7 4/4/4
f 7/7/7 6/6/6 8/8/8
f 8/8/8 6/6/6 9/9/9
f 9/9/9 6/6/6 10/10/10
f 10/10/10 6/6/6 11/11/11
f 11/11/11 6/6/6 12/12/12
f 11/11/11 12/12/12 13/13/13
f 11/11/11 13/13/13 14/14/14
f 11/11/11 14/14/14 15/15/15
f 15/15/15 14/14/14 16/16/16
f 16/16/16 14/14/14 17/17/17
f 16/16/16 17/17/17 18/18/18
f 11/11/11 15/15/15 19/19/19
f 11/11/11 19/19/19 20/20/20
f 11/11/11 20/20/20 21/21/21
f 11/11/11 21/21/21 22/22/22
f 11/11/11 22/22/22 23/23/23
f 23/23/23 22/22/22 24/24/24
f 24/24/24 22/22/22 25/25/25
f 25/25/25 22/22/22 26/26/26
f 26/26/26 22/22/22 27/27/27
f 27/27/27 22/22/22 28/28/28
f 31/31/31 30/30/30 29/29/29
f 32/32/32 30/30/30 31/31/31
f 33/33/33 30/30/30 32/32/32
f 34/34/34 30/30/30 33/33/33
f 35/35/35 30/30/30 34/34/34
f 36/36/36 30/30/30 35/35/35
f 37/37/37 30/30/30 36/36/36
f 37/37/37 36/36/36 38/38/38
f 39/39/39 30/30/30 37/37/37
f 39/39/39 37/37/37 40/40/40
f 40/40/40 37/37/37 41/41/41
f 41/41/41 37/37/37 42/42/42
f 42/42/42 37/37/37 43/43/43
f 43/43/43 37/37/37 44/44/44
f 44/44/44 37/37/37 45/45/45
f 44/44/44 45/45/45 46/46/46
f 46/46/46 45/45/45 47/47/47
f 47/47/47 45/45/45 48/48/48
f 48/48/48 45/45/45 49/49/49
f 49/49/49 45/45/45 50/50/50
f 49/49/49 50/50/50 51/51/51
f 51/51/51 50/50/50 52/52/52
f 51/51/51 52/52/52 53/53/53
f 51/51/51 53/53/53 54/54/54
f 54/54/54 53/53/53 55/55/55
f 54/54/54 55/55/55 56/56/56
f 59/59/59 58/58/58 57/57/57
f 60/60/60 58/58/58 59/59/59
f 60/60/60 61/61/61 58/58/58
f 62/62/62 61/61/61 60/60/60
f 62/62/62 63/63/63 61/61/61
f 64/64/64 63/63/63 62/62/62
f 64/64/64 65/65/65 63/63/63
f 64/64/64 66/66/66 65/65/65
f 67/67/67 66/66/66 64/64/64
f 67/67/67 68/68/68 66/66/66
f 67/67/67 69/69/69 68/68/68
f 70/70/70 69/69/69 67/67/67
f 70/70/70 71/71/71 69/69/69
f 72/72/72 71/71/71 70/70/70
f 72/72/72 70/70/70 73/73/73
f 71/71/71 72/72/72 74/74/74
f 74/74/74 72/72/72 75/75/75
f 74/74/74 75/75/75 76/76/76
f 76/76/76 75/75/75 77/77/77
f 76/76/76 77/77/77 78/78/78
f 78/78/78 77/77/77 79/79/79
f 78/78/78 79/79/79 80/80/80
f 78/78/78 80/80/80 81/81/81
f 81/81/81 80/80/80 82/82/82
f 81/81/81 82/82/82 83/83/83
f 81/81/81 83/83/83 84/84/84
f 87/87/87 86/86/86 85/85/85
f 88/88/88 86/86/86 87/87/87
f 89/89/89 86/86/86 88/88/88
f 90/90/90 86/86/86 89/89/89
f 91/91/91 86/86/86 90/90/90
f 92/92/92 86/86/86 91/91/91
f 95/95/95 94/94/94 93/93/93
f 95/95/95 96/96/96 94/94/94
f 95/95/95 97/97/97 96/96/96
f 95/95/95 98/98/98 97/97/97
f 95/95/95 99/99/99 98/98/98
f 95/95/95 100/100/100 99/99/99
f 95/95/95 101/101/101 100/100/100
f 95/95/95 102/102/102 101/101/101
f 95/95/95 103/103/103 102/102/102
f 104/104/104 103/103/103 95/95/95
f 105/105/105 103/103/103 104/104/104
f 106/106/106 103/103/103 105/105/105
f 107/107/107 103/103/103 106/106/106
f 108/108/108 103/103/103 107/107/107
f 109/109/109 103/103/103 108/108/108
f 112/112/112 111/111/111 110/110/110
f 113/113/113 111/111/111 112/112/112
f 114/114/114 111/111/111 113/113/113
f 111/111/111 114/114/114 115/115/115
f 115/115/115 114/114/114 116/116/116
f 115/115/115 116/116/116 117/117/117
f 117/117/117 116/116/116 118/118/118
f 118/118/118 116/116/116 119/119/119
f 119/119/119 116/116/116 120/120/120
f 120/120/120 116/116/116 121/121/121
f 120/120/120 121/121/121 122/122/122
f 122/122/122 121/121/121 123/123/123
f 123/123/123 121/121/121 124/124/124
f 123/123/123 124/124/124 125/125/125
f 123/123/123 125/125/125 126/126/126
f 123/123/123 126/126/126 127/127/127
f 123/123/123 127/127/127 128/128/128
f 123/123/123 128/128/128 129/129/129
f 123/123/123 129/129/129 130/130/130
f 130/130/130 129/129/129 131/131/131
f 131/131/131 129/129/129 132/132/132
f 132/132/132 129/129/129 133/133/133
f 133/133/133 129/129/129 134/134/134
f 134/134/134 129/129/129 135/135/135
f 138/138/138 137/137/137 136/136/136
f 139/139/139 137/137/137 138/138/138
f 140/140/140 137/137/137 139/139/139
f 141/141/141 137/137/137 140/140/140
f 142/142/142 137/137/137 141/141/141
f 143/143/143 137/137/137 142/142/142
f 143/143/143 142/142/142 144/144/144
f 144/144/144 142/142/142 145/145/145
f 145/145/145 142/142/142 146/146/146
f 146/146/146 142/142/142 147/147/147
f 147/147/147 142/142/142 148/148/148
f 147/147/147 148/148/148 149/149/149
f 149/149/149 148/148/148 150/150/150
f 150/150/150 148/148/148 151/151/151
f 151/151/151 148/148/148 152/152/152
f 152/152/152 148/148/148 153/153/153
f 153/153/153 148/148/148 154/154/154
f 154/154/154 148/148/148 155/155/155
f 155/155/155 148/148/148 156/156/156
f 159/159/159 158/158/158 157/157/157
f 160/160/160 158/158/158 159/159/159
f 161/161/161 158/158/158 160/160/160
f 162/162/162 158/158/158 161/161/161
f 162/162/162 163/163/163 158/158/158
f 164/164/164 163/163/163 162/162/162
f 164/164/164 165/165/165 163/163/163
f 164/164/164 166/166/166 165/165/165
f 167/167/167 166/166/166 164/164/164
f 167/167/167 168/168/168 166/166/166
f 167/167/167 169/169/169 168/168/168
f 167/167/167 170/170/170 169/169/169
f 167/167/167 171/171/171 170/170/170
f 167/167/167 172/172/172 171/171/171
f 173/173/173 172/172/172 167/167/167
f 173/173/173 167/167/167 174/174/174
f 174/174/174 167/167/167 175/175/175
f 174/174/174 175/175/175 176/176/176
f 175/175/175 167/167/167 177/177/177
f 177/177/177 167/167/167 178/178/178
f 178/178/178 167/167/167 179/179/179
f 179/179/179 167/167/167 180/180/180
f 179/179/179 180/180/180 181/181/181
f 176/176/176 175/175/175 182/182/182
f 176/176/176 182/182/182 183/183/183
f 176/176/176 183/183/183 184/184/184
f 176/176/176 184/184/184 185/185/185
f 188/188/188 187/187/187 186/186/186
f 189/189/189 187/187/187 188/188/188
f 189/189/189 190/190/190 187/187/187
f 189/189/189 191/191/191 190/190/190
f 189/189/189 192/192/192 191/191/191
f 189/189/189 193/193/193 192/192/192
f 189/189/189 194/194/194 193/193/193
f 192/192/192 193/193/193 195/195/195
f 192/192/192 195/195/195 196/196/196
f 189/189/189 197/197/197 194/194/194
f 189/189/189 198/198/198 197/197/197
f 189/189/189 199/199/199 198/198/198
f 189/189/189 200/200/200 199/199/199
f 189/189/189 201/201/201 200/200/200
f 189/189/189 202/202/202 201/201/201
f 203/203/203 202/202/202 189/189/189
f 204/204/204 202/202/202 203/203/203
f 205/205/205 202/202/202 204/204/204
f 206/206/206 202/202/202 205/205/205
f 207/207/207 202/202/202 206/206/206
