g Can_mountains_bg_l
v 2.785222 1.902538 0
v 2.869332 1.877049 0
v 4.648927 1.902538 0
v 2.946625 1.84059 0
v 3.006415 1.779342 0
v 3.03996 1.709342 0
v 3.057459 1.620384 0
v 3.061834 1.544551 0
v 4.741302 1.879444 0
v 4.816999 1.831974 0
v 4.8773 1.765259 0
v 4.911942 1.698542 0
v 4.92862 1.629261 0
v 3.060374 -1.902538 0
v 4.92862 -1.902538 0
v 3.060374 -1.902538 0
v 3.061834 1.544551 0
v 1.842672 -1.902538 0
v 1.83917 0.7273166 0
v 1.83917 1.577941 0
v 1.853285 1.675449 0
v 1.900755 1.763975 0
v 1.964907 1.834539 0
v 2.048297 1.884576 0
v 2.143243 1.902538 0
v 3.057459 1.620384 0
v 3.03996 1.709342 0
v 3.006415 1.779342 0
v 2.946625 1.84059 0
v 2.869332 1.877049 0
v 2.785222 1.902538 0
v 0.8720131 1.313645 0
v 0.9551629 1.294079 0
v 1.079637 1.313645 0
v 1.011998 1.258294 0
v 1.063573 1.200406 0
v 1.164315 1.295682 0
v 1.097255 1.133045 0
v 1.248993 1.262325 0
v 1.313145 1.207156 0
v 1.118302 1.064631 0
v 1.359334 1.141724 0
v 1.378577 1.069876 0
v 1.378577 0.9133509 0
v 1.121459 0.9930598 0
v 1.121466 -1.902538 0
v 1.390125 0.8517661 0
v 1.423483 0.7991642 0
v 1.47737 0.7529766 0
v 1.545365 0.7273166 0
v 1.83917 0.7273166 0
v 1.842672 -1.902538 0
v 1.121466 -1.902538 0
v 1.121459 0.9930598 0
v 0.9162216 -1.902538 0
v 0.9162216 0.2541916 0
v 0.9056944 0.3194472 0
v 0.8751698 0.3731258 0
v 0.8257049 0.414174 0
v 0.7614992 0.4383815 0
v 0.4857393 0.4394349 0
v 0.1122649 1.01214 0
v 0.1122649 0.649053 0
v 0.1276602 1.096818 0
v 0.1089392 0.4468018 0
v 0.1661484 1.166101 0
v 0.05105041 0.4373299 0
v 0.2303003 1.240514 0
v 0.3111238 1.291834 0
v -0.00157836 0.4110173 0
v 0.4022192 1.313645 0
v -0.04367634 0.3636539 0
v -0.066834 0.3026066 0
v 1.118302 1.064631 0
v -0.06999072 0.2341924 0
v 1.097255 1.133045 0
v 0.5509949 0.4089104 0
v 1.063573 1.200406 0
v 1.011998 1.258294 0
v 0.9551629 1.294079 0
v 0.8720131 1.313645 0
v 0.6130938 0.34997 0
v 0.642565 0.2794525 0
v 0.6446718 0.2068283 0
v 0.640458 -1.902538 0
v -0.07104775 -1.902538 0
v 0.4857393 0.4394349 0
v 0.5509949 0.4089104 0
v 0.7614992 0.4383815 0
v 0.6130938 0.34997 0
v 0.642565 0.2794525 0
v 0.8257049 0.414174 0
v 0.8751698 0.3731258 0
v 0.9056944 0.3194472 0
v 0.9162216 0.2541916 0
v 0.6446718 0.2068283 0
v 0.640458 -1.902538 0
v 0.9162216 -1.902538 0
v -1.014623 0.649053 0
v -0.9596246 0.633769 0
v 0.1122649 0.649053 0
v -0.9181918 0.6104155 0
v -0.8827847 0.5765149 0
v -0.8571715 0.5328206 0
v -0.8398455 0.4838537 0
v 0.1089392 0.4468018 0
v 0.05105041 0.4373299 0
v -0.00157836 0.4110173 0
v -0.04367634 0.3636539 0
v -0.066834 0.3026066 0
v -0.8375841 0.4250931 0
v -0.8353261 0.07026594 0
v -0.06999072 0.2341924 0
v -0.07104775 -1.902538 0
v -1.08242 0.07177244 0
v -1.139676 0.05821254 0
v -1.184126 0.02431198 0
v -1.214258 -0.02314848 0
v -1.233094 -0.07588329 0
v -1.239872 -0.1459441 0
v -1.240627 -1.902538 0
v -0.8353261 0.07026594 0
v -0.8375841 0.4250931 0
v -1.08242 0.07177244 0
v -0.8398455 0.4838537 0
v -0.8571715 0.5328206 0
v -0.8827847 0.5765149 0
v -0.9181918 0.6104155 0
v -0.9596246 0.633769 0
v -1.014623 0.649053 0
v -1.139676 0.05821254 0
v -1.184126 0.02431198 0
v -1.790417 0.649053 0
v -1.86868 0.63879 0
v -1.93668 0.5951676 0
v -1.982867 0.5323011 0
v -2.00596 0.4630186 0
v -2.00596 0.4040009 0
v -2.00596 0.2923814 0
v -1.214258 -0.02314848 0
v -1.233094 -0.07588329 0
v -1.239872 -0.1459441 0
v -1.240627 -1.902538 0
v -2.006127 -1.902538 0
v -2.496643 -1.902538 0
v -2.493326 -0.01094761 0
v -3.538767 -1.902538 0
v -2.506142 0.05313414 0
v -2.540014 0.1089771 0
v -2.586703 0.1520027 0
v -2.630644 0.170312 0
v -2.679161 0.1758039 0
v -2.930909 0.1785508 0
v -3.542988 0.5887535 0
v -2.932741 0.7745056 0
v -3.542988 0.7286001 0
v -3.53144 0.8042966 0
v -3.490384 0.8671632 0
v -3.432649 0.9159161 0
v -3.3685 0.9313115 0
v -2.945557 0.8294336 0
v -2.970275 0.8706273 0
v -3.005977 0.9035841 0
v -3.06365 0.9313115 0
v -3.06365 0.9313115 0
v -3.005977 0.9035841 0
v -2.676966 0.9313115 0
v -2.970275 0.8706273 0
v -2.945557 0.8294336 0
v -2.932741 0.7745056 0
v -2.679161 0.1758039 0
v -2.930909 0.1785508 0
v -2.605118 0.9082185 0
v -2.54995 0.8645961 0
v -2.516592 0.8107107 0
v -2.502478 0.7452789 0
v -2.502478 0.4360769 0
v -2.498629 0.3770592 0
v -2.630644 0.170312 0
v -2.478102 0.3372856 0
v -2.586703 0.1520027 0
v -2.444744 0.3077767 0
v -2.540014 0.1089771 0
v -2.390859 0.2923814 0
v -2.506142 0.05313414 0
v -2.493326 -0.01094761 0
v -2.496643 -1.902538 0
v -2.006127 -1.902538 0
v -2.00596 0.2923814 0
v -4.236932 1.234099 0
v -4.16041 1.217766 0
v -4.098524 1.234099 0
v -4.098768 1.185172 0
v -4.024109 1.227684 0
v -4.056965 1.141952 0
v -3.944563 1.196891 0
v -4.016578 1.087395 0
v -3.875283 1.150703 0
v -3.993904 1.025044 0
v -3.825246 1.089121 0
v -3.789321 1.014707 0
v -3.983276 0.9577319 0
v -3.777775 0.9479902 0
v -3.980443 0.8833368 0
v -3.777775 0.6926753 0
v -3.98186 -1.902538 0
v -3.76751 0.6439223 0
v -3.73672 0.6092811 0
v -3.696946 0.5887535 0
v -3.542988 0.5887535 0
v -3.538767 -1.902538 0
v -4.578447 -1.902538 0
v -3.98186 -1.902538 0
v -4.578363 0.1012147 0
v -3.980443 0.8833368 0
v -4.578363 0.8735772 0
v -4.571947 0.9646709 0
v -4.543721 1.05063 0
v -3.983276 0.9577319 0
v -4.501382 1.12761 0
v -4.435951 1.184061 0
v -4.364103 1.217421 0
v -4.288406 1.234099 0
v -3.993904 1.025044 0
v -4.236932 1.234099 0
v -4.16041 1.217766 0
v -4.098768 1.185172 0
v -4.056965 1.141952 0
v -4.016578 1.087395 0
v -4.578363 0.1012147 0
v -4.790057 0.1012147 0
v -4.578447 -1.902538 0
v -4.927336 -1.902538 0
v -4.850357 0.08581945 0
v -4.896544 0.04604587 0
v -4.919639 0.003707008 0
v -4.92862 -0.0861013 0
vt 0.7718174 0.9809976
vt 0.780026 0.9745535
vt 0.9537016 0.9809976
vt 0.7875692 0.9653361
vt 0.7934043 0.9498512
vt 0.7966781 0.9321539
vt 0.7983858 0.9096638
vt 0.7988129 0.8904916
vt 0.9627167 0.9751589
vt 0.9701042 0.9631578
vt 0.9759891 0.9462908
vt 0.9793699 0.9294233
vt 0.9809976 0.911908
vt 0.7986703 0.01900238
vt 0.9809976 0.01900238
vt 0.7986703 0.01900238
vt 0.7988129 0.8904916
vt 0.6798314 0.01900238
vt 0.6794897 0.6838794
vt 0.6794897 0.8989333
vt 0.6808672 0.9235851
vt 0.6854999 0.9459662
vt 0.6917607 0.9638062
vt 0.699899 0.9764563
vt 0.709165 0.9809976
vt 0.7983858 0.9096638
vt 0.7966781 0.9321539
vt 0.7934043 0.9498512
vt 0.7875692 0.9653361
vt 0.780026 0.9745535
vt 0.7718174 0.9809976
vt 0.5851022 0.8321143
vt 0.593217 0.8271676
vt 0.6053648 0.8321143
vt 0.5987636 0.8181206
vt 0.603797 0.8034852
vt 0.6136287 0.8275731
vt 0.6070842 0.7864552
vt 0.6218926 0.8191395
vt 0.6281534 0.8051919
vt 0.6091382 0.7691587
vt 0.6326612 0.7886494
vt 0.6345391 0.770485
vt 0.6345391 0.7309123
vt 0.6094462 0.7510643
vt 0.6094469 0.01900238
vt 0.6356661 0.7153425
vt 0.6389216 0.7020438
vt 0.6441805 0.6903667
vt 0.6508164 0.6838794
vt 0.6794897 0.6838794
vt 0.6798314 0.01900238
vt 0.6094469 0.01900238
vt 0.6094462 0.7510643
vt 0.5894166 0.01900238
vt 0.5894166 0.5642645
vt 0.5883892 0.5807623
vt 0.5854102 0.5943333
vt 0.5805828 0.604711
vt 0.5743168 0.6108311
vt 0.5474046 0.6110975
vt 0.5109562 0.7558882
vt 0.5109562 0.6640928
vt 0.5124587 0.7772964
vt 0.5106316 0.61296
vt 0.5162149 0.7948123
vt 0.5049821 0.6105652
vt 0.5224757 0.8136252
vt 0.5303634 0.8265998
vt 0.499846 0.6039129
vt 0.5392537 0.8321143
vt 0.4957375 0.5919386
vt 0.4934775 0.5765047
vt 0.6091382 0.7691587
vt 0.4931694 0.5592083
vt 0.6070842 0.7864552
vt 0.5537731 0.6033803
vt 0.603797 0.8034852
vt 0.5987636 0.8181206
vt 0.593217 0.8271676
vt 0.5851022 0.8321143
vt 0.5598335 0.588479
vt 0.5627097 0.5706508
vt 0.5629153 0.5522901
vt 0.5625041 0.01900238
vt 0.4930662 0.01900238
vt 0.5474046 0.6110975
vt 0.5537731 0.6033803
vt 0.5743168 0.6108311
vt 0.5598335 0.588479
vt 0.5627097 0.5706508
vt 0.5805828 0.604711
vt 0.5854102 0.5943333
vt 0.5883892 0.5807623
vt 0.5894166 0.5642645
vt 0.5629153 0.5522901
vt 0.5625041 0.01900238
vt 0.5894166 0.01900238
vt 0.4009802 0.6640928
vt 0.4063476 0.6602288
vt 0.5109562 0.6640928
vt 0.4103912 0.6543246
vt 0.4138466 0.6457539
vt 0.4163463 0.6347071
vt 0.4180371 0.6223274
vt 0.5106316 0.61296
vt 0.5049821 0.6105652
vt 0.499846 0.6039129
vt 0.4957375 0.5919386
vt 0.4934775 0.5765047
vt 0.4182579 0.6074716
vt 0.4184783 0.5177646
vt 0.4931694 0.5592083
vt 0.4930662 0.01900238
vt 0.3943636 0.5181454
vt 0.3887759 0.5147172
vt 0.3844379 0.5061466
vt 0.3814972 0.4941476
vt 0.3796589 0.4808153
vt 0.3789975 0.4631026
vt 0.3789238 0.01900238
vt 0.4184783 0.5177646
vt 0.4182579 0.6074716
vt 0.3943636 0.5181454
vt 0.4180371 0.6223274
vt 0.4163463 0.6347071
vt 0.4138466 0.6457539
vt 0.4103912 0.6543246
vt 0.4063476 0.6602288
vt 0.4009802 0.6640928
vt 0.3887759 0.5147172
vt 0.3844379 0.5061466
vt 0.3252683 0.6640928
vt 0.3176303 0.6614982
vt 0.3109941 0.6504695
vt 0.3064865 0.6345758
vt 0.3042328 0.6170598
vt 0.3042328 0.6021391
vt 0.3042328 0.5739195
vt 0.3814972 0.4941476
vt 0.3796589 0.4808153
vt 0.3789975 0.4631026
vt 0.3789238 0.01900238
vt 0.3042165 0.01900238
vt 0.2563457 0.01900238
vt 0.2566694 0.4972322
vt 0.154642 0.01900238
vt 0.2554187 0.5134333
vt 0.252113 0.5275515
vt 0.2475565 0.5384292
vt 0.2432682 0.5430581
vt 0.2385333 0.5444465
vt 0.2139645 0.545141
vt 0.1542301 0.648848
vt 0.2137857 0.6958097
vt 0.1542301 0.6842039
vt 0.155357 0.7033414
vt 0.1593638 0.7192353
vt 0.1649983 0.7315608
vt 0.1712588 0.7354532
vt 0.212535 0.7096964
vt 0.2101227 0.720111
vt 0.2066384 0.7284431
vt 0.20101 0.7354532
vt 0.20101 0.7354532
vt 0.2066384 0.7284431
vt 0.2387475 0.7354532
vt 0.2101227 0.720111
vt 0.212535 0.7096964
vt 0.2137857 0.6958097
vt 0.2385333 0.5444465
vt 0.2139645 0.545141
vt 0.2457593 0.7296147
vt 0.2511434 0.7185862
vt 0.2543989 0.704963
vt 0.2557763 0.6884205
vt 0.2557763 0.6102485
vt 0.2561519 0.5953276
vt 0.2432682 0.5430581
vt 0.2581552 0.5852721
vt 0.2475565 0.5384292
vt 0.2614107 0.5778117
vt 0.252113 0.5275515
vt 0.2666695 0.5739195
vt 0.2554187 0.5134333
vt 0.2566694 0.4972322
vt 0.2563457 0.01900238
vt 0.3042165 0.01900238
vt 0.3042328 0.5739195
vt 0.08650616 0.8120037
vt 0.09397408 0.8078742
vt 0.1000138 0.8120037
vt 0.09999001 0.7996339
vt 0.1072761 0.8103815
vt 0.1040696 0.7887071
vt 0.1150393 0.8025967
vt 0.1080111 0.7749139
vt 0.1218005 0.7909197
vt 0.1102238 0.7591505
vt 0.1266837 0.7753503
vt 0.1301897 0.7565372
vt 0.1112611 0.7421328
vt 0.1313166 0.7396698
vt 0.1115376 0.7233243
vt 0.1313166 0.6751214
vt 0.1113994 0.01900238
vt 0.1323183 0.6627957
vt 0.1353232 0.6540378
vt 0.1392049 0.648848
vt 0.1542301 0.648848
vt 0.154642 0.01900238
vt 0.05317676 0.01900238
vt 0.1113994 0.01900238
vt 0.0531849 0.525589
vt 0.1115376 0.7233243
vt 0.0531849 0.7208568
vt 0.05381116 0.743887
vt 0.05656576 0.7656192
vt 0.1112611 0.7421328
vt 0.06069767 0.7850812
vt 0.06708336 0.799353
vt 0.07409522 0.8077869
vt 0.08148259 0.8120037
vt 0.1102238 0.7591505
vt 0.08650616 0.8120037
vt 0.09397408 0.8078742
vt 0.09999001 0.7996339
vt 0.1040696 0.7887071
vt 0.1080111 0.7749139
vt 0.0531849 0.525589
vt 0.03252512 0.525589
vt 0.05317676 0.01900238
vt 0.01912767 0.01900238
vt 0.02664033 0.5216967
vt 0.02213275 0.5116413
vt 0.01987886 0.5009372
vt 0.01900238 0.478232
vn 0 0 -1
vn 0 0 -1
vn 0 0 -1
vn 0 0 -1
vn 0 0 -1
vn 0 0 -1
vn 0 0 -1
vn 0 0 -1
vn 0 0 -1
vn 0 0 -1
vn 0 0 -1
vn 0 0 -1
vn 0 0 -1
vn 0 0 -1
vn 0 0 -1
vn 0 0 -1
vn 0 0 -1
vn 0 0 -1
vn 0 0 -1
vn 0 0 -1
vn 0 0 -1
vn 0 0 -1
vn 0 0 -1
vn 0 0 -1
vn 0 0 -1
vn 0 0 -1
vn 0 0 -1
vn 0 0 -1
vn 0 0 -1
vn 0 0 -1
vn 0 0 -1
vn 0 0 -1
vn 0 0 -1
vn 0 0 -1
vn 0 0 -1
vn 0 0 -1
vn 0 0 -1
vn 0 0 -1
vn 0 0 -1
vn 0 0 -1
vn 0 0 -1
vn 0 0 -1
vn 0 0 -1
vn 0 0 -1
vn 0 0 -1
vn 0 0 -1
vn 0 0 -1
vn 0 0 -1
vn 0 0 -1
vn 0 0 -1
vn 0 0 -1
vn 0 0 -1
vn 0 0 -1
vn 0 0 -1
vn 0 0 -1
vn 0 0 -1
vn 0 0 -1
vn 0 0 -1
vn 0 0 -1
vn 0 0 -1
vn 0 0 -1
vn 0 0 -1
vn 0 0 -1
vn 0 0 -1
vn 0 0 -1
vn 0 0 -1
vn 0 0 -1
vn 0 0 -1
vn 0 0 -1
vn 0 0 -1
vn 0 0 -1
vn 0 0 -1
vn 0 0 -1
vn 0 0 -1
vn 0 0 -1
vn 0 0 -1
vn 0 0 -1
vn 0 0 -1
vn 0 0 -1
vn 0 0 -1
vn 0 0 -1
vn 0 0 -1
vn 0 0 -1
vn 0 0 -1
vn 0 0 -1
vn 0 0 -1
vn 0 0 -1
vn 0 0 -1
vn 0 0 -1
vn 0 0 -1
vn 0 0 -1
vn 0 0 -1
vn 0 0 -1
vn 0 0 -1
vn 0 0 -1
vn 0 0 -1
vn 0 0 -1
vn 0 0 -1
vn 0 0 -1
vn 0 0 -1
vn 0 0 -1
vn 0 0 -1
vn 0 0 -1
vn 0 0 -1
vn 0 0 -1
vn 0 0 -1
vn 0 0 -1
vn 0 0 -1
vn 0 0 -1
vn 0 0 -1
vn 0 0 -1
vn 0 0 -1
vn 0 0 -1
vn 0 0 -1
vn 0 0 -1
vn 0 0 -1
vn 0 0 -1
vn 0 0 -1
vn 0 0 -1
vn 0 0 -1
vn 0 0 -1
vn 0 0 -1
vn 0 0 -1
vn 0 0 -1
vn 0 0 -1
vn 0 0 -1
vn 0 0 -1
vn 0 0 -1
vn 0 0 -1
vn 0 0 -1
vn 0 0 -1
vn 0 0 -1
vn 0 0 -1
vn 0 0 -1
vn 0 0 -1
vn 0 0 -1
vn 0 0 -1
vn 0 0 -1
vn 0 0 -1
vn 0 0 -1
vn 0 0 -1
vn 0 0 -1
vn 0 0 -1
vn 0 0 -1
vn 0 0 -1
vn 0 0 -1
vn 0 0 -1
vn 0 0 -1
vn 0 0 -1
vn 0 0 -1
vn 0 0 -1
vn 0 0 -1
vn 0 0 -1
vn 0 0 -1
vn 0 0 -1
vn 0 0 -1
vn 0 0 -1
vn 0 0 -1
vn 0 0 -1
vn 0 0 -1
vn 0 0 -1
vn 0 0 -1
vn 0 0 -1
vn 0 0 -1
vn 0 0 -1
vn 0 0 -1
vn 0 0 -1
vn 0 0 -1
vn 0 0 -1
vn 0 0 -1
vn 0 0 -1
vn 0 0 -1
vn 0 0 -1
vn 0 0 -1
vn 0 0 -1
vn 0 0 -1
vn 0 0 -1
vn 0 0 -1
vn 0 0 -1
vn 0 0 -1
vn 0 0 -1
vn 0 0 -1
vn 0 0 -1
vn 0 0 -1
vn 0 0 -1
vn 0 0 -1
vn 0 0 -1
vn 0 0 -1
vn 0 0 -1
vn 0 0 -1
vn 0 0 -1
vn 0 0 -1
vn 0 0 -1
vn 0 0 -1
vn 0 0 -1
vn 0 0 -1
vn 0 0 -1
vn 0 0 -1
vn 0 0 -1
vn 0 0 -1
vn 0 0 -1
vn 0 0 -1
vn 0 0 -1
vn 0 0 -1
vn 0 0 -1
vn 0 0 -1
vn 0 0 -1
vn 0 0 -1
vn 0 0 -1
vn 0 0 -1
vn 0 0 -1
vn 0 0 -1
vn 0 0 -1
vn 0 0 -1
vn 0 0 -1
vn 0 0 -1
vn 0 0 -1
vn 0 0 -1
vn 0 0 -1
vn 0 0 -1
vn 0 0 -1
vn 0 0 -1
vn 0 0 -1
vn 0 0 -1
vn 0 0 -1
vn 0 0 -1
vn 0 0 -1
vn 0 0 -1
vn 0 0 -1
vn 0 0 -1
vn 0 0 -1
vn 0 0 -1
vn 0 0 -1
vn 0 0 -1
vn 0 0 -1
vn 0 0 -1
vn 0 0 -1
g Can_mountains_bg_l_0
f 3/3/3 2/2/2 1/1/1
f 3/3/3 4/4/4 2/2/2
f 3/3/3 5/5/5 4/4/4
f 3/3/3 6/6/6 5/5/5
f 3/3/3 7/7/7 6/6/6
f 3/3/3 8/8/8 7/7/7
f 9/9/9 8/8/8 3/3/3
f 8/8/8 9/9/9 10/10/10
f 8/8/8 10/10/10 11/11/11
f 8/8/8 11/11/11 12/12/12
f 8/8/8 12/12/12 13/13/13
f 8/8/8 13/13/13 14/14/14
f 14/14/14 13/13/13 15/15/15
f 18/18/18 17/17/17 16/16/16
f 19/19/19 17/17/17 18/18/18
f 20/20/20 17/17/17 19/19/19
f 21/21/21 17/17/17 20/20/20
f 22/22/22 17/17/17 21/21/21
f 23/23/23 17/17/17 22/22/22
f 24/24/24 17/17/17 23/23/23
f 25/25/25 17/17/17 24/24/24
f 25/25/25 26/26/26 17/17/17
f 25/25/25 27/27/27 26/26/26
f 25/25/25 28/28/28 27/27/27
f 25/25/25 29/29/29 28/28/28
f 25/25/25 30/30/30 29/29/29
f 31/31/31 30/30/30 25/25/25
f 34/34/34 33/33/33 32/32/32
f 34/34/34 35/35/35 33/33/33
f 34/34/34 36/36/36 35/35/35
f 37/37/37 36/36/36 34/34/34
f 37/37/37 38/38/38 36/36/36
f 39/39/39 38/38/38 37/37/37
f 40/40/40 38/38/38 39/39/39
f 40/40/40 41/41/41 38/38/38
f 42/42/42 41/41/41 40/40/40
f 43/43/43 41/41/41 42/42/42
f 44/44/44 41/41/41 43/43/43
f 44/44/44 45/45/45 41/41/41
f 44/44/44 46/46/46 45/45/45
f 47/47/47 46/46/46 44/44/44
f 48/48/48 46/46/46 47/47/47
f 49/49/49 46/46/46 48/48/48
f 46/46/46 49/49/49 50/50/50
f 46/46/46 50/50/50 51/51/51
f 46/46/46 51/51/51 52/52/52
f 55/55/55 54/54/54 53/53/53
f 56/56/56 54/54/54 55/55/55
f 57/57/57 54/54/54 56/56/56
f 58/58/58 54/54/54 57/57/57
f 59/59/59 54/54/54 58/58/58
f 60/60/60 54/54/54 59/59/59
f 61/61/61 54/54/54 60/60/60
f 62/62/62 54/54/54 61/61/61
f 62/62/62 61/61/61 63/63/63
f 64/64/64 54/54/54 62/62/62
f 63/63/63 61/61/61 65/65/65
f 66/66/66 54/54/54 64/64/64
f 65/65/65 61/61/61 67/67/67
f 68/68/68 54/54/54 66/66/66
f 69/69/69 54/54/54 68/68/68
f 67/67/67 61/61/61 70/70/70
f 71/71/71 54/54/54 69/69/69
f 70/70/70 61/61/61 72/72/72
f 72/72/72 61/61/61 73/73/73
f 71/71/71 74/74/74 54/54/54
f 73/73/73 61/61/61 75/75/75
f 71/71/71 76/76/76 74/74/74
f 75/75/75 61/61/61 77/77/77
f 71/71/71 78/78/78 76/76/76
f 71/71/71 79/79/79 78/78/78
f 71/71/71 80/80/80 79/79/79
f 81/81/81 80/80/80 71/71/71
f 75/75/75 77/77/77 82/82/82
f 75/75/75 82/82/82 83/83/83
f 75/75/75 83/83/83 84/84/84
f 75/75/75 84/84/84 85/85/85
f 75/75/75 85/85/85 86/86/86
f 89/89/89 88/88/88 87/87/87
f 89/89/89 90/90/90 88/88/88
f 89/89/89 91/91/91 90/90/90
f 92/92/92 91/91/91 89/89/89
f 93/93/93 91/91/91 92/92/92
f 94/94/94 91/91/91 93/93/93
f 95/95/95 91/91/91 94/94/94
f 95/95/95 96/96/96 91/91/91
f 96/96/96 95/95/95 97/97/97
f 97/97/97 95/95/95 98/98/98
f 101/101/101 100/100/100 99/99/99
f 101/101/101 102/102/102 100/100/100
f 101/101/101 103/103/103 102/102/102
f 101/101/101 104/104/104 103/103/103
f 101/101/101 105/105/105 104/104/104
f 106/106/106 105/105/105 101/101/101
f 107/107/107 105/105/105 106/106/106
f 108/108/108 105/105/105 107/107/107
f 109/109/109 105/105/105 108/108/108
f 110/110/110 105/105/105 109/109/109
f 110/110/110 111/111/111 105/105/105
f 110/110/110 112/112/112 111/111/111
f 113/113/113 112/112/112 110/110/110
f 114/114/114 112/112/112 113/113/113
f 115/115/115 112/112/112 114/114/114
f 115/115/115 114/114/114 116/116/116
f 116/116/116 114/114/114 117/117/117
f 117/117/117 114/114/114 118/118/118
f 118/118/118 114/114/114 119/119/119
f 119/119/119 114/114/114 120/120/120
f 120/120/120 114/114/114 121/121/121
f 124/124/124 123/123/123 122/122/122
f 123/123/123 124/124/124 125/125/125
f 125/125/125 124/124/124 126/126/126
f 126/126/126 124/124/124 127/127/127
f 127/127/127 124/124/124 128/128/128
f 128/128/128 124/124/124 129/129/129
f 129/129/129 124/124/124 130/130/130
f 130/130/130 124/124/124 131/131/131
f 130/130/130 131/131/131 132/132/132
f 130/130/130 132/132/132 133/133/133
f 133/133/133 132/132/132 134/134/134
f 134/134/134 132/132/132 135/135/135
f 135/135/135 132/132/132 136/136/136
f 136/136/136 132/132/132 137/137/137
f 137/137/137 132/132/132 138/138/138
f 138/138/138 132/132/132 139/139/139
f 139/139/139 132/132/132 140/140/140
f 139/139/139 140/140/140 141/141/141
f 139/139/139 141/141/141 142/142/142
f 139/139/139 142/142/142 143/143/143
f 139/139/139 143/143/143 144/144/144
f 147/147/147 146/146/146 145/145/145
f 147/147/147 148/148/148 146/146/146
f 147/147/147 149/149/149 148/148/148
f 147/147/147 150/150/150 149/149/149
f 147/147/147 151/151/151 150/150/150
f 147/147/147 152/152/152 151/151/151
f 147/147/147 153/153/153 152/152/152
f 154/154/154 153/153/153 147/147/147
f 154/154/154 155/155/155 153/153/153
f 156/156/156 155/155/155 154/154/154
f 157/157/157 155/155/155 156/156/156
f 158/158/158 155/155/155 157/157/157
f 159/159/159 155/155/155 158/158/158
f 160/160/160 155/155/155 159/159/159
f 160/160/160 161/161/161 155/155/155
f 160/160/160 162/162/162 161/161/161
f 160/160/160 163/163/163 162/162/162
f 164/164/164 163/163/163 160/160/160
f 167/167/167 166/166/166 165/165/165
f 167/167/167 168/168/168 166/166/166
f 167/167/167 169/169/169 168/168/168
f 167/167/167 170/170/170 169/169/169
f 167/167/167 171/171/171 170/170/170
f 170/170/170 171/171/171 172/172/172
f 173/173/173 171/171/171 167/167/167
f 174/174/174 171/171/171 173/173/173
f 175/175/175 171/171/171 174/174/174
f 176/176/176 171/171/171 175/175/175
f 177/177/177 171/171/171 176/176/176
f 178/178/178 171/171/171 177/177/177
f 178/178/178 179/179/179 171/171/171
f 180/180/180 179/179/179 178/178/178
f 179/179/179 180/180/180 181/181/181
f 181/181/181 180/180/180 182/182/182
f 181/181/181 182/182/182 183/183/183
f 183/183/183 182/182/182 184/184/184
f 183/183/183 184/184/184 185/185/185
f 185/185/185 184/184/184 186/186/186
f 186/186/186 184/184/184 187/187/187
f 187/187/187 184/184/184 188/188/188
f 188/188/188 184/184/184 189/189/189
f 192/192/192 191/191/191 190/190/190
f 192/192/192 193/193/193 191/191/191
f 194/194/194 193/193/193 192/192/192
f 194/194/194 195/195/195 193/193/193
f 196/196/196 195/195/195 194/194/194
f 196/196/196 197/197/197 195/195/195
f 198/198/198 197/197/197 196/196/196
f 198/198/198 199/199/199 197/197/197
f 200/200/200 199/199/199 198/198/198
f 201/201/201 199/199/199 200/200/200
f 201/201/201 202/202/202 199/199/199
f 203/203/203 202/202/202 201/201/201
f 203/203/203 204/204/204 202/202/202
f 205/205/205 204/204/204 203/203/203
f 205/205/205 206/206/206 204/204/204
f 207/207/207 206/206/206 205/205/205
f 208/208/208 206/206/206 207/207/207
f 209/209/209 206/206/206 208/208/208
f 206/206/206 209/209/209 210/210/210
f 206/206/206 210/210/210 211/211/211
f 214/214/214 213/213/213 212/212/212
f 214/214/214 215/215/215 213/213/213
f 216/216/216 215/215/215 214/214/214
f 217/217/217 215/215/215 216/216/216
f 218/218/218 215/215/215 217/217/217
f 218/218/218 219/219/219 215/215/215
f 220/220/220 219/219/219 218/218/218
f 221/221/221 219/219/219 220/220/220
f 222/222/222 219/219/219 221/221/221
f 223/223/223 219/219/219 222/222/222
f 223/223/223 224/224/224 219/219/219
f 225/225/225 224/224/224 223/223/223
f 226/226/226 224/224/224 225/225/225
f 227/227/227 224/224/224 226/226/226
f 228/228/228 224/224/224 227/227/227
f 229/229/229 224/224/224 228/228/228
f 232/232/232 231/231/231 230/230/230
f 233/233/233 231/231/231 232/232/232
f 233/233/233 234/234/234 231/231/231
f 233/233/233 235/235/235 234/234/234
f 233/233/233 236/236/236 235/235/235
f 237/237/237 236/236/236 233/233/233
