g China_mountains_l_2_bush
v -1.026614 1.357823 0
v -1.307881 1.423799 0
v -1.263152 1.343264 0
v -1.456102 1.277933 0
v -1.603035 1.448105 0
v -1.630821 1.17766 0
v -1.89819 1.427271 0
v -1.845042 1.030288 0
v -2.280156 1.326571 0
v -2.028876 0.8601269 0
v -2.63087 1.163367 0
v -2.196 0.6443869 0
v -2.880883 0.9793298 0
v -2.314506 0.4225703 0
v -3.117008 0.7223715 0
v -2.404143 0.1901179 0
v -3.290627 0.4619403 0
v -2.467953 -0.04689278 0
v -3.422579 0.1494232 0
v -2.484665 -0.2033799 0
v -2.551515 -0.3203659 0
v -3.505918 -0.2117078 0
v -2.64875 -0.5330673 0
v -3.519807 -0.5589489 0
v -2.698887 -0.7290564 0
v -2.739908 -0.9994909 0
v -2.736869 -1.213712 0
v -3.82538 -0.6145077 0
v -4.047614 -0.7499313 0
v -4.210818 -0.9513318 0
v -4.301101 -1.211762 0
v -4.31039 -1.448105 0
v -2.718638 -1.36868 0
v -2.697364 -1.448105 0
v 4.31039 -1.448105 0
v 4.158032 -1.200649 0
v 1.804665 -1.448105 0
v 3.921335 -0.9446875 0
v 3.670878 -0.7575327 0
v 3.417668 -0.6089096 0
v 3.136936 -0.4960658 0
v 1.825019 -1.308174 0
v 1.860179 -1.150882 0
v 2.823175 -0.4217538 0
v 1.928647 -0.9695334 0
v 2.017471 -0.7937369 0
v 2.152557 -0.6308938 0
v 2.287643 -0.5032098 0
v 2.481892 -0.3942314 0
v 2.481892 -0.3942314 0
v 2.16538 -0.4272586 0
v 2.287643 -0.5032098 0
v 2.152557 -0.6308938 0
v 1.903913 -0.4767999 0
v 2.017471 -0.7937369 0
v 1.639694 -0.5758817 0
v 1.928647 -0.9695334 0
v 1.411255 -0.6859735 0
v 1.444234 -0.900737 0
v 1.860179 -1.150882 0
v 1.465504 -1.133189 0
v 1.825019 -1.308174 0
v 1.45487 -1.30487 0
v 1.804665 -1.448105 0
v 1.432079 -1.448105 0
v 1.432079 -1.448105 0
v 1.45487 -1.30487 0
v -2.697364 -1.448105 0
v 1.465504 -1.133189 0
v 1.444234 -0.900737 0
v 1.411255 -0.6859735 0
v 1.372723 -0.4933131 0
v 1.287403 -0.3006535 0
v 1.138779 -0.08597606 0
v 0.9268533 0.1176929 0
v 0.6488733 0.2773251 0
v 0.3488747 0.3598936 0
v 0.091501 0.3681847 0
v -2.718638 -1.36868 0
v -2.736869 -1.213712 0
v -2.739908 -0.9994909 0
v -2.698887 -0.7290564 0
v -2.64875 -0.5330673 0
v -2.551515 -0.3203659 0
v -2.484665 -0.2033799 0
v -2.467953 -0.04689278 0
v -2.404143 0.1901179 0
v -2.314506 0.4225703 0
v -0.05433891 0.6320889 0
v -0.2418502 0.8439053 0
v -2.196 0.6443869 0
v -2.028876 0.8601269 0
v -1.845042 1.030288 0
v -0.4293597 1.027944 0
v -1.630821 1.17766 0
v -0.7279871 1.218926 0
v -1.456102 1.277933 0
v -1.263152 1.343264 0
v -1.026614 1.357823 0
vt 0.3854398 0.9510095
vt 0.3540531 0.9729238
vt 0.3590445 0.9461735
vt 0.3375132 0.9244738
vt 0.3211169 0.9809976
vt 0.3180162 0.8911674
vt 0.2881805 0.9740772
vt 0.2941112 0.8422167
vt 0.2455567 0.940629
vt 0.2735971 0.7856966
vt 0.2064205 0.8864199
vt 0.2549478 0.7140371
vt 0.1785214 0.8252906
vt 0.2417236 0.6403592
vt 0.1521722 0.7399403
vt 0.231721 0.5631487
vt 0.1327978 0.6534362
vt 0.2246004 0.4844241
vt 0.1180733 0.5496318
vt 0.2227353 0.4324459
vt 0.2152757 0.3935881
vt 0.1087736 0.4296796
vt 0.2044252 0.322938
vt 0.1072237 0.3143412
vt 0.1988304 0.257839
vt 0.1942528 0.1680125
vt 0.1945919 0.09685752
vt 0.07312474 0.2958871
vt 0.04832557 0.2509053
vt 0.03011367 0.1840088
vt 0.02003902 0.09750521
vt 0.01900232 0.01900232
vt 0.1966264 0.04538372
vt 0.1990003 0.01900232
vt 0.9809977 0.01900232
vt 0.9639958 0.1011963
vt 0.7013831 0.01900232
vt 0.9375829 0.1862157
vt 0.9096342 0.2483805
vt 0.8813785 0.2977465
vt 0.8500515 0.3352283
vt 0.7036544 0.06548139
vt 0.7075778 0.1177267
vt 0.8150389 0.3599116
vt 0.7152182 0.1779629
vt 0.7251301 0.2363548
vt 0.7402043 0.2904442
vt 0.7552787 0.3328554
vt 0.776955 0.3690533
vt 0.776955 0.3690533
vt 0.7416353 0.3580831
vt 0.7552787 0.3328554
vt 0.7402043 0.2904442
vt 0.7124583 0.3416277
vt 0.7251301 0.2363548
vt 0.6829739 0.3087169
vt 0.7152182 0.1779629
vt 0.6574824 0.2721493
vt 0.6611625 0.2008143
vt 0.7075778 0.1177267
vt 0.6635359 0.1236036
vt 0.7036544 0.06548139
vt 0.6623494 0.06657887
vt 0.7013831 0.01900232
vt 0.6598061 0.01900232
vt 0.6598061 0.01900232
vt 0.6623494 0.06657887
vt 0.1990003 0.01900232
vt 0.6635359 0.1236036
vt 0.6611625 0.2008143
vt 0.6574824 0.2721493
vt 0.6531824 0.3361425
vt 0.6436616 0.4001358
vt 0.6270767 0.4714424
vt 0.6034279 0.5390923
vt 0.572408 0.5921152
vt 0.538931 0.6195409
vt 0.5102106 0.6222948
vt 0.1966264 0.04538372
vt 0.1945919 0.09685752
vt 0.1942528 0.1680125
vt 0.1988304 0.257839
vt 0.2044252 0.322938
vt 0.2152757 0.3935881
vt 0.2227353 0.4324459
vt 0.2246004 0.4844241
vt 0.231721 0.5631487
vt 0.2417236 0.6403592
vt 0.4939363 0.7099522
vt 0.4730119 0.7803086
vt 0.2549478 0.7140371
vt 0.2735971 0.7856966
vt 0.2941112 0.8422167
vt 0.4520876 0.8414381
vt 0.3180162 0.8911674
vt 0.4187637 0.904874
vt 0.3375132 0.9244738
vt 0.3590445 0.9461735
vt 0.3854398 0.9510095
vn 0 0 -1
vn 0 0 -1
vn 0 0 -1
vn 0 0 -1
vn 0 0 -1
vn 0 0 -1
vn 0 0 -1
vn 0 0 -1
vn 0 0 -1
vn 0 0 -1
vn 0 0 -1
vn 0 0 -1
vn 0 0 -1
vn 0 0 -1
vn 0 0 -1
vn 0 0 -1
vn 0 0 -1
vn 0 0 -1
vn 0 0 -1
vn 0 0 -1
vn 0 0 -1
vn 0 0 -1
vn 0 0 -1
vn 0 0 -1
vn 0 0 -1
vn 0 0 -1
vn 0 0 -1
vn 0 0 -1
vn 0 0 -1
vn 0 0 -1
vn 0 0 -1
vn 0 0 -1
vn 0 0 -1
vn 0 0 -1
vn 0 0 -1
vn 0 0 -1
vn 0 0 -1
vn 0 0 -1
vn 0 0 -1
vn 0 0 -1
vn 0 0 -1
vn 0 0 -1
vn 0 0 -1
vn 0 0 -1
vn 0 0 -1
vn 0 0 -1
vn 0 0 -1
vn 0 0 -1
vn 0 0 -1
vn 0 0 -1
vn 0 0 -1
vn 0 0 -1
vn 0 0 -1
vn 0 0 -1
vn 0 0 -1
vn 0 0 -1
vn 0 0 -1
vn 0 0 -1
vn 0 0 -1
vn 0 0 -1
vn 0 0 -1
vn 0 0 -1
vn 0 0 -1
vn 0 0 -1
vn 0 0 -1
vn 0 0 -1
vn 0 0 -1
vn 0 0 -1
vn 0 0 -1
vn 0 0 -1
vn 0 0 -1
vn 0 0 -1
vn 0 0 -1
vn 0 0 -1
vn 0 0 -1
vn 0 0 -1
vn 0 0 -1
vn 0 0 -1
vn 0 0 -1
vn 0 0 -1
vn 0 0 -1
vn 0 0 -1
vn 0 0 -1
vn 0 0 -1
vn 0 0 -1
vn 0 0 -1
vn 0 0 -1
vn 0 0 -1
vn 0 0 -1
vn 0 0 -1
vn 0 0 -1
vn 0 0 -1
vn 0 0 -1
vn 0 0 -1
vn 0 0 -1
vn 0 0 -1
vn 0 0 -1
vn 0 0 -1
vn 0 0 -1
g China_mountains_l_2_bush_0
f 3/3/3 2/2/2 1/1/1
f 4/4/4 2/2/2 3/3/3
f 4/4/4 5/5/5 2/2/2
f 6/6/6 5/5/5 4/4/4
f 6/6/6 7/7/7 5/5/5
f 8/8/8 7/7/7 6/6/6
f 8/8/8 9/9/9 7/7/7
f 10/10/10 9/9/9 8/8/8
f 10/10/10 11/11/11 9/9/9
f 12/12/12 11/11/11 10/10/10
f 13/13/13 11/11/11 12/12/12
f 13/13/13 12/12/12 14/14/14
f 13/13/13 14/14/14 15/15/15
f 15/15/15 14/14/14 16/16/16
f 15/15/15 16/16/16 17/17/17
f 17/17/17 16/16/16 18/18/18
f 17/17/17 18/18/18 19/19/19
f 19/19/19 18/18/18 20/20/20
f 19/19/19 20/20/20 21/21/21
f 19/19/19 21/21/21 22/22/22
f 22/22/22 21/21/21 23/23/23
f 22/22/22 23/23/23 24/24/24
f 24/24/24 23/23/23 25/25/25
f 24/24/24 25/25/25 26/26/26
f 24/24/24 26/26/26 27/27/27
f 24/24/24 27/27/27 28/28/28
f 28/28/28 27/27/27 29/29/29
f 29/29/29 27/27/27 30/30/30
f 30/30/30 27/27/27 31/31/31
f 31/31/31 27/27/27 32/32/32
f 32/32/32 27/27/27 33/33/33
f 32/32/32 33/33/33 34/34/34
f 37/37/37 36/36/36 35/35/35
f 37/37/37 38/38/38 36/36/36
f 37/37/37 39/39/39 38/38/38
f 37/37/37 40/40/40 39/39/39
f 37/37/37 41/41/41 40/40/40
f 42/42/42 41/41/41 37/37/37
f 43/43/43 41/41/41 42/42/42
f 43/43/43 44/44/44 41/41/41
f 45/45/45 44/44/44 43/43/43
f 46/46/46 44/44/44 45/45/45
f 47/47/47 44/44/44 46/46/46
f 48/48/48 44/44/44 47/47/47
f 49/49/49 44/44/44 48/48/48
f 52/52/52 51/51/51 50/50/50
f 53/53/53 51/51/51 52/52/52
f 53/53/53 54/54/54 51/51/51
f 55/55/55 54/54/54 53/53/53
f 55/55/55 56/56/56 54/54/54
f 57/57/57 56/56/56 55/55/55
f 57/57/57 58/58/58 56/56/56
f 59/59/59 58/58/58 57/57/57
f 59/59/59 57/57/57 60/60/60
f 59/59/59 60/60/60 61/61/61
f 61/61/61 60/60/60 62/62/62
f 61/61/61 62/62/62 63/63/63
f 63/63/63 62/62/62 64/64/64
f 63/63/63 64/64/64 65/65/65
f 68/68/68 67/67/67 66/66/66
f 68/68/68 69/69/69 67/67/67
f 68/68/68 70/70/70 69/69/69
f 68/68/68 71/71/71 70/70/70
f 68/68/68 72/72/72 71/71/71
f 68/68/68 73/73/73 72/72/72
f 68/68/68 74/74/74 73/73/73
f 68/68/68 75/75/75 74/74/74
f 68/68/68 76/76/76 75/75/75
f 68/68/68 77/77/77 76/76/76
f 68/68/68 78/78/78 77/77/77
f 79/79/79 78/78/78 68/68/68
f 80/80/80 78/78/78 79/79/79
f 81/81/81 78/78/78 80/80/80
f 82/82/82 78/78/78 81/81/81
f 83/83/83 78/78/78 82/82/82
f 84/84/84 78/78/78 83/83/83
f 85/85/85 78/78/78 84/84/84
f 86/86/86 78/78/78 85/85/85
f 87/87/87 78/78/78 86/86/86
f 88/88/88 78/78/78 87/87/87
f 88/88/88 89/89/89 78/78/78
f 88/88/88 90/90/90 89/89/89
f 91/91/91 90/90/90 88/88/88
f 92/92/92 90/90/90 91/91/91
f 93/93/93 90/90/90 92/92/92
f 93/93/93 94/94/94 90/90/90
f 95/95/95 94/94/94 93/93/93
f 95/95/95 96/96/96 94/94/94
f 97/97/97 96/96/96 95/95/95
f 98/98/98 96/96/96 97/97/97
f 99/99/99 96/96/96 98/98/98
