g China_mountains_l_3
v 0.3299901 0.8262274 0
v 0.5647568 0.7376544 0
v 2.108911 0.8233633 0
v 0.7306885 0.6352704 0
v 0.8736743 0.4587471 0
v 0.8946048 0.4135512 0
v 0.9513443 0.291049 0
v 0.9831189 0.126882 0
v 1.110214 -0.3073672 0
v 0.9813525 -0.3038362 0
v 1.239078 -0.333846 0
v 1.371469 -0.4291681 0
v 1.463264 -0.5527353 0
v 2.411323 0.7961472 0
v 2.719781 0.6963516 0
v 3.010098 0.530025 0
v 1.50563 -0.6815966 0
v 3.267148 0.2669264 0
v 3.436499 -0.02338852 0
v 3.551412 -0.3983783 0
v 3.563512 -0.6282114 0
v 1.513783 -0.8294128 0
v 3.554322 -0.8294128 0
v -2.351655 0.6298205 0
v -1.689452 0.6352704 0
v -2.182305 0.7477609 0
v -1.98876 0.8082428 0
v -1.647037 0.8294128 0
v -1.594128 0.6176184 0
v -1.530579 0.5664254 0
v -0.9745303 0.4322682 0
v -1.053967 0.386371 0
v -1.505867 0.4834595 0
v -1.083975 0.3016405 0
v -1.528816 0.4057895 0
v -1.071617 0.2151436 0
v -0.8885333 -0.2831955 0
v -1.592365 0.3581276 0
v -1.687685 0.3387108 0
v -1.87168 -0.2200838 0
v -0.5720556 0.4322682 0
v -1.009834 0.1533608 0
v -1.941807 -0.172399 0
v -2.045592 -0.1780094 0
v -1.839424 -0.2860007 0
v -2.101689 -0.2313029 0
v -0.905361 -0.3505165 0
v -0.8464557 -0.2313029 0
v -0.9251022 0.1357072 0
v -0.5808811 0.1339425 0
v -1.839424 -0.3729564 0
v -0.7609042 -0.1990466 0
v -0.8973651 -0.4122502 0
v -0.8636832 -0.4636151 0
v -0.8015759 -0.4977771 0
v -1.884304 -0.4220437 0
v -1.943209 -0.4486897 0
v -0.4996814 0.165717 0
v -3.562673 -0.8294128 0
v 0.2881615 -0.4907657 0
v -2.042787 -0.4444835 0
v 0.3863362 -0.4865579 0
v -0.02306615 0.2274998 0
v -0.467907 0.2274998 0
v -0.4626111 0.2998741 0
v 0.01929994 0.1568903 0
v 0.1075616 0.126882 0
v -0.01953673 0.3228236 0
v 0.2187693 0.1251157 0
v -0.4926193 0.3704838 0
v 0.3428592 -0.1990466 0
v 0.02635878 0.3951979 0
v 0.4354236 -0.234108 0
v 0.1269783 0.4199103 0
v 0.3299901 0.8262274 0
v 0.5647568 0.7376544 0
v 0.7306885 0.6352704 0
v 0.8736743 0.4587471 0
v 0.8946048 0.4135512 0
v 0.477498 -0.2958188 0
v 0.9813525 -0.3038362 0
v 0.9831189 0.126882 0
v 0.4817058 -0.374359 0
v 0.453654 -0.4416783 0
v 1.371469 -0.4291681 0
v 1.110214 -0.3073672 0
v 1.239078 -0.333846 0
v 1.463264 -0.5527353 0
v 1.50563 -0.6815966 0
v 1.513783 -0.8294128 0
v -3.563395 -0.4874313 0
v -2.515585 -0.4838904 0
v -2.413198 -0.4485864 0
v -2.100287 -0.3982013 0
v -2.347886 -0.3832726 0
v -2.135351 -0.3084404 0
v -2.351416 -0.2791237 0
v -2.407903 -0.2138098 0
v -2.503226 -0.187331 0
v -2.557498 0.345791 0
v -2.94415 0.3243097 0
v -3.212662 0.1954254 0
v -3.388087 0.02000002 0
v -3.51339 -0.1912258 0
v 0.9831189 0.126882 0
v 0.9513443 0.291049 0
v 0.2187693 0.1251157 0
v 0.8946048 0.4135512 0
v 0.1269783 0.4199103 0
v 0.1075616 0.126882 0
v 0.02635878 0.3951979 0
v -0.01953673 0.3228236 0
v -0.02306615 0.2274998 0
v 0.01929994 0.1568903 0
v -0.4996814 0.165717 0
v -0.467907 0.2274998 0
v -0.5808811 0.1339425 0
v -0.4626111 0.2998741 0
v -0.4926193 0.3704838 0
v -0.5720556 0.4322682 0
v -0.9745303 0.4322682 0
v -0.9251022 0.1357072 0
v -1.009834 0.1533608 0
v -1.071617 0.2151436 0
v -1.083975 0.3016405 0
v -1.053967 0.386371 0
v -3.563395 -0.4874313 0
v -2.515585 -0.4838904 0
v -3.563512 -0.431095 0
v -3.51339 -0.1912258 0
v -2.503226 -0.187331 0
v -2.413198 -0.4485864 0
v -2.407903 -0.2138098 0
v -2.351416 -0.2791237 0
v -2.347886 -0.3832726 0
v -2.557498 0.345791 0
v -1.687685 0.3387108 0
v -2.454476 0.5058321 0
v -2.351655 0.6298205 0
v -1.689452 0.6352704 0
v -1.594128 0.6176184 0
v -1.592365 0.3581276 0
v -1.530579 0.5664254 0
v -1.505867 0.4834595 0
v -1.528816 0.4057895 0
v -2.135351 -0.3084404 0
v -2.100287 -0.3982013 0
v -2.101689 -0.2313029 0
v -2.042787 -0.4444835 0
v -1.943209 -0.4486897 0
v -2.045592 -0.1780094 0
v -1.941807 -0.172399 0
v -1.87168 -0.2200838 0
v -1.839424 -0.2860007 0
v -1.884304 -0.4220437 0
v -1.839424 -0.3729564 0
v 0.4354236 -0.234108 0
v 0.3428592 -0.1990466 0
v 0.477498 -0.2958188 0
v 0.4817058 -0.374359 0
v 0.453654 -0.4416783 0
v 0.3863362 -0.4865579 0
v 0.2881615 -0.4907657 0
v -0.7609042 -0.1990466 0
v -0.8464557 -0.2313029 0
v -0.8885333 -0.2831955 0
v -0.905361 -0.3505165 0
v -0.8973651 -0.4122502 0
v -0.8636832 -0.4636151 0
v -0.8015759 -0.4977771 0
vt 0.5445414 0.9791508
vt 0.5762299 0.9277848
vt 0.7846572 0.9774894
vt 0.5986271 0.8684096
vt 0.6179271 0.7660391
vt 0.6207523 0.7398291
vt 0.6284106 0.6687869
vt 0.6326995 0.5735824
vt 0.6498546 0.3217506
vt 0.632461 0.3237983
vt 0.6672486 0.3063947
vt 0.6851188 0.2511149
vt 0.6975087 0.1794553
vt 0.8254764 0.9617068
vt 0.8671117 0.9038326
vt 0.9062983 0.8073758
vt 0.7032275 0.1047252
vt 0.9409946 0.6547979
vt 0.9638533 0.4864367
vt 0.9793643 0.2689708
vt 0.9809973 0.1356848
vt 0.7043279 0.01900232
vt 0.979757 0.01900232
vt 0.1825767 0.865249
vt 0.27196 0.8684096
vt 0.2054354 0.9336462
vt 0.2315596 0.9687206
vt 0.2776853 0.9809976
vt 0.2848266 0.8581729
vt 0.2934045 0.8284849
vt 0.368459 0.750684
vt 0.357737 0.7240667
vt 0.2967398 0.7803712
vt 0.3536861 0.6749291
vt 0.2936426 0.7353281
vt 0.3553545 0.6247677
vt 0.3800668 0.335768
vt 0.2850646 0.7076878
vt 0.2721986 0.6964272
vt 0.2473628 0.372368
vt 0.4227847 0.750684
vt 0.3636939 0.5889384
vt 0.2378977 0.4000221
vt 0.2238885 0.3967679
vt 0.251717 0.3341414
vt 0.216317 0.3658616
vt 0.3777952 0.2967268
vt 0.3857462 0.3658616
vt 0.3751306 0.5787008
vt 0.4215934 0.5776769
vt 0.251717 0.283713
vt 0.3972939 0.384568
vt 0.3788746 0.2609259
vt 0.3834209 0.2311379
vt 0.391804 0.2113269
vt 0.2456592 0.2552461
vt 0.2377083 0.2397938
vt 0.4325535 0.5961035
vt 0.01911539 0.01900232
vt 0.5388955 0.2153929
vt 0.2242675 0.2422333
vt 0.5521469 0.2178333
vt 0.4968864 0.6319337
vt 0.4368424 0.6319337
vt 0.4375571 0.6739053
vt 0.5026047 0.5909852
vt 0.514518 0.5735824
vt 0.4973626 0.6872144
vt 0.529529 0.5725577
vt 0.4335067 0.7148529
vt 0.5462785 0.384568
vt 0.5035575 0.7291859
vt 0.5587726 0.364235
vt 0.5171391 0.7435171
vt 0.5445414 0.9791508
vt 0.5762299 0.9277848
vt 0.5986271 0.8684096
vt 0.6179271 0.7660391
vt 0.6207523 0.7398291
vt 0.5644515 0.3284478
vt 0.632461 0.3237983
vt 0.6326995 0.5735824
vt 0.5650198 0.2829002
vt 0.5612331 0.2438599
vt 0.6851188 0.2511149
vt 0.6498546 0.3217506
vt 0.6672486 0.3063947
vt 0.6975087 0.1794553
vt 0.7032275 0.1047252
vt 0.7043279 0.01900232
vt 0.01901814 0.2173269
vt 0.1604496 0.2193801
vt 0.1742698 0.2398534
vt 0.216506 0.2690736
vt 0.1830854 0.2777305
vt 0.211773 0.3211277
vt 0.1826092 0.3381295
vt 0.1749845 0.3760065
vt 0.162118 0.3913625
vt 0.1547923 0.7005336
vt 0.1026025 0.6880759
vt 0.06635937 0.6133329
vt 0.0426805 0.511599
vt 0.02576768 0.3891037
vt 0.6326995 0.5735824
vt 0.6284106 0.6687869
vt 0.529529 0.5725577
vt 0.6207523 0.7398291
vt 0.5171391 0.7435171
vt 0.514518 0.5735824
vt 0.5035575 0.7291859
vt 0.4973626 0.6872144
vt 0.4968864 0.6319337
vt 0.5026047 0.5909852
vt 0.4325535 0.5961035
vt 0.4368424 0.6319337
vt 0.4215934 0.5776769
vt 0.4375571 0.6739053
vt 0.4335067 0.7148529
vt 0.4227847 0.750684
vt 0.368459 0.750684
vt 0.3751306 0.5787008
vt 0.3636939 0.5889384
vt 0.3553545 0.6247677
vt 0.3536861 0.6749291
vt 0.357737 0.7240667
vt 0.01901814 0.2173269
vt 0.1604496 0.2193801
vt 0.01900208 0.2499975
vt 0.02576768 0.3891037
vt 0.162118 0.3913625
vt 0.1742698 0.2398534
vt 0.1749845 0.3760065
vt 0.1826092 0.3381295
vt 0.1830854 0.2777305
vt 0.1547923 0.7005336
vt 0.2721986 0.6964272
vt 0.1686983 0.7933455
vt 0.1825767 0.865249
vt 0.27196 0.8684096
vt 0.2848266 0.8581729
vt 0.2850646 0.7076878
vt 0.2934045 0.8284849
vt 0.2967398 0.7803712
vt 0.2936426 0.7353281
vt 0.211773 0.3211277
vt 0.216506 0.2690736
vt 0.216317 0.3658616
vt 0.2242675 0.2422333
vt 0.2377083 0.2397938
vt 0.2238885 0.3967679
vt 0.2378977 0.4000221
vt 0.2473628 0.372368
vt 0.251717 0.3341414
vt 0.2456592 0.2552461
vt 0.251717 0.283713
vt 0.5587726 0.364235
vt 0.5462785 0.384568
vt 0.5644515 0.3284478
vt 0.5650198 0.2829002
vt 0.5612331 0.2438599
vt 0.5521469 0.2178333
vt 0.5388955 0.2153929
vt 0.3972939 0.384568
vt 0.3857462 0.3658616
vt 0.3800668 0.335768
vt 0.3777952 0.2967268
vt 0.3788746 0.2609259
vt 0.3834209 0.2311379
vt 0.391804 0.2113269
vn 0 0 -1
vn 0 0 -1
vn 0 0 -1
vn 0 0 -1
vn 0 0 -1
vn 0 0 -1
vn 0 0 -1
vn 0 0 -1
vn 0 0 -1
vn 0 0 -1
vn 0 0 -1
vn 0 0 -1
vn 0 0 -1
vn 0 0 -1
vn 0 0 -1
vn 0 0 -1
vn 0 0 -1
vn 0 0 -1
vn 0 0 -1
vn 0 0 -1
vn 0 0 -1
vn 0 0 -1
vn 0 0 -1
vn 0 0 -1
vn 0 0 -1
vn 0 0 -1
vn 0 0 -1
vn 0 0 -1
vn 0 0 -1
vn 0 0 -1
vn 0 0 -1
vn 0 0 -1
vn 0 0 -1
vn 0 0 -1
vn 0 0 -1
vn 0 0 -1
vn 0 0 -1
vn 0 0 -1
vn 0 0 -1
vn 0 0 -1
vn 0 0 -1
vn 0 0 -1
vn 0 0 -1
vn 0 0 -1
vn 0 0 -1
vn 0 0 -1
vn 0 0 -1
vn 0 0 -1
vn 0 0 -1
vn 0 0 -1
vn 0 0 -1
vn 0 0 -1
vn 0 0 -1
vn 0 0 -1
vn 0 0 -1
vn 0 0 -1
vn 0 0 -1
vn 0 0 -1
vn 0 0 -1
vn 0 0 -1
vn 0 0 -1
vn 0 0 -1
vn 0 0 -1
vn 0 0 -1
vn 0 0 -1
vn 0 0 -1
vn 0 0 -1
vn 0 0 -1
vn 0 0 -1
vn 0 0 -1
vn 0 0 -1
vn 0 0 -1
vn 0 0 -1
vn 0 0 -1
vn 0 0 -1
vn 0 0 -1
vn 0 0 -1
vn 0 0 -1
vn 0 0 -1
vn 0 0 -1
vn 0 0 -1
vn 0 0 -1
vn 0 0 -1
vn 0 0 -1
vn 0 0 -1
vn 0 0 -1
vn 0 0 -1
vn 0 0 -1
vn 0 0 -1
vn 0 0 -1
vn 0 0 -1
vn 0 0 -1
vn 0 0 -1
vn 0 0 -1
vn 0 0 -1
vn 0 0 -1
vn 0 0 -1
vn 0 0 -1
vn 0 0 -1
vn 0 0 -1
vn 0 0 -1
vn 0 0 -1
vn 0 0 -1
vn 0 0 -1
vn 0 0 -1
vn 0 0 -1
vn 0 0 -1
vn 0 0 -1
vn 0 0 -1
vn 0 0 -1
vn 0 0 -1
vn 0 0 -1
vn 0 0 -1
vn 0 0 -1
vn 0 0 -1
vn 0 0 -1
vn 0 0 -1
vn 0 0 -1
vn 0 0 -1
vn 0 0 -1
vn 0 0 -1
vn 0 0 -1
vn 0 0 -1
vn 0 0 -1
vn 0 0 -1
vn 0 0 -1
vn 0 0 -1
vn 0 0 -1
vn 0 0 -1
vn 0 0 -1
vn 0 0 -1
vn 0 0 -1
vn 0 0 -1
vn 0 0 -1
vn 0 0 -1
vn 0 0 -1
vn 0 0 -1
vn 0 0 -1
vn 0 0 -1
vn 0 0 -1
vn 0 0 -1
vn 0 0 -1
vn 0 0 -1
vn 0 0 -1
vn 0 0 -1
vn 0 0 -1
vn 0 0 -1
vn 0 0 -1
vn 0 0 -1
vn 0 0 -1
vn 0 0 -1
vn 0 0 -1
vn 0 0 -1
vn 0 0 -1
vn 0 0 -1
vn 0 0 -1
vn 0 0 -1
vn 0 0 -1
vn 0 0 -1
vn 0 0 -1
vn 0 0 -1
vn 0 0 -1
vn 0 0 -1
vn 0 0 -1
vn 0 0 -1
vn 0 0 -1
vn 0 0 -1
vn 0 0 -1
vn 0 0 -1
vn 0 0 -1
g China_mountains_l_3_0
f 3/3/3 2/2/2 1/1/1
f 3/3/3 4/4/4 2/2/2
f 3/3/3 5/5/5 4/4/4
f 3/3/3 6/6/6 5/5/5
f 3/3/3 7/7/7 6/6/6
f 3/3/3 8/8/8 7/7/7
f 8/8/8 3/3/3 9/9/9
f 8/8/8 9/9/9 10/10/10
f 9/9/9 3/3/3 11/11/11
f 11/11/11 3/3/3 12/12/12
f 12/12/12 3/3/3 13/13/13
f 13/13/13 3/3/3 14/14/14
f 13/13/13 14/14/14 15/15/15
f 13/13/13 15/15/15 16/16/16
f 13/13/13 16/16/16 17/17/17
f 17/17/17 16/16/16 18/18/18
f 17/17/17 18/18/18 19/19/19
f 17/17/17 19/19/19 20/20/20
f 17/17/17 20/20/20 21/21/21
f 17/17/17 21/21/21 22/22/22
f 22/22/22 21/21/21 23/23/23
f 26/26/26 25/25/25 24/24/24
f 27/27/27 25/25/25 26/26/26
f 28/28/28 25/25/25 27/27/27
f 28/28/28 29/29/29 25/25/25
f 28/28/28 30/30/30 29/29/29
f 28/28/28 31/31/31 30/30/30
f 30/30/30 31/31/31 32/32/32
f 30/30/30 32/32/32 33/33/33
f 34/34/34 33/33/33 32/32/32
f 34/34/34 35/35/35 33/33/33
f 36/36/36 35/35/35 34/34/34
f 36/36/36 37/37/37 35/35/35
f 35/35/35 37/37/37 38/38/38
f 38/38/38 37/37/37 39/39/39
f 39/39/39 37/37/37 40/40/40
f 31/31/31 28/28/28 41/41/41
f 42/42/42 37/37/37 36/36/36
f 39/39/39 40/40/40 43/43/43
f 39/39/39 43/43/43 44/44/44
f 40/40/40 37/37/37 45/45/45
f 39/39/39 44/44/44 46/46/46
f 45/45/45 37/37/37 47/47/47
f 42/42/42 48/48/48 37/37/37
f 49/49/49 48/48/48 42/42/42
f 50/50/50 48/48/48 49/49/49
f 47/47/47 51/51/51 45/45/45
f 50/50/50 52/52/52 48/48/48
f 51/51/51 47/47/47 53/53/53
f 51/51/51 53/53/53 54/54/54
f 51/51/51 54/54/54 55/55/55
f 55/55/55 56/56/56 51/51/51
f 55/55/55 57/57/57 56/56/56
f 58/58/58 52/52/52 50/50/50
f 59/59/59 57/57/57 55/55/55
f 59/59/59 55/55/55 60/60/60
f 59/59/59 61/61/61 57/57/57
f 59/59/59 60/60/60 62/62/62
f 52/52/52 58/58/58 63/63/63
f 63/63/63 58/58/58 64/64/64
f 65/65/65 63/63/63 64/64/64
f 52/52/52 63/63/63 66/66/66
f 52/52/52 66/66/66 67/67/67
f 65/65/65 68/68/68 63/63/63
f 52/52/52 67/67/67 69/69/69
f 70/70/70 68/68/68 65/65/65
f 41/41/41 68/68/68 70/70/70
f 52/52/52 69/69/69 71/71/71
f 41/41/41 28/28/28 68/68/68
f 68/68/68 28/28/28 72/72/72
f 71/71/71 69/69/69 73/73/73
f 72/72/72 28/28/28 74/74/74
f 74/74/74 28/28/28 75/75/75
f 74/74/74 75/75/75 76/76/76
f 74/74/74 76/76/76 77/77/77
f 74/74/74 77/77/77 78/78/78
f 74/74/74 78/78/78 79/79/79
f 73/73/73 69/69/69 80/80/80
f 80/80/80 69/69/69 81/81/81
f 81/81/81 69/69/69 82/82/82
f 81/81/81 83/83/83 80/80/80
f 81/81/81 84/84/84 83/83/83
f 81/81/81 62/62/62 84/84/84
f 85/85/85 62/62/62 81/81/81
f 85/85/85 81/81/81 86/86/86
f 85/85/85 86/86/86 87/87/87
f 59/59/59 62/62/62 85/85/85
f 59/59/59 85/85/85 88/88/88
f 59/59/59 88/88/88 89/89/89
f 59/59/59 89/89/89 90/90/90
f 92/92/92 59/59/59 91/91/91
f 92/92/92 61/61/61 59/59/59
f 61/61/61 92/92/92 93/93/93
f 61/61/61 93/93/93 94/94/94
f 94/94/94 93/93/93 95/95/95
f 96/96/96 94/94/94 95/95/95
f 96/96/96 95/95/95 97/97/97
f 97/97/97 46/46/46 96/96/96
f 39/39/39 46/46/46 97/97/97
f 39/39/39 97/97/97 98/98/98
f 39/39/39 98/98/98 99/99/99
f 39/39/39 99/99/99 100/100/100
f 100/100/100 99/99/99 101/101/101
f 101/101/101 99/99/99 102/102/102
f 102/102/102 99/99/99 103/103/103
f 103/103/103 99/99/99 104/104/104
f 107/107/107 106/106/106 105/105/105
f 107/107/107 108/108/108 106/106/106
f 107/107/107 109/109/109 108/108/108
f 110/110/110 109/109/109 107/107/107
f 110/110/110 111/111/111 109/109/109
f 110/110/110 112/112/112 111/111/111
f 110/110/110 113/113/113 112/112/112
f 114/114/114 113/113/113 110/110/110
f 117/117/117 116/116/116 115/115/115
f 117/117/117 118/118/118 116/116/116
f 117/117/117 119/119/119 118/118/118
f 117/117/117 120/120/120 119/119/119
f 117/117/117 121/121/121 120/120/120
f 122/122/122 121/121/121 117/117/117
f 123/123/123 121/121/121 122/122/122
f 124/124/124 121/121/121 123/123/123
f 125/125/125 121/121/121 124/124/124
f 126/126/126 121/121/121 125/125/125
f 129/129/129 128/128/128 127/127/127
f 130/130/130 128/128/128 129/129/129
f 131/131/131 128/128/128 130/130/130
f 131/131/131 132/132/132 128/128/128
f 133/133/133 132/132/132 131/131/131
f 134/134/134 132/132/132 133/133/133
f 135/135/135 132/132/132 134/134/134
f 138/138/138 137/137/137 136/136/136
f 139/139/139 137/137/137 138/138/138
f 140/140/140 137/137/137 139/139/139
f 141/141/141 137/137/137 140/140/140
f 141/141/141 142/142/142 137/137/137
f 143/143/143 142/142/142 141/141/141
f 144/144/144 142/142/142 143/143/143
f 145/145/145 142/142/142 144/144/144
f 148/148/148 147/147/147 146/146/146
f 148/148/148 149/149/149 147/147/147
f 148/148/148 150/150/150 149/149/149
f 151/151/151 150/150/150 148/148/148
f 152/152/152 150/150/150 151/151/151
f 153/153/153 150/150/150 152/152/152
f 154/154/154 150/150/150 153/153/153
f 154/154/154 155/155/155 150/150/150
f 156/156/156 155/155/155 154/154/154
f 159/159/159 158/158/158 157/157/157
f 160/160/160 158/158/158 159/159/159
f 161/161/161 158/158/158 160/160/160
f 162/162/162 158/158/158 161/161/161
f 163/163/163 158/158/158 162/162/162
f 163/163/163 164/164/164 158/158/158
f 163/163/163 165/165/165 164/164/164
f 163/163/163 166/166/166 165/165/165
f 163/163/163 167/167/167 166/166/166
f 163/163/163 168/168/168 167/167/167
f 163/163/163 169/169/169 168/168/168
f 169/169/169 163/163/163 170/170/170
