g China_mountains_r_4_bush_1
v 2.190325 -1.0015 0
v 2.110543 -0.8491218 0
v -1.195651 -1.001499 0
v 1.992254 -0.7135826 0
v 1.849322 -0.6002226 0
v 1.70639 -0.5336851 0
v 1.600422 -0.4893265 0
v -1.176187 -0.8576561 0
v -1.135316 -0.7000074 0
v -1.039948 -0.5131648 0
v -0.9153863 -0.3535703 0
v -0.7343826 -0.2153848 0
v -0.5631101 -0.1297484 0
v -0.3743207 -0.1005542 0
v 1.634923 -0.3685735 0
v 1.654819 -0.2238679 0
v 1.651226 0.02408055 0
v 1.55444 0.2517217 0
v 1.455179 0.4191019 0
v 1.293639 0.5864818 0
v 1.102903 0.7149357 0
v 0.8927051 0.7986259 0
v 0.6766687 0.835605 0
v 0.4372762 0.8219813 0
v 0.2056694 0.7460762 0
v 0.02661214 0.6292995 0
v -0.1466061 0.4794362 0
v -0.2400275 0.3412507 0
v -0.3626436 0.04152405 0
v -0.3178787 0.1913874 0
v 2.613603 -1.001499 0
v 2.59271 -0.7916334 0
v 2.190325 -1.0015 0
v 2.110543 -0.8491218 0
v 2.506468 -0.5975868 0
v 2.351949 -0.4179144 0
v 1.992254 -0.7135826 0
v 2.143528 -0.2849568 0
v 1.849322 -0.6002226 0
v 1.891987 -0.2094942 0
v 1.70639 -0.5336851 0
v 1.654819 -0.2238679 0
v 1.634923 -0.3685735 0
v 1.600422 -0.4893265 0
v 1.651226 0.02408055 0
v 1.58295 0.289996 0
v 1.55444 0.2517217 0
v 1.455179 0.4191019 0
v 1.428431 0.5559114 0
v 1.293639 0.5864818 0
v 1.148142 0.8182335 0
v 1.102903 0.7149357 0
v 0.8927051 0.7986259 0
v 0.8498852 0.9619719 0
v 0.6766687 0.835605 0
v 0.5588156 1.0015 0
v 0.4372762 0.8219813 0
v 0.2138441 0.9763457 0
v 0.2056694 0.7460762 0
v 0.02661214 0.6292995 0
v -0.09159954 0.8469813 0
v -0.2784595 0.6996498 0
v -0.1466061 0.4794362 0
v -0.4473512 0.5020096 0
v -0.2400275 0.3412507 0
v -0.5371875 0.3438978 0
v -0.3178787 0.1913874 0
v -0.6054629 0.153445 0
v -0.3626436 0.04152405 0
v -0.3743207 -0.1005542 0
v -0.5631101 -0.1297484 0
v -0.7343826 -0.2153848 0
v -0.8749725 0.178599 0
v -0.9153863 -0.3535703 0
v -1.169636 0.1426646 0
v -1.428364 0.01330019 0
v -1.039948 -0.5131648 0
v -1.618817 -0.1663727 0
v -1.135316 -0.7000074 0
v -1.78771 -0.4071341 0
v -1.176187 -0.8576561 0
v -1.195651 -1.001499 0
v -2.035658 -0.3819797 0
v -2.280013 -0.4574422 0
v -2.474059 -0.6155543 0
v -2.578269 -0.820381 0
v -2.613603 -1.001499 0
vt 0.9030992 0.01900226
vt 0.8884162 0.09218588
vt 0.2799568 0.01900238
vt 0.8666468 0.1572824
vt 0.8403422 0.2117267
vt 0.8140374 0.2436831
vt 0.7945356 0.2649875
vt 0.2835389 0.08808717
vt 0.2910608 0.1638022
vt 0.3086118 0.2535385
vt 0.3315356 0.3301882
vt 0.3648469 0.3965555
vt 0.3963672 0.4376847
vt 0.4311113 0.451706
vt 0.800885 0.3229824
vt 0.8045466 0.3924813
vt 0.8038853 0.5115653
vt 0.786073 0.6208962
vt 0.7678056 0.701285
vt 0.7380763 0.7816737
vt 0.702974 0.8433675
vt 0.6642899 0.8835619
vt 0.6245314 0.901322
vt 0.5804746 0.8947788
vt 0.5378506 0.8583234
vt 0.5048974 0.8022381
vt 0.4730191 0.7302623
vt 0.4558261 0.663895
vt 0.4332603 0.5199431
vt 0.4414987 0.5919189
vt 0.9809976 0.01900238
vt 0.9771526 0.1197963
vt 0.9030992 0.01900226
vt 0.8884162 0.09218588
vt 0.9612808 0.2129925
vt 0.9328437 0.2992851
vt 0.8666468 0.1572824
vt 0.8944869 0.3631417
vt 0.8403422 0.2117267
vt 0.848194 0.3993846
vt 0.8140374 0.2436831
vt 0.8045466 0.3924813
vt 0.800885 0.3229824
vt 0.7945356 0.2649875
vt 0.8038853 0.5115653
vt 0.79132 0.6392785
vt 0.786073 0.6208962
vt 0.7678056 0.701285
vt 0.7628831 0.7669916
vt 0.7380763 0.7816737
vt 0.7112997 0.8929788
vt 0.702974 0.8433675
vt 0.6642899 0.8835619
vt 0.6564096 0.9620132
vt 0.6245314 0.901322
vt 0.6028423 0.9809976
vt 0.5804746 0.8947788
vt 0.5393549 0.9689167
vt 0.5378506 0.8583234
vt 0.5048974 0.8022381
vt 0.4831422 0.9067857
vt 0.4487533 0.836026
vt 0.4730191 0.7302623
vt 0.4176711 0.7411038
vt 0.4558261 0.663895
vt 0.4011379 0.6651663
vt 0.4414987 0.5919189
vt 0.3885727 0.573696
vt 0.4332603 0.5199431
vt 0.4311113 0.451706
vt 0.3963672 0.4376847
vt 0.3648469 0.3965555
vt 0.3389732 0.5857769
vt 0.3315356 0.3301882
vt 0.2847446 0.5685185
vt 0.2371292 0.5063878
vt 0.3086118 0.2535385
vt 0.2020789 0.4200949
vt 0.2910608 0.1638022
vt 0.1709965 0.3044627
vt 0.2835389 0.08808717
vt 0.2799568 0.01900238
vt 0.1253651 0.3165438
vt 0.08039495 0.2803008
vt 0.04468331 0.2043632
vt 0.02550489 0.1059894
vt 0.01900238 0.01900238
vn 0 0 -1
vn 0 0 -1
vn 0 0 -1
vn 0 0 -1
vn 0 0 -1
vn 0 0 -1
vn 0 0 -1
vn 0 0 -1
vn 0 0 -1
vn 0 0 -1
vn 0 0 -1
vn 0 0 -1
vn 0 0 -1
vn 0 0 -1
vn 0 0 -1
vn 0 0 -1
vn 0 0 -1
vn 0 0 -1
vn 0 0 -1
vn 0 0 -1
vn 0 0 -1
vn 0 0 -1
vn 0 0 -1
vn 0 0 -1
vn 0 0 -1
vn 0 0 -1
vn 0 0 -1
vn 0 0 -1
vn 0 0 -1
vn 0 0 -1
vn 0 0 -1
vn 0 0 -1
vn 0 0 -1
vn 0 0 -1
vn 0 0 -1
vn 0 0 -1
vn 0 0 -1
vn 0 0 -1
vn 0 0 -1
vn 0 0 -1
vn 0 0 -1
vn 0 0 -1
vn 0 0 -1
vn 0 0 -1
vn 0 0 -1
vn 0 0 -1
vn 0 0 -1
vn 0 0 -1
vn 0 0 -1
vn 0 0 -1
vn 0 0 -1
vn 0 0 -1
vn 0 0 -1
vn 0 0 -1
vn 0 0 -1
vn 0 0 -1
vn 0 0 -1
vn 0 0 -1
vn 0 0 -1
vn 0 0 -1
vn 0 0 -1
vn 0 0 -1
vn 0 0 -1
vn 0 0 -1
vn 0 0 -1
vn 0 0 -1
vn 0 0 -1
vn 0 0 -1
vn 0 0 -1
vn 0 0 -1
vn 0 0 -1
vn 0 0 -1
vn 0 0 -1
vn 0 0 -1
vn 0 0 -1
vn 0 0 -1
vn 0 0 -1
vn 0 0 -1
vn 0 0 -1
vn 0 0 -1
vn 0 0 -1
vn 0 0 -1
vn 0 0 -1
vn 0 0 -1
vn 0 0 -1
vn 0 0 -1
vn 0 0 -1
g China_mountains_r_4_bush_1_0
f 3/3/3 2/2/2 1/1/1
f 3/3/3 4/4/4 2/2/2
f 3/3/3 5/5/5 4/4/4
f 3/3/3 6/6/6 5/5/5
f 3/3/3 7/7/7 6/6/6
f 8/8/8 7/7/7 3/3/3
f 9/9/9 7/7/7 8/8/8
f 10/10/10 7/7/7 9/9/9
f 11/11/11 7/7/7 10/10/10
f 12/12/12 7/7/7 11/11/11
f 13/13/13 7/7/7 12/12/12
f 14/14/14 7/7/7 13/13/13
f 14/14/14 15/15/15 7/7/7
f 14/14/14 16/16/16 15/15/15
f 14/14/14 17/17/17 16/16/16
f 14/14/14 18/18/18 17/17/17
f 14/14/14 19/19/19 18/18/18
f 14/14/14 20/20/20 19/19/19
f 14/14/14 21/21/21 20/20/20
f 14/14/14 22/22/22 21/21/21
f 14/14/14 23/23/23 22/22/22
f 14/14/14 24/24/24 23/23/23
f 14/14/14 25/25/25 24/24/24
f 14/14/14 26/26/26 25/25/25
f 14/14/14 27/27/27 26/26/26
f 14/14/14 28/28/28 27/27/27
f 29/29/29 28/28/28 14/14/14
f 30/30/30 28/28/28 29/29/29
f 33/33/33 32/32/32 31/31/31
f 34/34/34 32/32/32 33/33/33
f 34/34/34 35/35/35 32/32/32
f 34/34/34 36/36/36 35/35/35
f 37/37/37 36/36/36 34/34/34
f 37/37/37 38/38/38 36/36/36
f 39/39/39 38/38/38 37/37/37
f 39/39/39 40/40/40 38/38/38
f 41/41/41 40/40/40 39/39/39
f 41/41/41 42/42/42 40/40/40
f 41/41/41 43/43/43 42/42/42
f 44/44/44 43/43/43 41/41/41
f 47/47/47 46/46/46 45/45/45
f 48/48/48 46/46/46 47/47/47
f 48/48/48 49/49/49 46/46/46
f 50/50/50 49/49/49 48/48/48
f 50/50/50 51/51/51 49/49/49
f 52/52/52 51/51/51 50/50/50
f 52/52/52 53/53/53 51/51/51
f 51/51/51 53/53/53 54/54/54
f 54/54/54 53/53/53 55/55/55
f 54/54/54 55/55/55 56/56/56
f 56/56/56 55/55/55 57/57/57
f 56/56/56 57/57/57 58/58/58
f 58/58/58 57/57/57 59/59/59
f 58/58/58 59/59/59 60/60/60
f 58/58/58 60/60/60 61/61/61
f 61/61/61 60/60/60 62/62/62
f 62/62/62 60/60/60 63/63/63
f 62/62/62 63/63/63 64/64/64
f 64/64/64 63/63/63 65/65/65
f 64/64/64 65/65/65 66/66/66
f 66/66/66 65/65/65 67/67/67
f 66/66/66 67/67/67 68/68/68
f 68/68/68 67/67/67 69/69/69
f 68/68/68 69/69/69 70/70/70
f 68/68/68 70/70/70 71/71/71
f 68/68/68 71/71/71 72/72/72
f 68/68/68 72/72/72 73/73/73
f 73/73/73 72/72/72 74/74/74
f 73/73/73 74/74/74 75/75/75
f 75/75/75 74/74/74 76/76/76
f 76/76/76 74/74/74 77/77/77
f 76/76/76 77/77/77 78/78/78
f 78/78/78 77/77/77 79/79/79
f 78/78/78 79/79/79 80/80/80
f 80/80/80 79/79/79 81/81/81
f 80/80/80 81/81/81 82/82/82
f 80/80/80 82/82/82 83/83/83
f 83/83/83 82/82/82 84/84/84
f 84/84/84 82/82/82 85/85/85
f 85/85/85 82/82/82 86/86/86
f 86/86/86 82/82/82 87/87/87
