g China_mountains_l_4
v 0.2222559 1.046746 0
v 0.413426 1.002367 0
v 0.6521972 1.046746 0
v 0.5772848 0.9351431 0
v 0.7285385 0.8217019 0
v 0.8853305 0.9957492 0
v 0.8839951 0.6809521 0
v 1.134854 0.8627908 0
v 0.9806296 0.5107913 0
v 1.32063 0.7006915 0
v 1.045753 0.3322265 0
v 1.453589 0.5039865 0
v 1.561048 0.2744975 0
v 1.079365 0.1284544 0
v 1.079822 0.04310938 0
v 1.081063 -0.1882115 0
v 1.085667 -1.046746 0
v 2.006118 -1.046746 0
v -0.8479812 0.4159331 0
v -0.6172534 0.3828328 0
v -0.4472287 0.4179468 0
v -0.4657098 0.3163016 0
v -0.2587211 0.377288 0
v -0.3123163 0.1924771 0
v -0.09239136 0.3070602 0
v -0.1977348 0.02614885 0
v 0.04621605 0.1869339 0
v 0.1460129 0.05017313 0
v -0.1312018 -0.1438776 0
v 0.2365702 -0.140181 0
v -0.0905447 -0.3323834 0
v 0.2679892 -0.3619542 0
v 0.3992035 -0.4599028 0
v 0.5285711 -0.5929669 0
v 0.6209766 -0.7740814 0
v -0.04988434 -1.046746 0
v 0.6671802 -0.9404113 0
v 0.67457 -1.046746 0
v 1.079822 0.04310938 0
v 1.079365 0.1284544 0
v 0.726315 0.04516083 0
v 1.045753 0.3322265 0
v 0.6251239 0.311563 0
v 0.6416452 -0.0002709696 0
v 0.7040588 0.3613057 0
v 0.9806296 0.5107913 0
v 0.7175589 0.4363049 0
v 0.6965591 0.4948025 0
v 0.6499051 0.5428576 0
v 0.8839951 0.6809521 0
v 0.7285385 0.8217019 0
v 0.2595966 0.5428576 0
v 0.5772848 0.9351431 0
v 0.413426 1.002367 0
v 0.2222559 1.046746 0
v -0.06541114 1.046746 0
v 0.1790558 0.5242715 0
v 0.1171026 0.4829689 0
v -0.3112921 1.003034 0
v -0.5134618 0.8955755 0
v -0.4472287 0.4179468 0
v -0.6482416 0.7753665 0
v -0.7593426 0.6078027 0
v -0.8479812 0.4159331 0
v -0.2587211 0.377288 0
v -0.09239136 0.3070602 0
v 0.1088411 0.4086235 0
v 0.04621605 0.1869339 0
v 0.156339 0.3384088 0
v 0.2389445 0.3053676 0
v 0.1460129 0.05017313 0
v 0.6189285 -0.08081177 0
v 0.2365702 -0.140181 0
v 0.6499051 -0.153091 0
v 0.2679892 -0.3619542 0
v 0.3992035 -0.4599028 0
v 0.7366412 -0.1881984 0
v 0.5285711 -0.5929669 0
v 0.6209766 -0.7740814 0
v 1.081063 -0.1882115 0
v 0.6671802 -0.9404113 0
v 0.67457 -1.046746 0
v 1.085667 -1.046746 0
v -2.006118 -1.046746 0
v -0.04988434 -1.046746 0
v -1.669689 -0.08973198 0
v -0.0905447 -0.3323834 0
v -0.1312018 -0.1438776 0
v -1.564343 0.09989136 0
v -1.416856 0.250388 0
v -1.233251 0.3617546 0
v -1.028576 0.4159331 0
v -0.6172534 0.3828328 0
v -0.4657098 0.3163016 0
v -0.1977348 0.02614885 0
v -0.3123163 0.1924771 0
v 1.081063 -0.1882115 0
v 1.079822 0.04310938 0
v 0.7366412 -0.1881984 0
v 0.726315 0.04516083 0
v 0.6499051 -0.153091 0
v 0.6189285 -0.08081177 0
v 0.6416452 -0.0002709696 0
v 0.1171026 0.4829689 0
v 0.1088411 0.4086235 0
v 0.1790558 0.5242715 0
v 0.156339 0.3384088 0
v 0.2389445 0.3053676 0
v 0.2595966 0.5428576 0
v 0.6251239 0.311563 0
v 0.7040588 0.3613057 0
v 0.7175589 0.4363049 0
v 0.6965591 0.4948025 0
v 0.6499051 0.5428576 0
vt 0.5532894 0.980998
vt 0.5991255 0.9606049
vt 0.6563745 0.980998
vt 0.6384131 0.9297141
vt 0.6746786 0.8775862
vt 0.7122717 0.9575636
vt 0.7119516 0.8129092
vt 0.7720987 0.896467
vt 0.7351213 0.7347176
vt 0.8166413 0.8219799
vt 0.7507354 0.652664
vt 0.8485206 0.7315905
vt 0.8742853 0.6261365
vt 0.7587946 0.559027
vt 0.7589042 0.5198095
vt 0.7592015 0.4135138
vt 0.7603056 0.0190028
vt 0.980998 0.0190028
vt 0.2966837 0.6911286
vt 0.3520042 0.6759186
vt 0.3927702 0.6920539
vt 0.388339 0.6453461
vt 0.4379679 0.6733704
vt 0.4251175 0.5884466
vt 0.4778481 0.6410993
vt 0.4525903 0.512016
vt 0.5110811 0.5858994
vt 0.5350091 0.5230554
vt 0.4685426 0.4338858
vt 0.5567214 0.4355844
vt 0.4782908 0.3472643
vt 0.5642545 0.3336763
vt 0.5957154 0.2886671
vt 0.6267333 0.2275218
vt 0.6488888 0.1442967
vt 0.4880394 0.0190028
vt 0.6599667 0.0678651
vt 0.6617388 0.0190028
vt 0.7589042 0.5198095
vt 0.7587946 0.559027
vt 0.6741452 0.5207522
vt 0.7507354 0.652664
vt 0.6498833 0.6431686
vt 0.6538442 0.4998756
vt 0.6688089 0.6660264
vt 0.7351213 0.7347176
vt 0.6720461 0.7004896
vt 0.6670108 0.7273703
vt 0.655825 0.7494524
vt 0.7119516 0.8129092
vt 0.6746786 0.8775862
vt 0.5622425 0.7494524
vt 0.6384131 0.9297141
vt 0.5991255 0.9606049
vt 0.5532894 0.980998
vt 0.4843169 0.980998
vt 0.5429316 0.7409121
vt 0.5280774 0.7219327
vt 0.4253629 0.9609114
vt 0.37689 0.911532
vt 0.3927702 0.6920539
vt 0.3445744 0.856294
vt 0.3179359 0.7792959
vt 0.2966837 0.6911286
vt 0.4379679 0.6733704
vt 0.4778481 0.6410993
vt 0.5260967 0.6877695
vt 0.5110811 0.5858994
vt 0.5374848 0.6555048
vt 0.5572907 0.6403218
vt 0.5350091 0.5230554
vt 0.6483979 0.4628656
vt 0.5567214 0.4355844
vt 0.655825 0.4296523
vt 0.5642545 0.3336763
vt 0.5957154 0.2886671
vt 0.6766213 0.4135198
vt 0.6267333 0.2275218
vt 0.6488888 0.1442967
vt 0.7592015 0.4135138
vt 0.6599667 0.0678651
vt 0.6617388 0.0190028
vt 0.7603056 0.0190028
vt 0.01900277 0.0190028
vt 0.4880394 0.0190028
vt 0.09966645 0.458767
vt 0.4782908 0.3472643
vt 0.4685426 0.4338858
vt 0.1249251 0.5459017
vt 0.160287 0.6150576
vt 0.2043094 0.6662323
vt 0.2533832 0.6911286
vt 0.3520042 0.6759186
vt 0.388339 0.6453461
vt 0.4525903 0.512016
vt 0.4251175 0.5884466
vt 0.7592015 0.4135138
vt 0.7589042 0.5198095
vt 0.6766213 0.4135198
vt 0.6741452 0.5207522
vt 0.655825 0.4296523
vt 0.6483979 0.4628656
vt 0.6538442 0.4998756
vt 0.5280774 0.7219327
vt 0.5260967 0.6877695
vt 0.5429316 0.7409121
vt 0.5374848 0.6555048
vt 0.5572907 0.6403218
vt 0.5622425 0.7494524
vt 0.6498833 0.6431686
vt 0.6688089 0.6660264
vt 0.6720461 0.7004896
vt 0.6670108 0.7273703
vt 0.655825 0.7494524
vn 0 0 -1
vn 0 0 -1
vn 0 0 -1
vn 0 0 -1
vn 0 0 -1
vn 0 0 -1
vn 0 0 -1
vn 0 0 -1
vn 0 0 -1
vn 0 0 -1
vn 0 0 -1
vn 0 0 -1
vn 0 0 -1
vn 0 0 -1
vn 0 0 -1
vn 0 0 -1
vn 0 0 -1
vn 0 0 -1
vn 0 0 -1
vn 0 0 -1
vn 0 0 -1
vn 0 0 -1
vn 0 0 -1
vn 0 0 -1
vn 0 0 -1
vn 0 0 -1
vn 0 0 -1
vn 0 0 -1
vn 0 0 -1
vn 0 0 -1
vn 0 0 -1
vn 0 0 -1
vn 0 0 -1
vn 0 0 -1
vn 0 0 -1
vn 0 0 -1
vn 0 0 -1
vn 0 0 -1
vn 0 0 -1
vn 0 0 -1
vn 0 0 -1
vn 0 0 -1
vn 0 0 -1
vn 0 0 -1
vn 0 0 -1
vn 0 0 -1
vn 0 0 -1
vn 0 0 -1
vn 0 0 -1
vn 0 0 -1
vn 0 0 -1
vn 0 0 -1
vn 0 0 -1
vn 0 0 -1
vn 0 0 -1
vn 0 0 -1
vn 0 0 -1
vn 0 0 -1
vn 0 0 -1
vn 0 0 -1
vn 0 0 -1
vn 0 0 -1
vn 0 0 -1
vn 0 0 -1
vn 0 0 -1
vn 0 0 -1
vn 0 0 -1
vn 0 0 -1
vn 0 0 -1
vn 0 0 -1
vn 0 0 -1
vn 0 0 -1
vn 0 0 -1
vn 0 0 -1
vn 0 0 -1
vn 0 0 -1
vn 0 0 -1
vn 0 0 -1
vn 0 0 -1
vn 0 0 -1
vn 0 0 -1
vn 0 0 -1
vn 0 0 -1
vn 0 0 -1
vn 0 0 -1
vn 0 0 -1
vn 0 0 -1
vn 0 0 -1
vn 0 0 -1
vn 0 0 -1
vn 0 0 -1
vn 0 0 -1
vn 0 0 -1
vn 0 0 -1
vn 0 0 -1
vn 0 0 -1
vn 0 0 -1
vn 0 0 -1
vn 0 0 -1
vn 0 0 -1
vn 0 0 -1
vn 0 0 -1
vn 0 0 -1
vn 0 0 -1
vn 0 0 -1
vn 0 0 -1
vn 0 0 -1
vn 0 0 -1
vn 0 0 -1
vn 0 0 -1
vn 0 0 -1
vn 0 0 -1
vn 0 0 -1
vn 0 0 -1
g China_mountains_l_4_0
f 3/3/3 2/2/2 1/1/1
f 3/3/3 4/4/4 2/2/2
f 4/4/4 3/3/3 5/5/5
f 5/5/5 3/3/3 6/6/6
f 5/5/5 6/6/6 7/7/7
f 7/7/7 6/6/6 8/8/8
f 7/7/7 8/8/8 9/9/9
f 9/9/9 8/8/8 10/10/10
f 9/9/9 10/10/10 11/11/11
f 11/11/11 10/10/10 12/12/12
f 11/11/11 12/12/12 13/13/13
f 11/11/11 13/13/13 14/14/14
f 14/14/14 13/13/13 15/15/15
f 15/15/15 13/13/13 16/16/16
f 16/16/16 13/13/13 17/17/17
f 17/17/17 13/13/13 18/18/18
f 21/21/21 20/20/20 19/19/19
f 21/21/21 22/22/22 20/20/20
f 23/23/23 22/22/22 21/21/21
f 22/22/22 23/23/23 24/24/24
f 24/24/24 23/23/23 25/25/25
f 24/24/24 25/25/25 26/26/26
f 26/26/26 25/25/25 27/27/27
f 26/26/26 27/27/27 28/28/28
f 26/26/26 28/28/28 29/29/29
f 29/29/29 28/28/28 30/30/30
f 29/29/29 30/30/30 31/31/31
f 31/31/31 30/30/30 32/32/32
f 31/31/31 32/32/32 33/33/33
f 31/31/31 33/33/33 34/34/34
f 31/31/31 34/34/34 35/35/35
f 31/31/31 35/35/35 36/36/36
f 36/36/36 35/35/35 37/37/37
f 36/36/36 37/37/37 38/38/38
f 41/41/41 40/40/40 39/39/39
f 41/41/41 42/42/42 40/40/40
f 41/41/41 43/43/43 42/42/42
f 44/44/44 43/43/43 41/41/41
f 45/45/45 42/42/42 43/43/43
f 45/45/45 46/46/46 42/42/42
f 47/47/47 46/46/46 45/45/45
f 48/48/48 46/46/46 47/47/47
f 46/46/46 48/48/48 49/49/49
f 49/49/49 50/50/50 46/46/46
f 49/49/49 51/51/51 50/50/50
f 52/52/52 51/51/51 49/49/49
f 52/52/52 53/53/53 51/51/51
f 52/52/52 54/54/54 53/53/53
f 52/52/52 55/55/55 54/54/54
f 52/52/52 56/56/56 55/55/55
f 57/57/57 56/56/56 52/52/52
f 58/58/58 56/56/56 57/57/57
f 58/58/58 59/59/59 56/56/56
f 58/58/58 60/60/60 59/59/59
f 58/58/58 61/61/61 60/60/60
f 60/60/60 61/61/61 62/62/62
f 62/62/62 61/61/61 63/63/63
f 63/63/63 61/61/61 64/64/64
f 58/58/58 65/65/65 61/61/61
f 58/58/58 66/66/66 65/65/65
f 67/67/67 66/66/66 58/58/58
f 67/67/67 68/68/68 66/66/66
f 69/69/69 68/68/68 67/67/67
f 70/70/70 68/68/68 69/69/69
f 70/70/70 71/71/71 68/68/68
f 44/44/44 71/71/71 70/70/70
f 44/44/44 70/70/70 43/43/43
f 72/72/72 71/71/71 44/44/44
f 73/73/73 71/71/71 72/72/72
f 73/73/73 72/72/72 74/74/74
f 73/73/73 74/74/74 75/75/75
f 75/75/75 74/74/74 76/76/76
f 76/76/76 74/74/74 77/77/77
f 76/76/76 77/77/77 78/78/78
f 78/78/78 77/77/77 79/79/79
f 79/79/79 77/77/77 80/80/80
f 79/79/79 80/80/80 81/81/81
f 81/81/81 80/80/80 82/82/82
f 82/82/82 80/80/80 83/83/83
f 86/86/86 85/85/85 84/84/84
f 86/86/86 87/87/87 85/85/85
f 86/86/86 88/88/88 87/87/87
f 89/89/89 88/88/88 86/86/86
f 90/90/90 88/88/88 89/89/89
f 91/91/91 88/88/88 90/90/90
f 92/92/92 88/88/88 91/91/91
f 64/64/64 88/88/88 92/92/92
f 93/93/93 88/88/88 64/64/64
f 94/94/94 88/88/88 93/93/93
f 94/94/94 95/95/95 88/88/88
f 96/96/96 95/95/95 94/94/94
f 99/99/99 98/98/98 97/97/97
f 99/99/99 100/100/100 98/98/98
f 101/101/101 100/100/100 99/99/99
f 102/102/102 100/100/100 101/101/101
f 103/103/103 100/100/100 102/102/102
f 106/106/106 105/105/105 104/104/104
f 106/106/106 107/107/107 105/105/105
f 106/106/106 108/108/108 107/107/107
f 109/109/109 108/108/108 106/106/106
f 109/109/109 110/110/110 108/108/108
f 109/109/109 111/111/111 110/110/110
f 109/109/109 112/112/112 111/111/111
f 109/109/109 113/113/113 112/112/112
f 113/113/113 109/109/109 114/114/114
