g China_mountains_r_4_bush_2
v -1.346759 0.9142514 0
v -1.697447 0.9142514 0
v -1.549373 0.8174945 0
v -1.677314 0.7168475 0
v -1.986035 0.8229263 0
v -1.810373 0.5786713 0
v -2.325765 0.654888 0
v -1.922961 0.4132007 0
v -2.008255 0.2187304 0
v -2.570516 0.4357074 0
v -2.052608 0.04302458 0
v -2.760472 0.1544259 0
v -2.074785 -0.1514458 0
v -2.866797 -0.1126766 0
v -2.071373 -0.2725633 0
v -2.311903 -0.2759752 0
v -2.158373 -0.3288574 0
v -2.059432 -0.4056221 0
v -2.508079 -0.2810927 0
v -2.671843 -0.3442104 0
v -2.816843 -0.4602103 0
v -3.136741 -0.1997551 0
v -2.912373 -0.6120337 0
v -3.371853 -0.3695579 0
v -2.960137 -0.7570336 0
v -3.580841 -0.6046698 0
v -2.973783 -0.9110861 0
v -3.694043 -0.9110861 0
v 1.080984 -0.9110861 0
v 2.153013 -0.9110861 0
v 1.206846 -0.7685016 0
v 1.293376 -0.5875738 0
v 2.135083 -0.7344137 0
v 2.056419 -0.553486 0
v 1.930556 -0.3882913 0
v 1.741762 -0.2466958 0
v 1.343196 -0.3804249 0
v 1.516258 -0.1890087 0
v 1.361552 -0.1837644 0
v 0.01114985 0.8808243 0
v -0.1697778 0.8205151 0
v -0.126669 0.7543768 0
v -0.3664383 0.6998968 0
v -0.2068456 0.6008478 0
v -0.2631393 0.4370831 0
v -0.4200804 0.4575537 0
v -0.5138733 0.5526037 0
v -0.3399042 0.3603185 0
v -0.2750806 0.2579656 0
v -2.973783 -0.9110861 0
v 1.080984 -0.9110861 0
v -2.960137 -0.7570336 0
v -2.912373 -0.6120337 0
v -2.816843 -0.4602103 0
v -2.671843 -0.3442104 0
v 1.206846 -0.7685016 0
v -2.059432 -0.4056221 0
v -0.2750806 0.2579656 0
v -2.508079 -0.2810927 0
v -2.158373 -0.3288574 0
v -2.311903 -0.2759752 0
v 1.343196 -0.3804249 0
v 1.293376 -0.5875738 0
v 1.351063 -0.02119175 0
v 1.361552 -0.1837644 0
v 1.201602 0.3799957 0
v 1.295998 0.1649802 0
v 0.8528564 0.7523395 0
v 1.039029 0.595011 0
v -0.3399042 0.3603185 0
v -0.2068456 0.6008478 0
v -0.2631393 0.4370831 0
v 0.2654971 0.91229 0
v 0.5486887 0.8834466 0
v -0.126669 0.7543768 0
v 0.01114985 0.8808243 0
v -2.074785 -0.1514458 0
v -2.071373 -0.2725633 0
v -0.5138733 0.5526037 0
v -0.4200804 0.4575537 0
v -2.008255 0.2187304 0
v -2.052608 0.04302458 0
v -1.810373 0.5786713 0
v -1.922961 0.4132007 0
v -1.014336 0.8594565 0
v -0.7367066 0.727948 0
v -1.549373 0.8174945 0
v -1.346759 0.9142514 0
v -1.677314 0.7168475 0
v 3.257241 -0.4494379 0
v 3.107627 -0.4159578 0
v 3.158508 -0.4670459 0
v 3.08132 -0.5142171 0
v 3.003058 -0.6010547 0
v 2.912345 -0.4304718 0
v 2.939806 -0.699685 0
v 2.743453 -0.4977649 0
v 2.896924 -0.8090363 0
v 2.614144 -0.5967252 0
v 2.533657 -0.691727 0
v 2.880843 -0.9142514 0
v 2.470322 -0.7972845 0
v 2.433975 -0.9142514 0
v 3.694043 -0.9142514 0
v 3.638053 -0.7708951 0
v 2.880843 -0.9142514 0
v 3.549649 -0.6323507 0
v 2.896924 -0.8090363 0
v 2.939806 -0.699685 0
v 3.436174 -0.5320712 0
v 3.003058 -0.6010547 0
v 3.296311 -0.4581808 0
v 3.08132 -0.5142171 0
v 3.257241 -0.4494379 0
v 3.158508 -0.4670459 0
vt 0.4051928 0.9809977
vt 0.3474953 0.9809977
vt 0.3718574 0.9300045
vt 0.3508077 0.8769612
vt 0.300015 0.9328671
vt 0.3289161 0.804139
vt 0.2441204 0.8443071
vt 0.3103922 0.7169323
vt 0.2963591 0.614442
vt 0.2038523 0.728794
vt 0.2890619 0.521841
vt 0.1725996 0.5805519
vt 0.2854133 0.4193506
vt 0.1551063 0.4397828
vt 0.2859746 0.3555188
vt 0.2464011 0.3537207
vt 0.2716609 0.3258505
vt 0.2879393 0.2853938
vt 0.214125 0.3510236
vt 0.1871815 0.3177592
vt 0.1633251 0.2566245
vt 0.1106934 0.3938904
vt 0.147608 0.1766101
vt 0.07201132 0.3044003
vt 0.1397495 0.1001918
vt 0.03762719 0.180491
vt 0.1375044 0.01900244
vt 0.01900256 0.01900244
vt 0.8046207 0.01900244
vt 0.9809978 0.01900244
vt 0.8253282 0.09414777
vt 0.8395648 0.1895009
vt 0.9780479 0.1121129
vt 0.9651056 0.207466
vt 0.9443978 0.2945274
vt 0.9133362 0.3691516
vt 0.8477617 0.2986732
vt 0.8762348 0.399554
vt 0.8507814 0.4023178
vt 0.6286047 0.9633808
vt 0.5988373 0.9315965
vt 0.6059299 0.8967401
vt 0.5664815 0.8680277
vt 0.5927387 0.8158267
vt 0.5834769 0.7295188
vt 0.5576559 0.7403073
vt 0.5422245 0.790401
vt 0.5708471 0.6890621
vt 0.5815122 0.6351197
vt 0.1375044 0.01900244
vt 0.8046207 0.01900244
vt 0.1397495 0.1001918
vt 0.147608 0.1766101
vt 0.1633251 0.2566245
vt 0.1871815 0.3177592
vt 0.8253282 0.09414777
vt 0.2879393 0.2853938
vt 0.5815122 0.6351197
vt 0.214125 0.3510236
vt 0.2716609 0.3258505
vt 0.2464011 0.3537207
vt 0.8477617 0.2986732
vt 0.8395648 0.1895009
vt 0.849056 0.4879974
vt 0.8507814 0.4023178
vt 0.8244654 0.6994325
vt 0.8399962 0.5861143
vt 0.7670877 0.8956664
vt 0.7977179 0.8127506
vt 0.5708471 0.6890621
vt 0.5927387 0.8158267
vt 0.5834769 0.7295188
vt 0.6704516 0.979964
vt 0.7170441 0.9647627
vt 0.6059299 0.8967401
vt 0.6286047 0.9633808
vt 0.2854133 0.4193506
vt 0.2859746 0.3555188
vt 0.5422245 0.790401
vt 0.5576559 0.7403073
vt 0.2963591 0.614442
vt 0.2890619 0.521841
vt 0.3289161 0.804139
vt 0.3103922 0.7169323
vt 0.4598853 0.9521194
vt 0.5055625 0.8828114
vt 0.3718574 0.9300045
vt 0.4051928 0.9809977
vt 0.3508077 0.8769612
vt 0.6475219 0.916362
vt 0.5332996 0.980998
vt 0.5721452 0.8823683
vt 0.5132155 0.7913008
vt 0.4534674 0.6236542
vt 0.3842124 0.9529774
vt 0.4051778 0.4332402
vt 0.2552722 0.8230629
vt 0.3724391 0.2221292
vt 0.1565526 0.6320124
vt 0.09510452 0.4486037
vt 0.3601623 0.0190028
vt 0.04675183 0.2448168
vt 0.01900232 0.0190028
vt 0.9809976 0.0190028
vt 0.9382521 0.2957635
vt 0.3601623 0.0190028
vt 0.8707601 0.563234
vt 0.3724391 0.2221292
vt 0.4051778 0.4332402
vt 0.7841284 0.756832
vt 0.4534674 0.6236542
vt 0.6773497 0.8994832
vt 0.5132155 0.7913008
vt 0.6475219 0.916362
vt 0.5721452 0.8823683
vn 0 0 -1
vn 0 0 -1
vn 0 0 -1
vn 0 0 -1
vn 0 0 -1
vn 0 0 -1
vn 0 0 -1
vn 0 0 -1
vn 0 0 -1
vn 0 0 -1
vn 0 0 -1
vn 0 0 -1
vn 0 0 -1
vn 0 0 -1
vn 0 0 -1
vn 0 0 -1
vn 0 0 -1
vn 0 0 -1
vn 0 0 -1
vn 0 0 -1
vn 0 0 -1
vn 0 0 -1
vn 0 0 -1
vn 0 0 -1
vn 0 0 -1
vn 0 0 -1
vn 0 0 -1
vn 0 0 -1
vn 0 0 -1
vn 0 0 -1
vn 0 0 -1
vn 0 0 -1
vn 0 0 -1
vn 0 0 -1
vn 0 0 -1
vn 0 0 -1
vn 0 0 -1
vn 0 0 -1
vn 0 0 -1
vn 0 0 -1
vn 0 0 -1
vn 0 0 -1
vn 0 0 -1
vn 0 0 -1
vn 0 0 -1
vn 0 0 -1
vn 0 0 -1
vn 0 0 -1
vn 0 0 -1
vn 0 0 -1
vn 0 0 -1
vn 0 0 -1
vn 0 0 -1
vn 0 0 -1
vn 0 0 -1
vn 0 0 -1
vn 0 0 -1
vn 0 0 -1
vn 0 0 -1
vn 0 0 -1
vn 0 0 -1
vn 0 0 -1
vn 0 0 -1
vn 0 0 -1
vn 0 0 -1
vn 0 0 -1
vn 0 0 -1
vn 0 0 -1
vn 0 0 -1
vn 0 0 -1
vn 0 0 -1
vn 0 0 -1
vn 0 0 -1
vn 0 0 -1
vn 0 0 -1
vn 0 0 -1
vn 0 0 -1
vn 0 0 -1
vn 0 0 -1
vn 0 0 -1
vn 0 0 -1
vn 0 0 -1
vn 0 0 -1
vn 0 0 -1
vn 0 0 -1
vn 0 0 -1
vn 0 0 -1
vn 0 0 -1
vn 0 0 -1
vn 0 0 -1
vn 0 0 -1
vn 0 0 -1
vn 0 0 -1
vn 0 0 -1
vn 0 0 -1
vn 0 0 -1
vn 0 0 -1
vn 0 0 -1
vn 0 0 -1
vn 0 0 -1
vn 0 0 -1
vn 0 0 -1
vn 0 0 -1
vn 0 0 -1
vn 0 0 -1
vn 0 0 -1
vn 0 0 -1
vn 0 0 -1
vn 0 0 -1
vn 0 0 -1
vn 0 0 -1
vn 0 0 -1
vn 0 0 -1
vn 0 0 -1
vn 0 0 -1
g China_mountains_r_4_bush_2_0
f 3/3/3 2/2/2 1/1/1
f 4/4/4 2/2/2 3/3/3
f 4/4/4 5/5/5 2/2/2
f 6/6/6 5/5/5 4/4/4
f 6/6/6 7/7/7 5/5/5
f 8/8/8 7/7/7 6/6/6
f 9/9/9 7/7/7 8/8/8
f 9/9/9 10/10/10 7/7/7
f 11/11/11 10/10/10 9/9/9
f 11/11/11 12/12/12 10/10/10
f 13/13/13 12/12/12 11/11/11
f 13/13/13 14/14/14 12/12/12
f 15/15/15 14/14/14 13/13/13
f 16/16/16 14/14/14 15/15/15
f 16/16/16 15/15/15 17/17/17
f 17/17/17 15/15/15 18/18/18
f 19/19/19 14/14/14 16/16/16
f 14/14/14 19/19/19 20/20/20
f 14/14/14 20/20/20 21/21/21
f 14/14/14 21/21/21 22/22/22
f 22/22/22 21/21/21 23/23/23
f 22/22/22 23/23/23 24/24/24
f 24/24/24 23/23/23 25/25/25
f 24/24/24 25/25/25 26/26/26
f 26/26/26 25/25/25 27/27/27
f 26/26/26 27/27/27 28/28/28
f 31/31/31 30/30/30 29/29/29
f 32/32/32 30/30/30 31/31/31
f 32/32/32 33/33/33 30/30/30
f 32/32/32 34/34/34 33/33/33
f 32/32/32 35/35/35 34/34/34
f 32/32/32 36/36/36 35/35/35
f 37/37/37 36/36/36 32/32/32
f 37/37/37 38/38/38 36/36/36
f 39/39/39 38/38/38 37/37/37
f 42/42/42 41/41/41 40/40/40
f 43/43/43 41/41/41 42/42/42
f 43/43/43 42/42/42 44/44/44
f 43/43/43 44/44/44 45/45/45
f 43/43/43 45/45/45 46/46/46
f 43/43/43 46/46/46 47/47/47
f 46/46/46 45/45/45 48/48/48
f 48/48/48 45/45/45 49/49/49
f 52/52/52 51/51/51 50/50/50
f 53/53/53 51/51/51 52/52/52
f 54/54/54 51/51/51 53/53/53
f 55/55/55 51/51/51 54/54/54
f 55/55/55 56/56/56 51/51/51
f 55/55/55 57/57/57 56/56/56
f 56/56/56 57/57/57 58/58/58
f 59/59/59 57/57/57 55/55/55
f 57/57/57 59/59/59 60/60/60
f 60/60/60 59/59/59 61/61/61
f 56/56/56 58/58/58 62/62/62
f 56/56/56 62/62/62 63/63/63
f 62/62/62 58/58/58 64/64/64
f 62/62/62 64/64/64 65/65/65
f 64/64/64 58/58/58 66/66/66
f 64/64/64 66/66/66 67/67/67
f 66/66/66 58/58/58 68/68/68
f 66/66/66 68/68/68 69/69/69
f 58/58/58 57/57/57 70/70/70
f 68/68/68 58/58/58 71/71/71
f 71/71/71 58/58/58 72/72/72
f 68/68/68 71/71/71 73/73/73
f 68/68/68 73/73/73 74/74/74
f 73/73/73 71/71/71 75/75/75
f 73/73/73 75/75/75 76/76/76
f 70/70/70 57/57/57 77/77/77
f 77/77/77 57/57/57 78/78/78
f 70/70/70 77/77/77 79/79/79
f 70/70/70 79/79/79 80/80/80
f 79/79/79 77/77/77 81/81/81
f 81/81/81 77/77/77 82/82/82
f 79/79/79 81/81/81 83/83/83
f 83/83/83 81/81/81 84/84/84
f 79/79/79 83/83/83 85/85/85
f 79/79/79 85/85/85 86/86/86
f 85/85/85 83/83/83 87/87/87
f 85/85/85 87/87/87 88/88/88
f 87/87/87 83/83/83 89/89/89
f 92/92/92 91/91/91 90/90/90
f 92/92/92 93/93/93 91/91/91
f 91/91/91 93/93/93 94/94/94
f 91/91/91 94/94/94 95/95/95
f 95/95/95 94/94/94 96/96/96
f 95/95/95 96/96/96 97/97/97
f 97/97/97 96/96/96 98/98/98
f 97/97/97 98/98/98 99/99/99
f 99/99/99 98/98/98 100/100/100
f 100/100/100 98/98/98 101/101/101
f 100/100/100 101/101/101 102/102/102
f 102/102/102 101/101/101 103/103/103
f 106/106/106 105/105/105 104/104/104
f 106/106/106 107/107/107 105/105/105
f 108/108/108 107/107/107 106/106/106
f 109/109/109 107/107/107 108/108/108
f 109/109/109 110/110/110 107/107/107
f 111/111/111 110/110/110 109/109/109
f 111/111/111 112/112/112 110/110/110
f 113/113/113 112/112/112 111/111/111
f 113/113/113 114/114/114 112/112/112
f 113/113/113 115/115/115 114/114/114
