g China_cloud_2
v 1.696271 -0.8709375 0
v 2.863929 -0.8709366 0
v 1.733115 -0.6908685 0
v 2.825997 -0.6588104 0
v 1.81785 -0.5195566 0
v 1.983636 -0.3703487 0
v 2.149423 -0.3021919 0
v 2.375996 -0.2911391 0
v 2.560204 -0.3427171 0
v 2.711421 -0.4420445 0
v 2.711421 -0.4420445 0
v 2.541106 -0.2779217 0
v 2.560204 -0.3427171 0
v 2.375996 -0.2911391 0
v 2.318146 -0.1788287 0
v 2.149423 -0.3021919 0
v 2.06422 -0.144765 0
v 1.983636 -0.3703487 0
v 1.835068 -0.1850215 0
v 1.81785 -0.5195566 0
v 1.664751 -0.2934044 0
v 1.633643 -0.4679785 0
v 1.733115 -0.6908685 0
v 1.559959 -0.6374487 0
v 1.47154 -0.7627093 0
v 1.696271 -0.8709375 0
v 1.35365 -0.8709375 0
v -1.063149 -0.8709375 0
v 1.35365 -0.8709375 0
v -1.017098 -0.7534992 0
v -0.9213101 -0.5913967 0
v -0.7334189 -0.4053479 0
v -0.5381598 -0.2874548 0
v -0.2747431 -0.2266666 0
v -0.09053589 -0.2248249 0
v -0.08316822 -0.09035404 0
v -0.05185242 0.0643807 0
v 0.03288223 0.2541139 0
v 0.1636697 0.4346367 0
v 0.3902446 0.6077911 0
v 0.640766 0.6814737 0
v 0.9041824 0.6888425 0
v 1.156545 0.6133178 0
v 1.366542 0.4935832 0
v 1.47154 -0.7627093 0
v 1.559959 -0.6374487 0
v 1.633643 -0.4679785 0
v 1.664751 -0.2934044 0
v 1.667848 -0.06734893 0
v 1.615205 0.1494169 0
v 1.519208 0.3568929 0
v 1.519208 0.3568929 0
v 1.351989 0.5581753 0
v 1.366542 0.4935832 0
v 1.156545 0.6133178 0
v 1.132127 0.7346844 0
v 0.9041824 0.6888425 0
v 0.8348477 0.8523571 0
v 0.640766 0.6814737 0
v 0.5251825 0.8709375 0
v 0.3902446 0.6077911 0
v 0.2031306 0.8090048 0
v 0.1636697 0.4346367 0
v -0.04150505 0.6727518 0
v -0.2180144 0.5148219 0
v 0.03288223 0.2541139 0
v -0.3697505 0.3042499 0
v -0.05185242 0.0643807 0
v -0.459554 0.07819359 0
v -0.08316822 -0.09035404 0
v -0.4998105 -0.09831569 0
v -0.2747431 -0.2266666 0
v -0.09053589 -0.2248249 0
v -0.5381598 -0.2874548 0
v -0.7070981 -0.03269953 0
v -0.7334189 -0.4053479 0
v -0.9284149 -0.06005333 0
v -1.142272 -0.1644947 0
v -0.9213101 -0.5913967 0
v -1.276555 -0.2962907 0
v -1.366075 -0.4579262 0
v -1.017098 -0.7534992 0
v -1.063149 -0.8709375 0
v -1.62718 -0.3460245 0
v -1.880825 -0.3062375 0
v -2.161823 -0.3385641 0
v -2.422927 -0.4380327 0
v -2.624351 -0.5797744 0
v -2.773552 -0.7289776 0
v -2.863929 -0.8709366 0
vt 0.7848891 0.01900232
vt 0.9809976 0.0190028
vt 0.7910769 0.1184504
vt 0.9746267 0.1361549
vt 0.8053083 0.2130617
vt 0.8331521 0.2954658
vt 0.8609959 0.333107
vt 0.899049 0.3392111
vt 0.9299868 0.3107259
vt 0.9553836 0.2558695
vt 0.9553836 0.2558695
vt 0.9267793 0.3465106
vt 0.9299868 0.3107259
vt 0.899049 0.3392111
vt 0.889333 0.4012372
vt 0.8609959 0.333107
vt 0.846686 0.42005
vt 0.8331521 0.2954658
vt 0.8082001 0.397817
vt 0.8053083 0.2130617
vt 0.7795953 0.3379598
vt 0.7743705 0.241547
vt 0.7910769 0.1184504
vt 0.7619956 0.1479526
vt 0.7471455 0.07877427
vt 0.7848891 0.01900232
vt 0.7273458 0.01900232
vt 0.3214437 0.01900232
vt 0.7273458 0.01900232
vt 0.3291781 0.08386096
vt 0.3452657 0.1733861
vt 0.3768221 0.2761365
vt 0.4096159 0.3412455
vt 0.4538568 0.3748175
vt 0.4847944 0.3758349
vt 0.4860318 0.4500995
vt 0.4912912 0.5355558
vt 0.5055224 0.640341
vt 0.5274882 0.7400396
vt 0.5655416 0.8356684
vt 0.6076168 0.8763615
vt 0.6518576 0.8804312
vt 0.6942419 0.8387207
vt 0.7295109 0.7725941
vt 0.7471455 0.07877427
vt 0.7619956 0.1479526
vt 0.7743705 0.241547
vt 0.7795953 0.3379598
vt 0.7801155 0.462805
vt 0.771274 0.5825196
vt 0.7551513 0.6971034
vt 0.7551513 0.6971034
vt 0.7270669 0.8082666
vt 0.7295109 0.7725941
vt 0.6942419 0.8387207
vt 0.690141 0.9057486
vt 0.6518576 0.8804312
vt 0.6402128 0.9707361
vt 0.6076168 0.8763615
vt 0.5882044 0.9809976
vt 0.5655416 0.8356684
vt 0.5341157 0.9467939
vt 0.5274882 0.7400396
vt 0.4930291 0.8715445
vt 0.4633844 0.7843239
vt 0.5055224 0.640341
vt 0.4379002 0.66803
vt 0.4912912 0.5355558
vt 0.4228177 0.5431843
vt 0.4860318 0.4500995
vt 0.4160567 0.4457028
vt 0.4538568 0.3748175
vt 0.4847944 0.3758349
vt 0.4096159 0.3412455
vt 0.3812426 0.4819408
vt 0.3768221 0.2761365
vt 0.3440723 0.4668339
vt 0.308155 0.4091537
vt 0.3452657 0.1733861
vt 0.2856022 0.3363657
vt 0.2705672 0.2470984
vt 0.3291781 0.08386096
vt 0.3214437 0.01900232
vt 0.2267146 0.3088992
vt 0.184115 0.3308726
vt 0.1369214 0.3130194
vt 0.09306887 0.2580855
vt 0.05923977 0.1798049
vt 0.03418121 0.09740362
vt 0.0190022 0.0190028
vn 0 0 -1
vn 0 0 -1
vn 0 0 -1
vn 0 0 -1
vn 0 0 -1
vn 0 0 -1
vn 0 0 -1
vn 0 0 -1
vn 0 0 -1
vn 0 0 -1
vn 0 0 -1
vn 0 0 -1
vn 0 0 -1
vn 0 0 -1
vn 0 0 -1
vn 0 0 -1
vn 0 0 -1
vn 0 0 -1
vn 0 0 -1
vn 0 0 -1
vn 0 0 -1
vn 0 0 -1
vn 0 0 -1
vn 0 0 -1
vn 0 0 -1
vn 0 0 -1
vn 0 0 -1
vn 0 0 -1
vn 0 0 -1
vn 0 0 -1
vn 0 0 -1
vn 0 0 -1
vn 0 0 -1
vn 0 0 -1
vn 0 0 -1
vn 0 0 -1
vn 0 0 -1
vn 0 0 -1
vn 0 0 -1
vn 0 0 -1
vn 0 0 -1
vn 0 0 -1
vn 0 0 -1
vn 0 0 -1
vn 0 0 -1
vn 0 0 -1
vn 0 0 -1
vn 0 0 -1
vn 0 0 -1
vn 0 0 -1
vn 0 0 -1
vn 0 0 -1
vn 0 0 -1
vn 0 0 -1
vn 0 0 -1
vn 0 0 -1
vn 0 0 -1
vn 0 0 -1
vn 0 0 -1
vn 0 0 -1
vn 0 0 -1
vn 0 0 -1
vn 0 0 -1
vn 0 0 -1
vn 0 0 -1
vn 0 0 -1
vn 0 0 -1
vn 0 0 -1
vn 0 0 -1
vn 0 0 -1
vn 0 0 -1
vn 0 0 -1
vn 0 0 -1
vn 0 0 -1
vn 0 0 -1
vn 0 0 -1
vn 0 0 -1
vn 0 0 -1
vn 0 0 -1
vn 0 0 -1
vn 0 0 -1
vn 0 0 -1
vn 0 0 -1
vn 0 0 -1
vn 0 0 -1
vn 0 0 -1
vn 0 0 -1
vn 0 0 -1
vn 0 0 -1
vn 0 0 -1
g China_cloud_2_0
f 3/3/3 2/2/2 1/1/1
f 3/3/3 4/4/4 2/2/2
f 5/5/5 4/4/4 3/3/3
f 6/6/6 4/4/4 5/5/5
f 7/7/7 4/4/4 6/6/6
f 8/8/8 4/4/4 7/7/7
f 9/9/9 4/4/4 8/8/8
f 4/4/4 9/9/9 10/10/10
f 13/13/13 12/12/12 11/11/11
f 14/14/14 12/12/12 13/13/13
f 14/14/14 15/15/15 12/12/12
f 16/16/16 15/15/15 14/14/14
f 16/16/16 17/17/17 15/15/15
f 18/18/18 17/17/17 16/16/16
f 18/18/18 19/19/19 17/17/17
f 20/20/20 19/19/19 18/18/18
f 20/20/20 21/21/21 19/19/19
f 20/20/20 22/22/22 21/21/21
f 22/22/22 20/20/20 23/23/23
f 22/22/22 23/23/23 24/24/24
f 24/24/24 23/23/23 25/25/25
f 25/25/25 23/23/23 26/26/26
f 25/25/25 26/26/26 27/27/27
f 30/30/30 29/29/29 28/28/28
f 31/31/31 29/29/29 30/30/30
f 32/32/32 29/29/29 31/31/31
f 33/33/33 29/29/29 32/32/32
f 34/34/34 29/29/29 33/33/33
f 35/35/35 29/29/29 34/34/34
f 36/36/36 29/29/29 35/35/35
f 37/37/37 29/29/29 36/36/36
f 38/38/38 29/29/29 37/37/37
f 39/39/39 29/29/29 38/38/38
f 40/40/40 29/29/29 39/39/39
f 41/41/41 29/29/29 40/40/40
f 42/42/42 29/29/29 41/41/41
f 43/43/43 29/29/29 42/42/42
f 44/44/44 29/29/29 43/43/43
f 44/44/44 45/45/45 29/29/29
f 44/44/44 46/46/46 45/45/45
f 44/44/44 47/47/47 46/46/46
f 44/44/44 48/48/48 47/47/47
f 44/44/44 49/49/49 48/48/48
f 44/44/44 50/50/50 49/49/49
f 50/50/50 44/44/44 51/51/51
f 54/54/54 53/53/53 52/52/52
f 55/55/55 53/53/53 54/54/54
f 55/55/55 56/56/56 53/53/53
f 57/57/57 56/56/56 55/55/55
f 57/57/57 58/58/58 56/56/56
f 59/59/59 58/58/58 57/57/57
f 59/59/59 60/60/60 58/58/58
f 61/61/61 60/60/60 59/59/59
f 61/61/61 62/62/62 60/60/60
f 63/63/63 62/62/62 61/61/61
f 63/63/63 64/64/64 62/62/62
f 63/63/63 65/65/65 64/64/64
f 66/66/66 65/65/65 63/63/63
f 66/66/66 67/67/67 65/65/65
f 68/68/68 67/67/67 66/66/66
f 68/68/68 69/69/69 67/67/67
f 70/70/70 69/69/69 68/68/68
f 70/70/70 71/71/71 69/69/69
f 70/70/70 72/72/72 71/71/71
f 73/73/73 72/72/72 70/70/70
f 71/71/71 72/72/72 74/74/74
f 71/71/71 74/74/74 75/75/75
f 75/75/75 74/74/74 76/76/76
f 75/75/75 76/76/76 77/77/77
f 77/77/77 76/76/76 78/78/78
f 78/78/78 76/76/76 79/79/79
f 78/78/78 79/79/79 80/80/80
f 80/80/80 79/79/79 81/81/81
f 81/81/81 79/79/79 82/82/82
f 81/81/81 82/82/82 83/83/83
f 81/81/81 83/83/83 84/84/84
f 84/84/84 83/83/83 85/85/85
f 85/85/85 83/83/83 86/86/86
f 86/86/86 83/83/83 87/87/87
f 87/87/87 83/83/83 88/88/88
f 88/88/88 83/83/83 89/89/89
f 89/89/89 83/83/83 90/90/90
