g China_mountains_r_1
v 2.19292 0.8892465 0
v 2.729707 -2.865995 0
v 2.280409 0.8476892 0
v 2.378835 0.7820721 0
v 2.496946 0.6792718 0
v 2.593185 0.5545993 0
v 2.663176 0.4189897 0
v 2.702546 0.3008787 0
v 3.218318 -2.866515 0
v 0.8247659 2.866515 0
v 0.147848 2.866514 0
v 0.6616818 2.832175 0
v 0.4985995 2.740112 0
v 0.3526147 2.596758 0
v 0.2552911 2.445512 0
v -0.05119127 2.835892 0
v -0.2458556 2.772463 0
v 0.2066298 2.295582 0
v -0.4098988 2.680599 0
v -0.5673798 2.547177 0
v 0.1816412 2.090413 0
v -0.6986145 2.38532 0
v -0.7839169 2.210341 0
v -0.8342233 2.009115 0
v -0.9198764 0.5283523 0
v -0.3654747 -0.5596783 0
v -0.1642522 -0.5254837 0
v 0.04617735 -0.5241681 0
v -0.571958 -0.6556854 0
v -1.20168 0.5283523 0
v -0.7481927 -0.802987 0
v -1.446652 0.4867941 0
v -1.70912 0.4036792 0
v -0.8968084 -0.9779059 0
v -1.962841 0.2768193 0
v -2.18594 0.1127768 0
v -0.9809793 -1.122576 0
v -2.417787 -0.1125093 0
v -2.599327 -0.3443579 0
v -1.09014 -1.394818 0
v -2.758996 -0.622138 0
v -2.877108 -0.9261642 0
v -1.311089 -2.865995 0
v -3.218318 -2.865995 0
v 2.729707 -2.865995 0
v 2.19292 0.8892465 0
v -1.311089 -2.865995 0
v -1.09014 -1.394818 0
v 0.04617735 -0.5241681 0
v -0.9809793 -1.122576 0
v -0.8968084 -0.9779059 0
v -0.7481927 -0.802987 0
v -0.1642522 -0.5254837 0
v -0.3654747 -0.5596783 0
v -0.571958 -0.6556854 0
v 0.1816412 2.090413 0
v 2.143789 1.242551 0
v 2.102826 1.537125 0
v 2.044187 1.958809 0
v 2.011379 2.085668 0
v 1.950135 2.247525 0
v 1.85171 2.402819 0
v 1.729224 2.54499 0
v 1.578304 2.663101 0
v 1.379266 2.772463 0
v 1.16929 2.842454 0
v 0.2066298 2.295582 0
v 0.9943106 2.866514 0
v 0.2552911 2.445512 0
v 0.3526147 2.596758 0
v 0.4985995 2.740112 0
v 0.8247659 2.866515 0
v 0.6616818 2.832175 0
vt 0.8277456 0.6492142
vt 0.9079716 0.01908949
vt 0.8408214 0.6422411
vt 0.8555318 0.6312305
vt 0.8731841 0.6139808
vt 0.8875676 0.5930609
vt 0.8980284 0.5703058
vt 0.9039124 0.550487
vt 0.9809976 0.01900232
vt 0.6232663 0.9809974
vt 0.5220967 0.9809973
vt 0.5988924 0.9752353
vt 0.5745188 0.9597872
vt 0.5527005 0.9357326
vt 0.5381548 0.9103536
vt 0.492349 0.975859
vt 0.4632553 0.9652156
vt 0.530882 0.8851954
vt 0.438738 0.949801
vt 0.4152015 0.9274129
vt 0.5271474 0.8507686
vt 0.3955877 0.9002537
vt 0.3828386 0.8708924
vt 0.37532 0.8371269
vt 0.3625187 0.5886567
vt 0.4453774 0.4060865
vt 0.4754515 0.4118243
vt 0.5069014 0.4120452
vt 0.4145172 0.3899767
vt 0.3204014 0.5886567
vt 0.3881778 0.3652597
vt 0.2837888 0.5816833
vt 0.2445612 0.5677368
vt 0.3659664 0.3359084
vt 0.2066411 0.5464499
vt 0.1732976 0.5189238
vt 0.3533865 0.311633
vt 0.1386465 0.4811208
vt 0.1115142 0.442217
vt 0.3370718 0.2659511
vt 0.08765063 0.395606
vt 0.06999812 0.3445907
vt 0.3040495 0.01980874
vt 0.01900232 0.02014819
vt 0.9079716 0.01908949
vt 0.8277456 0.6492142
vt 0.3040495 0.01980874
vt 0.3370718 0.2659511
vt 0.5069014 0.4120452
vt 0.3533865 0.311633
vt 0.3659664 0.3359084
vt 0.3881778 0.3652597
vt 0.4754515 0.4118243
vt 0.4453774 0.4060865
vt 0.4145172 0.3899767
vt 0.5271474 0.8507686
vt 0.8204026 0.7084984
vt 0.8142804 0.7579277
vt 0.8055165 0.8286856
vt 0.800613 0.8499725
vt 0.7914599 0.8771316
vt 0.7767495 0.9031899
vt 0.7584434 0.9270458
vt 0.7358874 0.9468648
vt 0.7061399 0.9652156
vt 0.6747577 0.9769602
vt 0.530882 0.8851954
vt 0.6486058 0.9809973
vt 0.5381548 0.9103536
vt 0.5527005 0.9357326
vt 0.5745188 0.9597872
vt 0.6232663 0.9809974
vt 0.5988924 0.9752353
vn 0 0 -1
vn 0 0 -1
vn 0 0 -1
vn 0 0 -1
vn 0 0 -1
vn 0 0 -1
vn 0 0 -1
vn 0 0 -1
vn 0 0 -1
vn 0 0 -1
vn 0 0 -1
vn 0 0 -1
vn 0 0 -1
vn 0 0 -1
vn 0 0 -1
vn 0 0 -1
vn 0 0 -1
vn 0 0 -1
vn 0 0 -1
vn 0 0 -1
vn 0 0 -1
vn 0 0 -1
vn 0 0 -1
vn 0 0 -1
vn 0 0 -1
vn 0 0 -1
vn 0 0 -1
vn 0 0 -1
vn 0 0 -1
vn 0 0 -1
vn 0 0 -1
vn 0 0 -1
vn 0 0 -1
vn 0 0 -1
vn 0 0 -1
vn 0 0 -1
vn 0 0 -1
vn 0 0 -1
vn 0 0 -1
vn 0 0 -1
vn 0 0 -1
vn 0 0 -1
vn 0 0 -1
vn 0 0 -1
vn 0 0 -1
vn 0 0 -1
vn 0 0 -1
vn 0 0 -1
vn 0 0 -1
vn 0 0 -1
vn 0 0 -1
vn 0 0 -1
vn 0 0 -1
vn 0 0 -1
vn 0 0 -1
vn 0 0 -1
vn 0 0 -1
vn 0 0 -1
vn 0 0 -1
vn 0 0 -1
vn 0 0 -1
vn 0 0 -1
vn 0 0 -1
vn 0 0 -1
vn 0 0 -1
vn 0 0 -1
vn 0 0 -1
vn 0 0 -1
vn 0 0 -1
vn 0 0 -1
vn 0 0 -1
vn 0 0 -1
vn 0 0 -1
g China_mountains_r_1_0
f 3/3/3 2/2/2 1/1/1
f 4/4/4 2/2/2 3/3/3
f 5/5/5 2/2/2 4/4/4
f 6/6/6 2/2/2 5/5/5
f 7/7/7 2/2/2 6/6/6
f 8/8/8 2/2/2 7/7/7
f 2/2/2 8/8/8 9/9/9
f 12/12/12 11/11/11 10/10/10
f 13/13/13 11/11/11 12/12/12
f 14/14/14 11/11/11 13/13/13
f 14/14/14 15/15/15 11/11/11
f 11/11/11 15/15/15 16/16/16
f 16/16/16 15/15/15 17/17/17
f 17/17/17 15/15/15 18/18/18
f 17/17/17 18/18/18 19/19/19
f 19/19/19 18/18/18 20/20/20
f 20/20/20 18/18/18 21/21/21
f 20/20/20 21/21/21 22/22/22
f 22/22/22 21/21/21 23/23/23
f 23/23/23 21/21/21 24/24/24
f 24/24/24 21/21/21 25/25/25
f 25/25/25 21/21/21 26/26/26
f 26/26/26 21/21/21 27/27/27
f 27/27/27 21/21/21 28/28/28
f 25/25/25 26/26/26 29/29/29
f 25/25/25 29/29/29 30/30/30
f 30/30/30 29/29/29 31/31/31
f 30/30/30 31/31/31 32/32/32
f 32/32/32 31/31/31 33/33/33
f 33/33/33 31/31/31 34/34/34
f 33/33/33 34/34/34 35/35/35
f 35/35/35 34/34/34 36/36/36
f 36/36/36 34/34/34 37/37/37
f 36/36/36 37/37/37 38/38/38
f 38/38/38 37/37/37 39/39/39
f 39/39/39 37/37/37 40/40/40
f 39/39/39 40/40/40 41/41/41
f 41/41/41 40/40/40 42/42/42
f 42/42/42 40/40/40 43/43/43
f 42/42/42 43/43/43 44/44/44
f 47/47/47 46/46/46 45/45/45
f 48/48/48 46/46/46 47/47/47
f 49/49/49 46/46/46 48/48/48
f 49/49/49 48/48/48 50/50/50
f 49/49/49 50/50/50 51/51/51
f 49/49/49 51/51/51 52/52/52
f 49/49/49 52/52/52 53/53/53
f 53/53/53 52/52/52 54/54/54
f 54/54/54 52/52/52 55/55/55
f 56/56/56 46/46/46 49/49/49
f 56/56/56 57/57/57 46/46/46
f 56/56/56 58/58/58 57/57/57
f 56/56/56 59/59/59 58/58/58
f 56/56/56 60/60/60 59/59/59
f 56/56/56 61/61/61 60/60/60
f 56/56/56 62/62/62 61/61/61
f 56/56/56 63/63/63 62/62/62
f 56/56/56 64/64/64 63/63/63
f 56/56/56 65/65/65 64/64/64
f 56/56/56 66/66/66 65/65/65
f 67/67/67 66/66/66 56/56/56
f 67/67/67 68/68/68 66/66/66
f 69/69/69 68/68/68 67/67/67
f 70/70/70 68/68/68 69/69/69
f 71/71/71 68/68/68 70/70/70
f 71/71/71 72/72/72 68/68/68
f 73/73/73 72/72/72 71/71/71
