g starter_pack_small
v 0.006420097 0.04147 0
v 0.0130636 0.03018568 0
v 0.02485457 0.04147 0
v 0.02554058 0.04149744 0
v 0.02611684 0.04130536 0
v 0.02658334 0.04103095 0
v 0.02700867 0.0405919 0
v 0.02724192 0.04011168 0
v 0.02731051 0.03948054 0
v 0.02731051 0.03018568 0
v -0.02731052 0.02955666 0
v -0.02731052 0.02846631 0
v 0.02731051 0.02955666 0
v 0.02731051 0.02846631 0
v -0.02731052 0.03018568 0
v -0.02731052 0.02955666 0
v -0.005629334 0.03018568 0
v 0.02731051 0.02955666 0
v -0.0001582289 0.03018568 0
v 0.002056246 0.03018568 0
v 0.0130636 0.03018568 0
v 0.02731051 0.03018568 0
v -0.02731052 0.02846631 0
v -0.02731052 -0.03961775 0
v 0.02731051 0.02846631 0
v 0.02731051 -0.03964518 0
v 0.02713215 -0.04034493 0
v 0.02689891 -0.04075655 0
v 0.02650102 -0.04114071 0
v 0.02603452 -0.04138768 0
v 0.02540337 -0.04149744 0
v -0.02718703 -0.04027633 0
v -0.02685774 -0.04078398 0
v -0.02640497 -0.04116815 0
v -0.02521129 -0.04149744 0
v -0.02588359 -0.04141512 0
v -0.004522085 0.04147 0
v 0.002056246 0.03018568 0
v 0.006420097 0.04147 0
v 0.0130636 0.03018568 0
v -0.006638879 0.04147 0
v -0.0001582289 0.03018568 0
v -0.004522085 0.04147 0
v 0.002056246 0.03018568 0
v -0.01220768 0.04147 0
v -0.005629334 0.03018568 0
v -0.006638879 0.04147 0
v -0.0001582289 0.03018568 0
v -0.005629334 0.03018568 0
v -0.01220768 0.04147 0
v -0.02731052 0.03018568 0
v -0.02545826 0.04147 0
v -0.02614428 0.04134652 0
v -0.02666566 0.04100351 0
v -0.02706355 0.04049585 0
v -0.02731052 0.03928845 0
v -0.02726936 0.0399882 0
vt 0.6130719 0.9806795
vt 0.7300784 0.8498826
vt 0.9377429 0.9806795
vt 0.9498252 0.9809976
vt 0.9599744 0.9787711
vt 0.9681904 0.9755905
vt 0.9756813 0.9705014
vt 0.9797894 0.9649352
vt 0.9809976 0.9576197
vt 0.9809976 0.8498826
vt 0.01900238 0.8425918
vt 0.01900238 0.8299536
vt 0.9809976 0.8425918
vt 0.9809976 0.8299536
vt 0.01900238 0.8498826
vt 0.01900238 0.8425918
vt 0.4008552 0.8498826
vt 0.9809976 0.8425918
vt 0.4972132 0.8498826
vt 0.536215 0.8498826
vt 0.7300784 0.8498826
vt 0.9809976 0.8498826
vt 0.01900238 0.8299536
vt 0.01900238 0.04078996
vt 0.9809976 0.8299536
vt 0.9809976 0.04047197
vt 0.9778561 0.03236118
vt 0.9737483 0.02759016
vt 0.9667405 0.02313724
vt 0.9585245 0.02027464
vt 0.9474087 0.01900238
vt 0.02117726 0.03315637
vt 0.02697673 0.02727216
vt 0.03495097 0.02281916
vt 0.05597436 0.01900238
vt 0.04413366 0.01995656
vt 0.4203562 0.9806795
vt 0.536215 0.8498826
vt 0.6130719 0.9806795
vt 0.7300784 0.8498826
vt 0.3830749 0.9806795
vt 0.4972132 0.8498826
vt 0.4203562 0.9806795
vt 0.536215 0.8498826
vt 0.2849961 0.9806795
vt 0.4008552 0.8498826
vt 0.3830749 0.9806795
vt 0.4972132 0.8498826
vt 0.4008552 0.8498826
vt 0.2849961 0.9806795
vt 0.01900238 0.8498826
vt 0.05162472 0.9806795
vt 0.03954238 0.9792483
vt 0.03035977 0.9752724
vt 0.02335203 0.9693881
vt 0.01900238 0.9553932
vt 0.01972726 0.963504
vn 0 0 -1
vn 0 0 -1
vn 0 0 -1
vn 0 0 -1
vn 0 0 -1
vn 0 0 -1
vn 0 0 -1
vn 0 0 -1
vn 0 0 -1
vn 0 0 -1
vn 0 0 -1
vn 0 0 -1
vn 0 0 -1
vn 0 0 -1
vn 0 0 -1
vn 0 0 -1
vn 0 0 -1
vn 0 0 -1
vn 0 0 -1
vn 0 0 -1
vn 0 0 -1
vn 0 0 -1
vn 0 0 -1
vn 0 0 -1
vn 0 0 -1
vn 0 0 -1
vn 0 0 -1
vn 0 0 -1
vn 0 0 -1
vn 0 0 -1
vn 0 0 -1
vn 0 0 -1
vn 0 0 -1
vn 0 0 -1
vn 0 0 -1
vn 0 0 -1
vn 0 0 -1
vn 0 0 -1
vn 0 0 -1
vn 0 0 -1
vn 0 0 -1
vn 0 0 -1
vn 0 0 -1
vn 0 0 -1
vn 0 0 -1
vn 0 0 -1
vn 0 0 -1
vn 0 0 -1
vn 0 0 -1
vn 0 0 -1
vn 0 0 -1
vn 0 0 -1
vn 0 0 -1
vn 0 0 -1
vn 0 0 -1
vn 0 0 -1
vn 0 0 -1
g starter_pack_small_0
f 3/3/3 2/2/2 1/1/1
f 3/3/3 4/4/4 2/2/2
f 2/2/2 4/4/4 5/5/5
f 2/2/2 5/5/5 6/6/6
f 2/2/2 6/6/6 7/7/7
f 2/2/2 7/7/7 8/8/8
f 2/2/2 8/8/8 9/9/9
f 2/2/2 9/9/9 10/10/10
f 13/13/13 12/12/12 11/11/11
f 13/13/13 14/14/14 12/12/12
f 17/17/17 16/16/16 15/15/15
f 17/17/17 18/18/18 16/16/16
f 19/19/19 18/18/18 17/17/17
f 20/20/20 18/18/18 19/19/19
f 21/21/21 18/18/18 20/20/20
f 22/22/22 18/18/18 21/21/21
f 25/25/25 24/24/24 23/23/23
f 26/26/26 24/24/24 25/25/25
f 27/27/27 24/24/24 26/26/26
f 28/28/28 24/24/24 27/27/27
f 29/29/29 24/24/24 28/28/28
f 30/30/30 24/24/24 29/29/29
f 31/31/31 24/24/24 30/30/30
f 31/31/31 32/32/32 24/24/24
f 31/31/31 33/33/33 32/32/32
f 31/31/31 34/34/34 33/33/33
f 35/35/35 34/34/34 31/31/31
f 36/36/36 34/34/34 35/35/35
f 39/39/39 38/38/38 37/37/37
f 39/39/39 40/40/40 38/38/38
f 43/43/43 42/42/42 41/41/41
f 43/43/43 44/44/44 42/42/42
f 47/47/47 46/46/46 45/45/45
f 47/47/47 48/48/48 46/46/46
f 51/51/51 50/50/50 49/49/49
f 51/51/51 52/52/52 50/50/50
f 51/51/51 53/53/53 52/52/52
f 51/51/51 54/54/54 53/53/53
f 51/51/51 55/55/55 54/54/54
f 56/56/56 55/55/55 51/51/51
f 57/57/57 55/55/55 56/56/56
