g tournament_enemy_popup
v 0.05075895 0.00585916 0
v 0.04536057 0.005855761 0
v 0.05075895 -0.005513015 0
v 0.03673283 0.00585032 0
v 0.0459469 -0.01313322 0
v 0.04536057 0.005855761 0
v 0.04697594 -0.01313322 0
v 0.04809365 -0.01283229 0
v 0.0490609 -0.01233792 0
v 0.04974873 -0.01173608 0
v 0.05032906 -0.01076883 0
v 0.05062999 -0.009887561 0
v 0.05075895 -0.008597903 0
v 0.05075895 -0.005513015 0
v -0.05075896 0.005795173 0
v -0.04772956 0.005797081 0
v -0.05075896 0.009091964 0
v -0.05067298 0.009973233 0
v -0.05035057 0.01079002 0
v -0.04972723 0.01169278 0
v -0.0490824 0.01235911 0
v -0.04820113 0.01287497 0
v -0.04691805 0.01313322 0
v -0.0394648 0.005802293 0
v -0.03097664 0.005807643 0
v -0.02268399 0.005812869 0
v -0.01414008 0.005818257 0
v -0.00590322 0.00582345 0
v 0.002640757 0.005828834 0
v 0.01132431 0.005834308 0
v 0.01989618 0.00583971 0
v 0.02830051 0.005845008 0
v 0.03673283 0.00585032 0
v 0.04536057 0.005855761 0
v 0.04699049 0.01313322 0
v 0.04827344 0.01289435 0
v 0.04941295 0.01218894 0
v 0.05010027 0.01133883 0
v 0.05055246 0.01034402 0
v 0.05075895 0.009199436 0
v 0.05075895 0.00585916 0
v -0.05075896 -0.005680542 0
v -0.05075896 -0.009414687 0
v -0.04714439 -0.01303418 0
v -0.05054401 -0.01038193 0
v -0.04998516 -0.01139217 0
v -0.04934033 -0.01212298 0
v -0.04757779 -0.01298275 0
v -0.04854504 -0.01263885 0
v -0.03868296 -0.01313322 0
v -0.04772956 0.005797081 0
v -0.04630962 -0.01313322 0
v -0.04714439 -0.01303418 0
v -0.05075896 -0.005680542 0
v -0.05075896 0.005795173 0
v -0.03022277 -0.01313322 0
v -0.0394648 0.005802293 0
v -0.03868296 -0.01313322 0
v -0.04772956 0.005797081 0
v -0.02193008 -0.01313322 0
v -0.03097664 0.005807643 0
v -0.03022277 -0.01313322 0
v -0.0394648 0.005802293 0
v -0.01355366 -0.01313322 0
v -0.02268399 0.005812869 0
v -0.02193008 -0.01313322 0
v -0.03097664 0.005807643 0
v -0.005093498 -0.01313322 0
v -0.01414008 0.005818257 0
v -0.01355366 -0.01313322 0
v -0.02268399 0.005812869 0
v 0.003282962 -0.01313322 0
v -0.00590322 0.00582345 0
v -0.005093498 -0.01313322 0
v -0.01414008 0.005818257 0
v 0.01171523 -0.01313322 0
v 0.002640757 0.005828834 0
v 0.003282962 -0.01313322 0
v -0.00590322 0.00582345 0
v 0.02053838 -0.01313321 0
v 0.01132431 0.005834308 0
v 0.01171523 -0.01313322 0
v 0.002640757 0.005828834 0
v 0.02897066 -0.01313322 0
v 0.01989618 0.00583971 0
v 0.02053838 -0.01313321 0
v 0.01132431 0.005834308 0
v 0.03745879 -0.01313322 0
v 0.02830051 0.005845008 0
v 0.02897066 -0.01313322 0
v 0.01989618 0.00583971 0
v 0.0459469 -0.01313322 0
v 0.03673283 0.00585032 0
v 0.03745879 -0.01313322 0
v 0.02830051 0.005845008 0
vt 0.9809976 0.714589
vt 0.9298419 0.7144644
vt 0.9809976 0.2980886
vt 0.8480844 0.7142651
vt 0.9353981 0.01900238
vt 0.9298419 0.7144644
vt 0.9451494 0.01900238
vt 0.9557409 0.03002346
vt 0.9649066 0.04812965
vt 0.9714246 0.0701718
vt 0.976924 0.1055968
vt 0.9797755 0.1378729
vt 0.9809976 0.1851061
vt 0.9809976 0.2980886
vt 0.01900235 0.7122454
vt 0.04770923 0.7123154
vt 0.01900235 0.8329887
vt 0.01981705 0.8652648
vt 0.02287233 0.8951793
vt 0.02877909 0.9282426
vt 0.03488958 0.9526463
vt 0.04324061 0.9715396
vt 0.05539918 0.9809977
vt 0.126027 0.7125062
vt 0.2064618 0.7127022
vt 0.285044 0.7128936
vt 0.366007 0.7130909
vt 0.4440604 0.713281
vt 0.5250241 0.7134782
vt 0.6073104 0.7136787
vt 0.6885386 0.7138766
vt 0.7681788 0.7140706
vt 0.8480844 0.7142651
vt 0.9298419 0.7144644
vt 0.9452872 0.9809977
vt 0.9574447 0.9722494
vt 0.9682427 0.9464139
vt 0.9747559 0.9152792
vt 0.9790409 0.8788446
vt 0.9809976 0.8369249
vt 0.9809976 0.714589
vt 0.01900235 0.291953
vt 0.01900235 0.1551917
vt 0.0532544 0.02262968
vt 0.02103913 0.1197667
vt 0.02633494 0.08276746
vt 0.03244543 0.05600187
vt 0.0491474 0.02451292
vt 0.03998166 0.03710854
vt 0.1334358 0.01900238
vt 0.04770923 0.7123154
vt 0.06116471 0.01900238
vt 0.0532544 0.02262968
vt 0.01900235 0.291953
vt 0.01900235 0.7122454
vt 0.2136056 0.01900238
vt 0.126027 0.7125062
vt 0.1334358 0.01900238
vt 0.04770923 0.7123154
vt 0.292188 0.01900238
vt 0.2064618 0.7127022
vt 0.2136056 0.01900238
vt 0.126027 0.7125062
vt 0.371564 0.01900238
vt 0.285044 0.7128936
vt 0.292188 0.01900238
vt 0.2064618 0.7127022
vt 0.4517334 0.01900238
vt 0.366007 0.7130909
vt 0.371564 0.01900238
vt 0.285044 0.7128936
vt 0.5311097 0.01900238
vt 0.4440604 0.713281
vt 0.4517334 0.01900238
vt 0.366007 0.7130909
vt 0.6110148 0.01900238
vt 0.5250241 0.7134782
vt 0.5311097 0.01900238
vt 0.4440604 0.713281
vt 0.6946239 0.01900262
vt 0.6073104 0.7136787
vt 0.6110148 0.01900238
vt 0.5250241 0.7134782
vt 0.7745293 0.01900238
vt 0.6885386 0.7138766
vt 0.6946239 0.01900262
vt 0.6073104 0.7136787
vt 0.8549638 0.01900238
vt 0.7681788 0.7140706
vt 0.7745293 0.01900238
vt 0.6885386 0.7138766
vt 0.9353981 0.01900238
vt 0.8480844 0.7142651
vt 0.8549638 0.01900238
vt 0.7681788 0.7140706
vn 0 0 -1
vn 0 0 -1
vn 0 0 -1
vn 0 0 -1
vn 0 0 -1
vn 0 0 -1
vn 0 0 -1
vn 0 0 -1
vn 0 0 -1
vn 0 0 -1
vn 0 0 -1
vn 0 0 -1
vn 0 0 -1
vn 0 0 -1
vn 0 0 -1
vn 0 0 -1
vn 0 0 -1
vn 0 0 -1
vn 0 0 -1
vn 0 0 -1
vn 0 0 -1
vn 0 0 -1
vn 0 0 -1
vn 0 0 -1
vn 0 0 -1
vn 0 0 -1
vn 0 0 -1
vn 0 0 -1
vn 0 0 -1
vn 0 0 -1
vn 0 0 -1
vn 0 0 -1
vn 0 0 -1
vn 0 0 -1
vn 0 0 -1
vn 0 0 -1
vn 0 0 -1
vn 0 0 -1
vn 0 0 -1
vn 0 0 -1
vn 0 0 -1
vn 0 0 -1
vn 0 0 -1
vn 0 0 -1
vn 0 0 -1
vn 0 0 -1
vn 0 0 -1
vn 0 0 -1
vn 0 0 -1
vn 0 0 -1
vn 0 0 -1
vn 0 0 -1
vn 0 0 -1
vn 0 0 -1
vn 0 0 -1
vn 0 0 -1
vn 0 0 -1
vn 0 0 -1
vn 0 0 -1
vn 0 0 -1
vn 0 0 -1
vn 0 0 -1
vn 0 0 -1
vn 0 0 -1
vn 0 0 -1
vn 0 0 -1
vn 0 0 -1
vn 0 0 -1
vn 0 0 -1
vn 0 0 -1
vn 0 0 -1
vn 0 0 -1
vn 0 0 -1
vn 0 0 -1
vn 0 0 -1
vn 0 0 -1
vn 0 0 -1
vn 0 0 -1
vn 0 0 -1
vn 0 0 -1
vn 0 0 -1
vn 0 0 -1
vn 0 0 -1
vn 0 0 -1
vn 0 0 -1
vn 0 0 -1
vn 0 0 -1
vn 0 0 -1
vn 0 0 -1
vn 0 0 -1
vn 0 0 -1
vn 0 0 -1
vn 0 0 -1
vn 0 0 -1
vn 0 0 -1
g tournament_enemy_popup_0
f 3/3/3 2/2/2 1/1/1
f 6/6/6 5/5/5 4/4/4
f 6/6/6 7/7/7 5/5/5
f 6/6/6 8/8/8 7/7/7
f 6/6/6 9/9/9 8/8/8
f 6/6/6 10/10/10 9/9/9
f 6/6/6 11/11/11 10/10/10
f 6/6/6 12/12/12 11/11/11
f 6/6/6 13/13/13 12/12/12
f 13/13/13 6/6/6 14/14/14
f 17/17/17 16/16/16 15/15/15
f 17/17/17 18/18/18 16/16/16
f 16/16/16 18/18/18 19/19/19
f 16/16/16 19/19/19 20/20/20
f 16/16/16 20/20/20 21/21/21
f 16/16/16 21/21/21 22/22/22
f 16/16/16 22/22/22 23/23/23
f 16/16/16 23/23/23 24/24/24
f 24/24/24 23/23/23 25/25/25
f 25/25/25 23/23/23 26/26/26
f 26/26/26 23/23/23 27/27/27
f 27/27/27 23/23/23 28/28/28
f 28/28/28 23/23/23 29/29/29
f 29/29/29 23/23/23 30/30/30
f 30/30/30 23/23/23 31/31/31
f 31/31/31 23/23/23 32/32/32
f 32/32/32 23/23/23 33/33/33
f 33/33/33 23/23/23 34/34/34
f 34/34/34 23/23/23 35/35/35
f 34/34/34 35/35/35 36/36/36
f 34/34/34 36/36/36 37/37/37
f 34/34/34 37/37/37 38/38/38
f 34/34/34 38/38/38 39/39/39
f 34/34/34 39/39/39 40/40/40
f 34/34/34 40/40/40 41/41/41
f 44/44/44 43/43/43 42/42/42
f 44/44/44 45/45/45 43/43/43
f 44/44/44 46/46/46 45/45/45
f 44/44/44 47/47/47 46/46/46
f 48/48/48 47/47/47 44/44/44
f 49/49/49 47/47/47 48/48/48
f 52/52/52 51/51/51 50/50/50
f 53/53/53 51/51/51 52/52/52
f 54/54/54 51/51/51 53/53/53
f 55/55/55 51/51/51 54/54/54
f 58/58/58 57/57/57 56/56/56
f 58/58/58 59/59/59 57/57/57
f 62/62/62 61/61/61 60/60/60
f 62/62/62 63/63/63 61/61/61
f 66/66/66 65/65/65 64/64/64
f 66/66/66 67/67/67 65/65/65
f 70/70/70 69/69/69 68/68/68
f 70/70/70 71/71/71 69/69/69
f 74/74/74 73/73/73 72/72/72
f 74/74/74 75/75/75 73/73/73
f 78/78/78 77/77/77 76/76/76
f 78/78/78 79/79/79 77/77/77
f 82/82/82 81/81/81 80/80/80
f 82/82/82 83/83/83 81/81/81
f 86/86/86 85/85/85 84/84/84
f 86/86/86 87/87/87 85/85/85
f 90/90/90 89/89/89 88/88/88
f 90/90/90 91/91/91 89/89/89
f 94/94/94 93/93/93 92/92/92
f 94/94/94 95/95/95 93/93/93
